<?xml version="1.0" encoding="UTF-8" standalone="no"?>
<svg
   xmlns:dc="http://purl.org/dc/elements/1.1/"
   xmlns:cc="http://creativecommons.org/ns#"
   xmlns:rdf="http://www.w3.org/1999/02/22-rdf-syntax-ns#"
   xmlns:svg="http://www.w3.org/2000/svg"
   xmlns="http://www.w3.org/2000/svg"
   xmlns:sodipodi="http://sodipodi.sourceforge.net/DTD/sodipodi-0.dtd"
   xmlns:inkscape="http://www.inkscape.org/namespaces/inkscape"
   width="256px"
   height="256px"
   viewBox="0 0 256 256"
   version="1.1"
   preserveAspectRatio="xMidYMid"
   id="svg15"
   sodipodi:docname="jira_green.svg"
   inkscape:version="0.92.3 (2405546, 2018-03-11)">
  <metadata
     id="metadata19">
    <rdf:RDF>
      <cc:Work
         rdf:about="">
        <dc:format>image/svg+xml</dc:format>
        <dc:type
           rdf:resource="http://purl.org/dc/dcmitype/StillImage" />
        <dc:title></dc:title>
      </cc:Work>
    </rdf:RDF>
  </metadata>
  <sodipodi:namedview
     pagecolor="#ffffff"
     bordercolor="#666666"
     borderopacity="1"
     objecttolerance="10"
     gridtolerance="10"
     guidetolerance="10"
     inkscape:pageopacity="0"
     inkscape:pageshadow="2"
     inkscape:window-width="1920"
     inkscape:window-height="915"
     id="namedview17"
     showgrid="false"
     inkscape:zoom="2.3659058"
     inkscape:cx="128"
     inkscape:cy="128"
     inkscape:window-x="0"
     inkscape:window-y="125"
     inkscape:window-maximized="0"
     inkscape:current-layer="svg15" />
  <defs
     id="defs7">
    <linearGradient
       x1="99.6865531%"
       y1="15.8007988%"
       x2="39.8359011%"
       y2="97.4378355%"
       id="linearGradient-1">
      <stop
         stop-color="#0052CC"
         offset="0%"
         id="stop2" />
      <stop
         stop-color="#2684FF"
         offset="92.3%"
         id="stop4" />
    </linearGradient>
  </defs>
  <g
     id="g13"
     style="fill:#445500">
    <path
       d="M75.7929022,117.949352 C71.973435,113.86918 66.0220743,114.100451 63.4262382,119.292123 L0.791180865,244.565041 C-0.370000214,246.886207 -0.24632242,249.643151 1.11803323,251.85102 C2.48238888,254.058889 4.89280393,255.402741 7.48821365,255.402516 L94.716435,255.402516 C97.5716401,255.468706 100.19751,253.845601 101.414869,251.262074 C120.223468,212.37359 108.82814,153.245434 75.7929022,117.949352 Z"
       fill="url(#linearGradient-1)"
       id="path9"
       style="fill:#445500" />
    <path
       d="M121.756071,4.0114918 C86.7234975,59.5164098 89.0348008,120.989508 112.109989,167.141287 L154.170383,251.262074 C155.438703,253.798733 158.031349,255.401095 160.867416,255.401115 L248.094235,255.401115 C250.689645,255.401339 253.10006,254.057487 254.464416,251.849618 C255.828771,249.64175 255.952449,246.884805 254.791268,244.563639 C254.791268,244.563639 137.44462,9.83670492 134.492768,3.96383607 C131.853481,-1.29371311 125.14944,-1.36519672 121.756071,4.0114918 Z"
       fill="#2681FF"
       id="path11"
       style="fill:#445500" />
  </g>
</svg>
