<?xml version="1.0" encoding="UTF-8" standalone="no"?>
<svg
   xmlns:dc="http://purl.org/dc/elements/1.1/"
   xmlns:cc="http://creativecommons.org/ns#"
   xmlns:rdf="http://www.w3.org/1999/02/22-rdf-syntax-ns#"
   xmlns:svg="http://www.w3.org/2000/svg"
   xmlns="http://www.w3.org/2000/svg"
   id="svg15741"
   version="1.1"
   viewBox="0 0 500 500"
   height="500"
   width="500">
  <metadata
     id="metadata15745">
    <rdf:RDF>
      <cc:Work
         rdf:about="">
        <dc:format>image/svg+xml</dc:format>
        <dc:type
           rdf:resource="http://purl.org/dc/dcmitype/StillImage" />
        <dc:title>Group</dc:title>
      </cc:Work>
    </rdf:RDF>
  </metadata>
  <!-- Generator: Sketch 48.2 (47327) - http://www.bohemiancoding.com/sketch -->
  <title
     id="title15721">Group</title>
  <desc
     id="desc15723">Created with Sketch.</desc>
  <defs
     id="defs15725" />
  <g
     transform="matrix(4.7761085,0,0,4.7761085,-0.79358761,0.6091)"
     id="Group"
     style="fill:#e3e3e3;fill-opacity:1;fill-rule:evenodd;stroke:none;stroke-width:1">
    <g
       id="Logo"
       style="fill:#e3e3e3;fill-opacity:1;fill-rule:nonzero">
      <path
         style="fill:#e3e3e3;fill-opacity:1"
         d="m 91.72,47.7 c -0.948243,-0.05618 -1.852135,0.407259 -2.36,1.21 -0.94,-0.59 -3.49,-1.83 -4.48,-2.34 l -0.36,-0.18 c -0.05751,-0.02445 -0.122492,-0.02445 -0.18,0 v -0.06 c 0.0052,-0.07324 0.0052,-0.146759 0,-0.22 1,-20.58 -19.83,-36.57 -40,-30.38 -9.793749,3.115247 -17.464272,10.793228 -20.57,20.59 -0.822211,2.995621 -1.259067,6.083861 -1.3,9.19 l -0.76,0.3 -0.55,0.23 c -1,0.44 -2,0.91 -3,1.42 -1,0.51 -2,1 -2.91,1.63 -0.13198,0.08164 -0.183257,0.248289 -0.12,0.39 0.07604,0.149939 0.255149,0.215465 0.41,0.15 1,-0.46 2,-0.87 3,-1.25 1,-0.38 2.05,-0.72 3.09,-1 h 0.06 c 0.5,-0.15 1,-0.28 1.51,-0.41 l 0.78,-0.18 h 0.09 l 0.7,-0.15 c 1.05,-0.23 2.11,-0.37 3.17,-0.5 h 0.12 c 0.409089,-0.05976 0.749156,-0.34582 0.878086,-0.738634 0.128929,-0.392813 0.02453,-0.824758 -0.26958,-1.115321 C 28.3744,43.995482 27.941222,43.89632 27.55,44.03 c -1,0.24 -2,0.5 -2.91,0.81 l 0.19,-0.06 c 0.05765,-2.768607 0.457352,-5.519469 1.19,-8.19 2.877462,-9.039728 9.960272,-16.122538 19,-19 0.813333,-0.246667 1.623333,-0.456667 2.43,-0.63 0.79,-0.17 3.95,-0.62 0.5,1.31 -5.733874,3.296752 -10.017613,8.630006 -12,14.94 -1,3.23 -1.39,9.6 -0.69,14.49 0.22,1.53 -0.3,1.83 -1.25,2.23 -2,0.85 -5.5,2.39 -7.3,4.57 -0.7,0.84 -1,0 -1.17,-0.6 -0.350078,-1.646297 -0.564133,-3.318604 -0.64,-5 -0.0075,-0.146652 -0.08031,-0.282224 -0.198478,-0.369397 -0.118167,-0.08717 -0.2692,-0.116754 -0.411522,-0.0806 -0.49,0.12 -1,0.24 -1.46,0.4 -0.203484,0.07016 -0.337362,0.264887 -0.33,0.48 0.28,6.43 1.91,12.41 5.81,12.22 0.15043,-0.011 0.28867,-0.08678 0.378862,-0.207674 0.09019,-0.120895 0.123446,-0.274995 0.09114,-0.422326 -0.609714,-0.329104 -1.086718,-0.859107 -1.35,-1.5 -1.29,-3.86 10.67,-8.91 26,-11.2 14.08,-2.11 26.17,-1.15 28.27,2.06 0.434159,0.549435 0.481977,1.310546 0.12,1.91 -0.884864,1.588928 -2.207228,2.890467 -3.81,3.75 -0.135591,0.0823 -0.231562,0.216536 -0.26557,0.37146 -0.03401,0.154924 -0.0031,0.317017 0.08557,0.44854 0.158316,0.247339 0.478642,0.333914 0.74,0.2 1.961394,-0.959432 3.59626,-2.476032 4.7,-4.36 0.621652,-1.414043 0.961336,-2.935826 1,-4.48 1,0.31 3.64,1.37 4.65,1.78 H 89 c -0.04204,0.16723 -0.06882,0.33793 -0.08,0.51 -0.06009,1.536447 1.089449,2.852715 2.62,3 0.701036,0.0325 1.385986,-0.216529 1.902455,-0.69168 C 93.958923,52.243169 94.264069,51.58131 94.29,50.88 94.3898,49.338665 93.255935,47.993027 91.72,47.83 Z M 72,41.2 c 0.01456,0.384407 -0.133173,0.757224 -0.407081,1.027327 C 71.319012,42.49743 70.944166,42.639931 70.56,42.62 67.195225,42.360174 63.81338,42.420445 60.46,42.8 60.070939,42.831547 59.686896,42.695637 59.404283,42.426391 59.12167,42.157145 58.967326,41.780132 58.98,41.39 v -1.18 c 0.0021,-0.297834 0.20937,-0.554855 0.5,-0.62 3.969119,-0.662147 8.016514,-0.709367 12,-0.14 0.295674,0.04983 0.509168,0.310295 0.5,0.61 z m 7.06,-3.35 c -0.135165,0.208728 -0.399192,0.292546 -0.63,0.2 C 69.71,34.74 56.1,36.61 56.1,36.61 51.432127,37.074337 46.842094,38.12944 42.44,39.75 41.959651,39.933883 41.419209,39.865819 40.999453,39.568576 40.579697,39.271333 40.336046,38.784154 40.35,38.27 c 0.03522,-1.197029 0.155527,-2.390038 0.36,-3.57 0.441755,-3.228248 1.743935,-6.278179 3.77,-8.83 0.12,-0.14 0.24,-0.28 0.37,-0.41 0.02097,-0.03751 0.048,-0.0713 0.08,-0.1 l 0.06,-0.07 0.15,-0.16 0.07,-0.07 c 5.93,-6.2 16.36,-6.91 23.68,-2.87 3.660343,2.060564 6.694385,5.073872 8.78,8.72 0.32,0.6 2.34,5.27 1.39,6.94 z"
         id="Shape" />
      <path
         style="fill:#e3e3e3;fill-opacity:1"
         d="m 74.42,30.09 c -1.653949,-2.820928 -4.176231,-5.030994 -7.19,-6.3 -3.360894,-1.414231 -7.020604,-1.97092 -10.65,-1.62 -1.288964,0.101255 -2.557689,0.380576 -3.77,0.83 -0.24224,0.06969 -0.397231,0.305902 -0.364735,0.555866 0.0325,0.249963 0.242727,0.438693 0.494735,0.444134 2.73441,-0.288637 5.494972,-0.214664 8.21,0.22 10,2 13.2,6.81 13.55,7 0.1,0.05 0.22,-0.05 0.17,-0.15 -0.12913,-0.340777 -0.275997,-0.674567 -0.44,-1"
         id="path15728" />
      <path
         style="fill:#e3e3e3;fill-opacity:1"
         d="m 29.7,47.54 c 0.171639,0.241529 0.441551,0.394504 0.736947,0.417672 0.295397,0.02317 0.585858,-0.08586 0.793053,-0.297672 0.332706,-0.334787 0.576727,-0.747216 0.71,-1.2 0.306533,-1.162414 0.232943,-2.392426 -0.21,-3.51 -0.285051,-0.713198 -0.803181,-1.308872 -1.47,-1.69 -0.121838,-0.07714 -0.269469,-0.102348 -0.41,-0.07 -0.410207,0.137344 -0.76238,0.408517 -1,0.77 -0.05962,0.07467 -0.08395,0.171529 -0.06668,0.265513 0.01726,0.09399 0.07442,0.175873 0.156683,0.224487 0.812503,0.428884 1.383685,1.206428 1.55,2.11 0.115348,0.924031 -0.172457,1.853021 -0.79,2.55 -0.1062,0.123661 -0.1062,0.306339 0,0.43"
         id="path15730" />
      <path
         style="fill:#e3e3e3;fill-opacity:1"
         d="M 11,49 C 10.136854,48.928333 9.2809456,49.205237 8.6233409,49.768898 7.9657363,50.332559 7.5611866,51.136047 7.5,52 c -0.029421,1.862044 1.4202331,3.413351 3.28,3.51 1.761963,0.127119 3.301011,-1.180626 3.46,-2.94 C 14.313976,50.695663 12.872707,49.107599 11,49"
         id="path15732" />
      <path
         style="fill:#e3e3e3;fill-opacity:1"
         d="M 104.69,52.5 C 104.69171,28.058064 87.75183,6.8796335 63.906548,1.5120665 40.061267,-3.8555005 15.680576,8.0216798 5.2090439,30.106861 -5.2624883,52.192042 0.97248674,78.585424 20.22,93.65 l 1,0.79 c 0.34,0.26 0.69,0.51 1,0.76 5.371632,3.800912 11.414922,6.5494 17.81,8.1 h 0.15 l 0.89,0.21 0.27,0.05 0.84,0.18 0.33,0.06 0.82,0.15 0.32,0.06 c 0.54,0.0867 1.08,0.16667 1.62,0.24 l 0.32,0.05 0.61,0.07 0.62,0.07 0.58,0.06 0.67,0.06 h 0.55 0.72 0.51 0.83 0.42 1.25 c 0.45,0 0.89,0 1.33,0 h 0.44 0.89 0.53 0.78 l 0.57,-0.05 0.73,-0.06 0.6,-0.07 0.7,-0.08 0.61,-0.08 0.67,-0.1 0.62,-0.1 0.65,-0.1 0.63,-0.12 0.64,-0.12 0.63,-0.14 0.62,-0.13 0.63,-0.15 0.61,-0.15 0.77,-0.11 0.58,-0.16 0.65,-0.18 0.57,-0.17 0.64,-0.21 c 0.189902,-0.0494 0.376865,-0.10952 0.56,-0.18 l 0.65,-0.22 0.54,-0.19 0.65,-0.24 0.52,-0.2 0.64,-0.25 0.5,-0.2 0.66,-0.28 0.49,-0.21 0.66,-0.3 0.47,-0.22 0.66,-0.32 0.45,-0.23 0.66,-0.33 0.44,-0.24 c 0.23,-0.11 0.45,-0.23 0.66,-0.35 l 0.43,-0.24 0.66,-0.38 0.4,-0.24 0.67,-0.4 0.38,-0.24 0.67,-0.42 0.36,-0.24 0.67,-0.45 0.34,-0.23 0.68,-0.48 0.31,-0.23 0.69,-0.51 0.28,-0.21 0.7,-0.54 0.25,-0.21 0.71,-0.57 0.21,-0.19 0.73,-0.61 0.17,-0.15 0.75,-0.68 0.11,-0.09 0.79,-0.75 C 98.917555,80.414135 104.73995,66.774345 104.72,52.52 M 68.35,70 c -0.07,-0.58 -0.14,-1.17 -0.23,-1.75 -0.09,-0.58 -0.17,-1.16 -0.28,-1.73 -0.11,-0.57 -0.2,-1.15 -0.31,-1.72 -0.11,-0.57 -0.25,-1.15 -0.39,-1.67 -0.08441,-0.392895 0.143504,-0.785618 0.526515,-0.90725 0.383011,-0.121632 0.795748,0.06764 0.953485,0.43725 0.22,0.62 0.37,1.18 0.53,1.78 0.16,0.6 0.3,1.17 0.43,1.76 0.25,1.19 0.45,2.37 0.64,3.56 0.24,1.56 0.4,3.13 0.53,4.69 1,0.05 2.07,0.12 3.1,0.22 2.793124,0.286568 5.548313,0.866432 8.22,1.73 0.339954,0.124998 0.531318,0.485856 0.444074,0.837398 C 82.42683,77.58894 82.08895,77.818453 81.73,77.77 h -0.05 c -1.34,-0.23 -2.64,-0.55 -4,-0.7 l -1,-0.15 -0.5,-0.07 h -0.5 l -2,-0.19 c -0.34,-0.05 -0.68,0 -1,-0.07 l -1,-0.06 h -0.74 c 0,0.17 0,0.34 0,0.51 l 0.08,1.79 v 1.8 c 0,1.2 0,2.4 0,3.6 0,1.2 -0.09,2.39 -0.13,3.58 -0.04,1.19 -0.17,2.39 -0.28,3.58 -0.05933,0.395019 -0.407496,0.681377 -0.806539,0.663356 C 69.404419,92.035335 69.08348,91.718759 69.06,91.32 c 0,-1.18 0,-2.36 0.06,-3.54 0.06,-1.18 0,-2.37 0,-3.55 0,-1.18 0,-2.36 -0.06,-3.53 L 69,78.93 V 77 c 0,-0.23 0,-0.45 0,-0.67 h -1.34 -2 c -0.68,0 -1.36,0.06 -2,0.08 -0.64,0.02 -1.36,0.07 -2,0.13 -1.36,0.09 -2.72,0.22 -4.07,0.37 -2.71,0.31 -5.43,0.7 -8.08,1.22 -0.385891,0.07378 -0.759683,-0.175417 -0.84,-0.56 -0.06566,-0.363718 0.154733,-0.71808 0.51,-0.82 1.37,-0.37 2.71,-0.66 4.08,-0.93 1.37,-0.27 2.73,-0.49 4.11,-0.7 0.68,-0.11 1.38,-0.18 2.07,-0.27 0.69,-0.09 1.38,-0.16 2.07,-0.22 0.69,-0.06 1.38,-0.13 2.08,-0.16 0.7,-0.03 1.39,-0.1 2.09,-0.11 1.1,-0.05 2.2,-0.06 3.31,0 -0.12,-1.47 -0.26,-2.93 -0.44,-4.38 m -26.7,-7.09 c -0.5,1.66 -1.67,5.66 -2.4,8.79 -1.873711,9.123831 -3.239148,18.344703 -4.09,27.62 -4.508708,-1.66055 -8.750274,-3.971682 -12.59,-6.86 0.801898,-6.020768 2.089429,-11.966819 3.85,-17.78 0.640511,-2.109706 1.519523,-4.139486 2.62,-6.05 0.881406,-1.28436 2.099175,-2.301474 3.52,-2.94 l 0.26,-0.12 0.43,-0.24 0.55,-0.28 c 0.38,-0.18 0.75,-0.36 1.12,-0.52 l 0.57,-0.25 0.56,-0.23 1.14,-0.44 c 1,-0.37 2.7,-0.89 3.76,-1.2 0.55,-0.16 0.84,0 0.7,0.5 m 44.54,14 c -1.56,-5.81 -3.67,-14.91 -9.9,-17 -6.64,-2.26 -13.78,-2.51 -20.68,-2.07 -4.912055,0.315473 -9.772815,1.184305 -14.49,2.59 -2.09,0.61 -8.79,3.18 -10.12,3.86 -1.520867,0.685827 -2.824741,1.77527 -3.77,3.15 -1.179855,2.046206 -2.122607,4.220241 -2.81,6.48 -1.680515,5.569341 -2.967026,11.250039 -3.85,17 -1.17,-1 -2.31,-2 -3.4,-3.11 C -2.0406679,68.385988 -2.1282892,36.945941 17.173922,17.434038 36.476134,-2.077864 67.915293,-2.3299434 87.527896,16.86994 107.1405,36.069823 107.55703,67.507233 88.46,87.22 87.994779,83.738708 87.303315,80.291412 86.39,76.9"
         id="path15734" />
    </g>
  </g>
</svg>
