<?xml version="1.0" encoding="iso-8859-1"?>
<!-- Generator: Adobe Illustrator 19.0.0, SVG Export Plug-In . SVG Version: 6.00 Build 0)  -->
<svg version="1.1" id="Capa_1" xmlns="http://www.w3.org/2000/svg" xmlns:xlink="http://www.w3.org/1999/xlink" x="0px" y="0px"
	 viewBox="0 0 512 512" style="enable-background:new 0 0 512 512;" xml:space="preserve">
<g>
	<g>
		<path d="M482,151v172.5c0,4.136-3.364,7.5-7.5,7.5c-3.041,0-5.763-1.814-6.932-4.621l-63.444-152.296
			C398.281,160.061,384.69,151,369.5,151c-20.678,0-37.5,16.822-37.5,37.5v135c0,4.136-3.364,7.5-7.5,7.5
			c-3.041,0-5.763-1.814-6.932-4.621l-63.444-152.296C248.281,160.061,234.69,151,219.5,151c-20.678,0-37.5,16.822-37.5,37.5V316
			c0,8.271-6.729,15-15,15h-62c-41.355,0-75-33.645-75-75c0-41.355,33.645-75,75-75h47v-30h-47C47.103,151,0,198.103,0,256
			c0,57.897,47.103,105,105,105h62c24.813,0,45-20.187,45-45V188.5c0-4.136,3.364-7.5,7.5-7.5c3.041,0,5.763,1.814,6.932,4.621
			l63.444,152.296C295.719,351.939,309.31,361,324.5,361c20.678,0,37.5-16.822,37.5-37.5v-135c0-4.136,3.364-7.5,7.5-7.5
			c3.041,0,5.763,1.814,6.932,4.621l63.444,152.296C445.719,351.939,459.31,361,474.5,361c20.678,0,37.5-16.822,37.5-37.5V151H482z"
			/>
	</g>
</g>
<g>
</g>
<g>
</g>
<g>
</g>
<g>
</g>
<g>
</g>
<g>
</g>
<g>
</g>
<g>
</g>
<g>
</g>
<g>
</g>
<g>
</g>
<g>
</g>
<g>
</g>
<g>
</g>
<g>
</g>
</svg>
