<?xml version="1.0" encoding="iso-8859-1"?>
<!-- Generator: Adobe Illustrator 19.0.0, SVG Export Plug-In . SVG Version: 6.00 Build 0)  -->
<svg version="1.1" id="Layer_1" xmlns="http://www.w3.org/2000/svg" xmlns:xlink="http://www.w3.org/1999/xlink" x="0px" y="0px"
	 viewBox="0 0 511.999 511.999" style="enable-background:new 0 0 511.999 511.999;" xml:space="preserve">
<g>
	<path style="fill:#F4B2B0;" d="M114.614,333.78c0-30.747,8.832-59.315,23.959-83.049l0.441-3.117c0,0-54.954,22.471-68.738,74.063
		c-7.885,29.51-7.261,39.694-7.261,39.694l57.121,19.847l0.571-4.041C116.749,363.446,114.614,348.876,114.614,333.78z"/>
	<path style="fill:#F4B2B0;" d="M441.723,321.678c-13.784-51.592-68.738-74.063-68.738-74.063l0.441,3.117
		c15.127,23.734,23.959,52.302,23.959,83.049c0,15.097-2.135,29.666-6.092,43.398l0.571,4.041l57.121-19.847
		C448.984,361.372,449.608,351.189,441.723,321.678z"/>
	<path style="fill:#F4B2B0;" d="M304.437,175.175c-1.115,0.092-2.24,0.151-3.379,0.151c-22.503,0-40.746-18.243-40.746-40.746
		c0-0.421,0.019-0.837,0.032-1.255H257.8h-3.602h-2.544c0.012,0.417,0.032,0.833,0.032,1.255c0,22.503-18.243,40.746-40.746,40.746
		c-1.138,0-2.264-0.058-3.379-0.151c-0.033,0.158-0.072,0.319-0.105,0.477c-3.872,18.717-5.163,22.591-5.163,22.591l53.706,66.197
		l53.706-66.197c0,0-1.291-3.872-5.163-22.591C304.509,175.495,304.472,175.334,304.437,175.175z"/>
	<path style="fill:#F4B2B0;" d="M407.667,498.136H303.69v-3.469c0-28.713,23.275-51.989,51.989-51.989l0,0
		c28.713,0,51.989,23.276,51.989,51.989L407.667,498.136L407.667,498.136z"/>
	<path style="fill:#F4B2B0;" d="M210.929,498.136H106.952v-3.469c0-28.713,23.276-51.989,51.989-51.989l0,0
		c28.713,0,51.989,23.276,51.989,51.989V498.136z"/>
</g>
<path style="fill:#B3404A;" d="M455.118,318.1c-14.199-53.145-65.549-78.291-75.346-82.654c-0.99-1.37-1.978-2.74-3.011-4.08
	c17.117-24.572,26.435-54.045,26.435-84.168C403.197,66.032,337.164,0,255.999,0S108.801,66.032,108.801,147.198
	c0,30.123,9.318,59.597,26.435,84.168c-1.033,1.341-2.021,2.71-3.011,4.08c-9.797,4.363-61.146,29.509-75.346,82.654
	c-8.058,30.159-7.832,42.044-7.706,44.119c0.342,5.583,4.004,10.415,9.288,12.251l52.92,18.387
	c5.451,14.686,12.904,28.541,22.166,41.054c-23.743,9.959-40.463,33.439-40.463,60.756v3.467c0,7.657,6.207,13.864,13.864,13.864
	h103.977c7.657,0,13.864-6.207,13.864-13.864v-3.467c0-0.413-0.024-0.821-0.032-1.231c8.525,1.831,17.203,2.895,25.98,3.201
	c1.739,0.134,3.491,0.208,5.257,0.208c0.607,0,1.199-0.053,1.786-0.128c10.882-0.128,21.608-1.421,32.086-3.874
	c-0.017,0.607-0.046,1.212-0.046,1.823v3.467c0,7.657,6.207,13.864,13.864,13.864h103.977c7.657,0,13.864-6.207,13.864-13.864
	v-3.467c0-36.312-29.542-65.854-65.853-65.854c-24.042,0-45.108,12.958-56.604,32.25c-13.794,5.257-28.257,7.947-43.075,7.947
	c-1.239,0-2.475-0.039-3.709-0.076c-37.334-3.617-72.879-61.041-72.879-119.514c0-44.975,22.747-76.33,59.887-83.561l5.935,7.315
	c2.633,3.244,6.588,5.13,10.767,5.13c4.179,0,8.134-1.884,10.767-5.13l5.935-7.315c37.14,7.23,59.887,38.586,59.887,83.561
	c0,7.657,6.207,13.864,13.864,13.864c7.657,0,13.864-6.207,13.864-13.864c0-53.04-26.204-92.844-68.491-107.133l28.648-35.31
	c3.053-3.763,4.044-8.484,2.415-13.039c-0.226-0.775-1.556-5.565-4.767-21.084l-0.126-0.578c-1.456-6.814-7.749-11.491-14.689-10.92
	c-0.854,0.071-1.589,0.104-2.247,0.104c-0.926,0-1.843-0.047-2.745-0.139c-13.539-1.38-24.138-12.847-24.138-26.743v-0.001
	c0-14.824,12.059-26.882,26.883-26.882c14.822,0,26.882,12.059,26.882,26.882c0,7.657,6.207,13.864,13.864,13.864
	s13.864-6.207,13.864-13.864c0-30.112-24.498-54.61-54.61-54.61c-18.689,0-35.21,9.442-45.059,23.801
	c-9.849-14.359-26.37-23.801-45.059-23.801c-30.112,0-54.61,24.498-54.61,54.61c0,7.657,6.207,13.864,13.864,13.864
	c7.657,0,13.864-6.207,13.864-13.864c0-14.822,12.059-26.882,26.882-26.882c14.822,0,26.882,12.058,26.883,26.882v0.001
	c0,13.896-10.599,25.363-24.138,26.743c-0.903,0.092-1.818,0.139-2.745,0.139c-0.659,0-1.392-0.033-2.247-0.104
	c-6.957-0.556-13.25,4.186-14.707,11l-0.105,0.487c-3.214,15.529-4.543,20.321-4.769,21.096c-1.629,4.556-0.638,9.275,2.415,13.039
	l28.648,35.31c-42.288,14.289-68.491,54.093-68.491,107.133c0,27.268,6.852,55.801,18.775,80.423
	c-1.597-0.283-3.207-0.527-4.841-0.692c-20.629-22.01-33.512-51.024-36.477-81.735c-0.051-0.545-0.097-1.09-0.143-1.635
	c-0.086-1.019-0.162-2.039-0.227-3.061c-0.065-1.058-0.123-2.117-0.166-3.178c-0.019-0.464-0.035-0.929-0.05-1.395
	c-0.044-1.454-0.076-2.91-0.076-4.369c0-1.972,0.051-3.935,0.132-5.894c0.024-0.589,0.061-1.176,0.093-1.764
	c0.075-1.413,0.168-2.821,0.283-4.226c0.051-0.62,0.104-1.239,0.162-1.858c0.146-1.524,0.317-3.042,0.51-4.554
	c0.054-0.424,0.098-0.851,0.157-1.274c0.268-1.953,0.573-3.899,0.919-5.833c0.053-0.291,0.115-0.58,0.169-0.871
	c0.302-1.625,0.631-3.241,0.989-4.85c0.122-0.552,0.254-1.101,0.383-1.65c0.326-1.389,0.674-2.773,1.041-4.15
	c0.146-0.546,0.288-1.092,0.441-1.636c0.451-1.608,0.929-3.207,1.435-4.794c0.082-0.255,0.154-0.513,0.236-0.768
	c0.588-1.809,1.22-3.602,1.88-5.382c0.208-0.562,0.433-1.116,0.649-1.675c0.467-1.21,0.947-2.417,1.447-3.612
	c0.291-0.695,0.589-1.386,0.891-2.077c0.47-1.073,0.957-2.136,1.453-3.196c0.326-0.696,0.646-1.395,0.984-2.084
	c0.607-1.242,1.242-2.469,1.887-3.692c0.481-0.912,0.975-1.818,1.477-2.719c0.606-1.09,1.217-2.177,1.852-3.248
	c0.442-0.747,0.904-1.485,1.361-2.224c4.097-6.62,8.741-12.912,13.957-18.77c4.538-5.099,4.69-12.743,0.359-18.018
	c-17.472-21.276-27.094-48.181-27.094-75.762c0-65.875,53.594-119.469,119.469-119.469s119.469,53.594,119.469,119.469
	c0,27.58-9.622,54.486-27.094,75.762c-4.333,5.275-4.18,12.919,0.359,18.018c5.214,5.858,9.86,12.149,13.957,18.77
	c0.457,0.739,0.919,1.477,1.361,2.224c0.635,1.073,1.246,2.159,1.852,3.248c0.502,0.901,0.995,1.807,1.477,2.719
	c0.645,1.223,1.28,2.45,1.887,3.692c0.338,0.69,0.659,1.389,0.984,2.084c0.496,1.059,0.984,2.124,1.453,3.196
	c0.302,0.69,0.6,1.382,0.891,2.077c0.5,1.197,0.982,2.401,1.447,3.612c0.216,0.559,0.441,1.113,0.649,1.675
	c0.66,1.78,1.292,3.573,1.88,5.382c0.083,0.255,0.155,0.513,0.236,0.768c0.506,1.587,0.986,3.186,1.435,4.794
	c0.152,0.543,0.294,1.091,0.441,1.636c0.367,1.377,0.715,2.759,1.041,4.15c0.129,0.549,0.259,1.098,0.383,1.65
	c0.358,1.608,0.686,3.225,0.989,4.85c0.054,0.291,0.118,0.58,0.169,0.871c0.347,1.934,0.652,3.879,0.919,5.833
	c0.058,0.423,0.103,0.85,0.157,1.274c0.193,1.513,0.365,3.031,0.51,4.554c0.058,0.618,0.111,1.238,0.162,1.858
	c0.115,1.404,0.208,2.813,0.283,4.226c0.031,0.588,0.068,1.174,0.093,1.764c0.079,1.959,0.132,3.924,0.132,5.894
	c0,13.466-1.867,26.776-5.55,39.561c-0.541,1.876-0.678,3.843-0.405,5.777l0.571,4.041c0.58,4.105,2.967,7.735,6.504,9.895
	c2.202,1.343,4.704,2.03,7.225,2.03c1.531,0,3.07-0.254,4.55-0.768l57.121-19.847c5.284-1.836,8.947-6.667,9.288-12.251
	C462.95,360.144,463.176,348.259,455.118,318.1z M355.678,456.543c17.419,0,32.147,11.743,36.684,27.729h-73.367
	C323.531,468.286,338.259,456.543,355.678,456.543z M218.874,188.615c0.062-0.01,0.122-0.022,0.184-0.032
	c0.591-0.089,1.173-0.198,1.757-0.305c0.338-0.062,0.681-0.114,1.018-0.182c0.746-0.151,1.484-0.326,2.218-0.507
	c0.168-0.042,0.34-0.075,0.507-0.118c0.896-0.232,1.783-0.485,2.662-0.76c0.295-0.093,0.584-0.2,0.878-0.298
	c0.581-0.193,1.163-0.384,1.736-0.596c0.351-0.13,0.695-0.275,1.043-0.412c0.506-0.2,1.012-0.395,1.511-0.609
	c0.366-0.157,0.724-0.327,1.086-0.491c0.47-0.214,0.941-0.426,1.403-0.653c0.367-0.18,0.729-0.372,1.092-0.56
	c0.445-0.23,0.889-0.46,1.327-0.702c0.365-0.202,0.724-0.413,1.084-0.624c0.424-0.248,0.847-0.496,1.264-0.756
	c0.358-0.222,0.708-0.451,1.061-0.681c0.408-0.266,0.812-0.534,1.212-0.811c0.347-0.24,0.689-0.485,1.03-0.733
	c0.392-0.284,0.781-0.573,1.163-0.867c0.334-0.256,0.665-0.517,0.994-0.781c0.377-0.304,0.749-0.611,1.117-0.925
	c0.32-0.272,0.638-0.546,0.951-0.825c0.363-0.323,0.721-0.653,1.076-0.986c0.304-0.284,0.606-0.568,0.903-0.86
	c0.351-0.344,0.693-0.695,1.034-1.048c0.286-0.297,0.573-0.591,0.851-0.893c0.338-0.366,0.667-0.74,0.995-1.116
	c0.266-0.304,0.534-0.606,0.793-0.916c0.329-0.392,0.645-0.793,0.961-1.195c0.243-0.306,0.489-0.61,0.725-0.923
	c0.322-0.426,0.629-0.861,0.939-1.296c0.18-0.252,0.37-0.498,0.546-0.753c0.176,0.256,0.366,0.501,0.546,0.753
	c0.309,0.435,0.617,0.871,0.939,1.296c0.236,0.312,0.483,0.616,0.725,0.923c0.318,0.402,0.634,0.803,0.961,1.195
	c0.259,0.311,0.528,0.611,0.793,0.916c0.329,0.376,0.657,0.75,0.995,1.116c0.279,0.302,0.566,0.598,0.851,0.893
	c0.341,0.354,0.684,0.704,1.034,1.048c0.297,0.291,0.599,0.575,0.903,0.86c0.355,0.333,0.713,0.663,1.076,0.986
	c0.313,0.279,0.632,0.553,0.951,0.825c0.369,0.313,0.74,0.621,1.117,0.925c0.329,0.263,0.659,0.524,0.994,0.781
	c0.384,0.294,0.772,0.582,1.163,0.867c0.341,0.248,0.684,0.494,1.03,0.733c0.399,0.276,0.806,0.545,1.212,0.811
	c0.352,0.23,0.703,0.459,1.061,0.681c0.417,0.259,0.84,0.507,1.264,0.756c0.36,0.209,0.718,0.421,1.084,0.624
	c0.437,0.243,0.882,0.471,1.327,0.702c0.363,0.189,0.724,0.38,1.092,0.56c0.463,0.227,0.933,0.439,1.403,0.653
	c0.362,0.165,0.72,0.334,1.086,0.491c0.498,0.214,1.005,0.41,1.511,0.609c0.348,0.137,0.692,0.281,1.043,0.412
	c0.573,0.212,1.155,0.403,1.736,0.596c0.294,0.097,0.582,0.205,0.878,0.298c0.878,0.275,1.765,0.53,2.662,0.76
	c0.168,0.043,0.34,0.076,0.507,0.118c0.735,0.182,1.472,0.356,2.218,0.507c0.337,0.068,0.679,0.121,1.018,0.182
	c0.584,0.107,1.167,0.216,1.757,0.305c0.062,0.01,0.122,0.022,0.184,0.032c0.55,2.505,1.022,4.582,1.425,6.303l-38.246,47.139
	c-0.003,0.004-0.007,0.008-0.01,0.012l-0.294,0.363l-38.55-47.515C217.853,193.199,218.324,191.122,218.874,188.615z
	 M102.839,360.533l-25.027-8.696c0.88-5.684,2.579-14.311,5.858-26.579c4.378-16.389,13.808-29.52,23.953-39.563
	c-0.012,0.043-0.024,0.087-0.036,0.13c-0.064,0.218-0.118,0.438-0.18,0.656c-0.539,1.87-1.05,3.75-1.525,5.641
	c-0.155,0.621-0.293,1.246-0.441,1.869c-0.358,1.497-0.706,2.997-1.023,4.507c-0.155,0.738-0.295,1.481-0.441,2.221
	c-0.276,1.406-0.539,2.813-0.781,4.227c-0.136,0.794-0.262,1.592-0.385,2.389c-0.215,1.378-0.412,2.76-0.592,4.145
	c-0.107,0.815-0.212,1.632-0.306,2.45c-0.162,1.398-0.299,2.801-0.427,4.205c-0.072,0.8-0.153,1.597-0.214,2.399
	c-0.116,1.51-0.2,3.024-0.276,4.539c-0.035,0.693-0.085,1.384-0.111,2.078c-0.085,2.204-0.134,4.414-0.134,6.63
	c0,1.953,0.046,3.903,0.114,5.851c0.018,0.543,0.037,1.086,0.061,1.629c0.078,1.747,0.175,3.49,0.306,5.228
	c0.065,0.879,0.15,1.754,0.229,2.63c0.075,0.822,0.154,1.644,0.241,2.465C102.01,354.578,102.371,357.565,102.839,360.533z
	 M122.256,484.271c4.536-15.986,19.265-27.729,36.684-27.729c0.372,0,0.735,0.036,1.104,0.046c1.489,0.043,2.963,0.165,4.416,0.379
	c0.128,0.018,0.258,0.029,0.385,0.049c0.751,0.118,1.493,0.27,2.232,0.433c0.18,0.039,0.362,0.073,0.541,0.115
	c0.745,0.175,1.479,0.376,2.209,0.595c0.154,0.046,0.308,0.09,0.462,0.139c0.746,0.234,1.485,0.489,2.213,0.768
	c0.115,0.044,0.229,0.09,0.344,0.134c0.756,0.298,1.503,0.614,2.236,0.958c0.054,0.026,0.108,0.054,0.162,0.079
	c2.984,1.417,5.766,3.226,8.291,5.357c0.211,0.179,0.431,0.348,0.639,0.531c0.383,0.338,0.747,0.699,1.117,1.052
	c0.34,0.326,0.682,0.647,1.009,0.986c0.304,0.312,0.595,0.639,0.887,0.962c0.367,0.406,0.732,0.815,1.081,1.237
	c0.254,0.305,0.499,0.617,0.743,0.929c0.36,0.462,0.71,0.932,1.05,1.41c0.22,0.311,0.437,0.623,0.647,0.941
	c0.33,0.498,0.645,1.005,0.952,1.518c0.195,0.327,0.394,0.653,0.58,0.987c0.288,0.516,0.556,1.044,0.819,1.574
	c0.176,0.355,0.359,0.704,0.525,1.066c0.81,1.762,1.5,3.589,2.038,5.482h-73.367V484.271z M409.159,360.533
	c1.389-8.812,2.089-17.756,2.089-26.753c0-2.218-0.05-4.431-0.134-6.638c-0.026-0.7-0.076-1.395-0.112-2.094
	c-0.076-1.511-0.159-3.021-0.276-4.525c-0.062-0.812-0.143-1.621-0.218-2.432c-0.128-1.393-0.263-2.784-0.424-4.172
	c-0.097-0.833-0.204-1.664-0.313-2.494c-0.179-1.368-0.373-2.731-0.585-4.093c-0.128-0.819-0.258-1.636-0.398-2.453
	c-0.236-1.384-0.494-2.762-0.764-4.139c-0.151-0.774-0.299-1.547-0.462-2.318c-0.306-1.453-0.642-2.898-0.986-4.341
	c-0.162-0.679-0.313-1.363-0.484-2.039c-0.43-1.708-0.896-3.405-1.378-5.098c-0.114-0.399-0.214-0.803-0.33-1.201
	c-0.021-0.071-0.037-0.143-0.058-0.214c10.145,10.035,19.586,23.202,24.001,39.721c3.278,12.27,4.977,20.896,5.858,26.579
	L409.159,360.533z"/>
<g>
</g>
<g>
</g>
<g>
</g>
<g>
</g>
<g>
</g>
<g>
</g>
<g>
</g>
<g>
</g>
<g>
</g>
<g>
</g>
<g>
</g>
<g>
</g>
<g>
</g>
<g>
</g>
<g>
</g>
</svg>
