<?xml version="1.0" encoding="iso-8859-1"?>
<!-- Generator: Adobe Illustrator 19.0.0, SVG Export Plug-In . SVG Version: 6.00 Build 0)  -->
<svg version="1.1" id="Capa_1" xmlns="http://www.w3.org/2000/svg" xmlns:xlink="http://www.w3.org/1999/xlink" x="0px" y="0px"
	 viewBox="0 0 490.667 490.667" style="enable-background:new 0 0 490.667 490.667;" xml:space="preserve">
<path style="fill:#FFC107;" d="M53.333,138.667h384c29.455,0,53.333,23.878,53.333,53.333v106.667
	c0,29.455-23.878,53.333-53.333,53.333h-384C23.878,352,0,328.122,0,298.667V192C0,162.545,23.878,138.667,53.333,138.667z"/>
<g>
	<path style="fill:#455A64;" d="M96,309.333c-5.891,0-10.667-4.776-10.667-10.667V192c0-5.891,4.776-10.667,10.667-10.667
		c5.891,0,10.667,4.776,10.667,10.667v106.667C106.667,304.558,101.891,309.333,96,309.333z"/>
	<path style="fill:#455A64;" d="M224,309.333c-5.891,0-10.667-4.776-10.667-10.667v-96h-1.92L191.787,300.8
		c-1.172,5.773-6.803,9.503-12.576,8.331c-4.198-0.852-7.478-4.133-8.331-8.331l-19.627-98.133h-1.92v96
		c0,5.891-4.776,10.667-10.667,10.667S128,304.558,128,298.667V192c0-5.891,4.776-10.667,10.667-10.667H160
		c5.07-0.001,9.439,3.566,10.453,8.533l10.88,54.4l10.88-54.4c1.014-4.967,5.384-8.534,10.453-8.533H224
		c5.891,0,10.667,4.776,10.667,10.667v106.667C234.667,304.558,229.891,309.333,224,309.333z"/>
	<path style="fill:#455A64;" d="M288,309.333h-21.333c-5.891,0-10.667-4.776-10.667-10.667V192c0-5.891,4.776-10.667,10.667-10.667
		H288c17.673,0,32,14.327,32,32v64C320,295.006,305.673,309.333,288,309.333z M277.333,288H288c5.891,0,10.667-4.776,10.667-10.667
		v-64c0-5.891-4.776-10.667-10.667-10.667h-10.667V288z"/>
	<path style="fill:#455A64;" d="M352,309.333c-5.891,0-10.667-4.776-10.667-10.667V192c0-5.891,4.776-10.667,10.667-10.667
		c5.891,0,10.667,4.776,10.667,10.667v106.667C362.667,304.558,357.891,309.333,352,309.333z"/>
	<path style="fill:#455A64;" d="M373.333,309.333c-17.673,0-32-14.327-32-32v-42.667c0-17.673,14.327-32,32-32s32,14.327,32,32
		v42.667C405.333,295.006,391.006,309.333,373.333,309.333z M373.333,224c-5.891,0-10.667,4.776-10.667,10.667v42.667
		c0,5.891,4.776,10.667,10.667,10.667S384,283.224,384,277.333v-42.667C384,228.776,379.224,224,373.333,224z"/>
</g>
<path d="M96,309.333c-5.891,0-10.667-4.776-10.667-10.667V192c0-5.891,4.776-10.667,10.667-10.667
	c5.891,0,10.667,4.776,10.667,10.667v106.667C106.667,304.558,101.891,309.333,96,309.333z"/>
<path d="M224,309.333c-5.891,0-10.667-4.776-10.667-10.667v-96h-1.92L191.787,300.8c-1.172,5.773-6.803,9.503-12.576,8.331
	c-4.198-0.852-7.478-4.133-8.331-8.331l-19.627-98.133h-1.92v96c0,5.891-4.776,10.667-10.667,10.667S128,304.558,128,298.667V192
	c0-5.891,4.776-10.667,10.667-10.667H160c5.07-0.001,9.439,3.566,10.453,8.533l10.88,54.421l10.88-54.421
	c1.014-4.967,5.384-8.534,10.453-8.533H224c5.891,0,10.667,4.776,10.667,10.667v106.667
	C234.667,304.558,229.891,309.333,224,309.333z"/>
<path d="M288,309.333h-21.333c-5.891,0-10.667-4.776-10.667-10.667V192c0-5.891,4.776-10.667,10.667-10.667H288
	c17.673,0,32,14.327,32,32v64C320,295.006,305.673,309.333,288,309.333z M277.333,288H288c5.891,0,10.667-4.776,10.667-10.667v-64
	c0-5.891-4.776-10.667-10.667-10.667h-10.667V288z"/>
<path d="M352,309.333c-5.891,0-10.667-4.776-10.667-10.667V192c0-5.891,4.776-10.667,10.667-10.667
	c5.891,0,10.667,4.776,10.667,10.667v106.667C362.667,304.558,357.891,309.333,352,309.333z"/>
<path d="M373.333,309.333c-17.673,0-32-14.327-32-32v-42.667c0-17.673,14.327-32,32-32s32,14.327,32,32v42.667
	C405.333,295.006,391.006,309.333,373.333,309.333z M373.333,224c-5.891,0-10.667,4.776-10.667,10.667v42.667
	c0,5.891,4.776,10.667,10.667,10.667S384,283.224,384,277.333v-42.667C384,228.776,379.224,224,373.333,224z"/>
<path d="M437.333,352h-384C23.878,352,0,328.122,0,298.667V192c0-29.455,23.878-53.333,53.333-53.333h384
	c29.455,0,53.333,23.878,53.333,53.333v106.667C490.667,328.122,466.789,352,437.333,352z M53.333,160c-17.673,0-32,14.327-32,32
	v106.667c0,17.673,14.327,32,32,32l0,0h384c17.673,0,32-14.327,32-32l0,0V192c0-17.673-14.327-32-32-32H53.333z"/>
<g>
</g>
<g>
</g>
<g>
</g>
<g>
</g>
<g>
</g>
<g>
</g>
<g>
</g>
<g>
</g>
<g>
</g>
<g>
</g>
<g>
</g>
<g>
</g>
<g>
</g>
<g>
</g>
<g>
</g>
</svg>
