<svg viewBox="0 0 512 512" xmlns="http://www.w3.org/2000/svg"><path d="m256 0c-140.699219 0-256 115.300781-256 256s115.300781 256 256 256 256-115.300781 256-256-115.300781-256-256-256zm0 0" fill="#ff3939"/><path d="m512 256c0 140.699219-115.300781 256-256 256v-512c140.699219 0 256 115.300781 256 256zm0 0" fill="#c90232"/><path d="m421 301c0 33-27 60-60 60-52.800781 0-69.902344-48.898438-85.199219-92.402344-6.601562-18.898437-12.601562-35.097656-19.800781-48.296875-13.5-25.203125-30-39.300781-60-39.300781-41.398438 0-75 33.601562-75 75s33.601562 75 75 75c20.097656 0 39-7.800781 53.101562-21.902344l6.898438 6.902344 14.097656 14.097656c-4.496094 4.503906-9 8.402344-14.097656 12.003906-17.402344 12.296876-38.101562 18.898438-60 18.898438-57.898438 0-105-47.101562-105-105s47.101562-105 105-105c26.101562 0 45.300781 8.097656 60 21 25.199219 21.597656 37.5 56.398438 48 86.699219 15.898438 44.699219 27 72.300781 57 72.300781 16.5 0 30-13.5 30-30s-13.5-30-30-30c-33 0-60-27-60-60s27-60 60-60 60 27 60 60h-30c0-16.5-13.5-30-30-30s-30 13.5-30 30 13.5 30 30 30l4.5.300781c31.5 2.699219 55.5 28.5 55.5 59.699219zm0 0" fill="#ececf1"/><g fill="#e2e2e7"><path d="m256 316 14.097656 14.097656c-4.496094 4.503906-9 8.402344-14.097656 12.003906zm0 0"/><path d="m421 301c0 33-27 60-60 60-52.800781 0-69.902344-48.898438-85.199219-92.402344-6.601562-18.898437-12.601562-35.097656-19.800781-48.296875v-48.300781c25.199219 21.597656 37.5 56.398438 48 86.699219 15.898438 44.699219 27 72.300781 57 72.300781 16.5 0 30-13.5 30-30s-13.5-30-30-30c-33 0-60-27-60-60s27-60 60-60 60 27 60 60h-30c0-16.5-13.5-30-30-30s-30 13.5-30 30 13.5 30 30 30l4.5.300781c31.5 2.699219 55.5 28.5 55.5 59.699219zm0 0"/></g></svg>