<svg height="512pt" viewBox="0 0 512 512" width="512pt" xmlns="http://www.w3.org/2000/svg"><path d="m80 392h210.773438l84.226562 58.089844v-58.089844h57v-200h-352zm40-160h272v120h-57v21.910156l-31.773438-21.910156h-183.226562zm332-232h-392c-33.085938 0-60 26.914062-60 60v392c0 33.085938 26.914062 60 60 60h392c33.085938 0 60-26.914062 60-60v-392c0-33.085938-26.914062-60-60-60zm20 452c0 11.027344-8.972656 20-20 20h-392c-11.027344 0-20-8.972656-20-20v-392c0-11.027344 8.972656-20 20-20h392c11.027344 0 20 8.972656 20 20zm-237-180h40v40h-40zm-78 0h40v40h-40zm198 41h-40v-40h40zm0 0"/></svg>