<?xml version="1.0" encoding="iso-8859-1"?>
<!-- Generator: Adobe Illustrator 19.0.0, SVG Export Plug-In . SVG Version: 6.00 Build 0)  -->
<svg version="1.1" id="Capa_1" xmlns="http://www.w3.org/2000/svg" xmlns:xlink="http://www.w3.org/1999/xlink" x="0px" y="0px"
	 viewBox="0 0 511.994 511.994" style="enable-background:new 0 0 511.994 511.994;" xml:space="preserve">
<path style="fill:#F44336;" d="M375.549,426.88c64.832-40.608,108-113.344,108-196.256C483.549,103.296,381.661,0,255.997,0
	C130.301,0,28.445,103.296,28.445,230.656c0,127.424,101.856,230.656,227.552,230.656c18.496,0,36.416-2.272,53.632-6.496
	c21.568,39.264,54.528,67.104,124.352,53.824v-39.136C433.981,469.504,389.213,458.24,375.549,426.88L375.549,426.88z
	 M373.949,261.184c0,38.496-12.288,73.472-32.192,99.264c-24.992-26.656-64.192-48.512-113.92-45.728v4.672v40.672
	c0,0,33.76,1.344,56.832,41.024c-8.672,2.56-17.632,3.936-26.944,3.936c-64.192,0-116.192-64.416-116.192-143.872V201.76
	c0-79.488,52-143.904,116.192-143.904s116.256,64.416,116.256,143.904L373.949,261.184L373.949,261.184z"/>
<g>
</g>
<g>
</g>
<g>
</g>
<g>
</g>
<g>
</g>
<g>
</g>
<g>
</g>
<g>
</g>
<g>
</g>
<g>
</g>
<g>
</g>
<g>
</g>
<g>
</g>
<g>
</g>
<g>
</g>
</svg>
