<svg height="512pt" viewBox="0 0 512 512" width="512pt" xmlns="http://www.w3.org/2000/svg"><path d="m368.640625 106.933594c-1.066406-.425782-2.347656-.640625-3.628906-.855469l-198.398438-7.039063c-1.28125 0-2.558593.214844-3.625.425782-98.988281 32-162.988281 109.867187-162.988281 198.828125 0 117.546875 114.773438 213.332031 256 213.332031s256-95.785156 256-213.332031c0-81.917969-54.828125-155.09375-143.359375-191.359375zm0 0" fill="#f44336"/><path d="m382.71875 90.507812c-1.492188-2.773437-4.050781-4.695312-7.039062-5.335937-60.371094-13.011719-95.785157 10.027344-107.945313 20.269531l-37.335937-7.894531c-14.292969-16.640625-54.398438-29.652344-67.410157-33.492187-3.203125-.855469-7.042969-.214844-9.601562 1.917968-2.558594 2.132813-4.265625 5.546875-4.054688 9.175782 0 1.492187 2.5625 32.636718 17.28125 59.730468-10.453125 5.546875-25.601562 12.375-32 14.933594-4.691406 1.921875-7.464843 6.828125-6.398437 11.949219 1.707031 8.53125 11.304687 16.851562 67.839844 18.984375 14.292968 26.878906 30.292968 45.867187 44.796874 52.480468 1.496094.640626 2.988282 1.066407 4.480469 1.066407 2.132813 0 4.054688-.640625 5.976563-1.707031 17.066406-11.304688 27.730468-26.664063 33.917968-49.066407 18.988282 4.695313 47.359376 9.386719 71.894532-3.839843 3.625-1.917969 5.972656-5.972657 5.546875-10.027344-.214844-4.265625-2.988281-7.890625-6.828125-9.386719-8.746094-3.414063-17.492188-10.027344-24.53125-16.210937 18.769531-6.1875 42.023437-18.773438 52.050781-44.589844 1.066406-2.984375.855469-6.183594-.640625-8.957032zm0 0" fill="#4caf50"/><path d="m310.1875 9.441406c-12.585938-12.589844-34.5625-12.589844-47.148438 0l-10.664062 10.664063c-28.800781 28.800781-39.042969 75.734375-39.042969 107.09375v11.09375c0 5.972656 4.695313 10.667969 10.667969 10.667969h42.667969c5.972656 0 10.664062-4.695313 10.664062-10.667969v-11.09375c0-31.785157 11.519531-49.277344 32.855469-70.613281 13.011719-13.011719 13.011719-34.132813 0-47.144532zm0 0" fill="#388e3c"/><path d="m256 511.625c-141.226562 0-256-95.785156-256-213.332031 0-88.960938 64-166.828125 163.199219-198.613281 5.546875-1.917969 11.519531 1.28125 13.226562 6.828124 1.707031 5.546876-1.277343 11.519532-6.824219 13.4375-90.027343 28.800782-148.269531 98.773438-148.269531 178.347657 0 105.8125 105.175781 192 234.667969 192s234.667969-86.1875 234.667969-192c0-72.960938-49.921875-138.878907-130.132813-171.519531-5.546875-2.132813-8.109375-8.535157-5.761718-13.867188 2.347656-5.546875 8.535156-8.105469 13.867187-5.757812 88.53125 36.050781 143.359375 109.226562 143.359375 191.144531 0 117.546875-114.773438 213.332031-256 213.332031zm0 0"/><path d="m117.332031 425.652344c-2.132812 0-4.480469-.640625-6.398437-2.132813-43.308594-32.210937-68.265625-77.867187-68.265625-125.226562 0-5.972657 4.691406-10.667969 10.664062-10.667969 5.976563 0 10.667969 4.695312 10.667969 10.667969 0 41.171875 21.121094 79.574219 59.734375 107.945312 4.691406 3.414063 5.757813 10.242188 2.132813 14.933594-2.132813 2.988281-5.332032 4.480469-8.535157 4.480469zm0 0"/><path d="m245.332031 234.292969c-1.492187 0-2.984375-.425781-4.480469-1.066407-14.503906-6.613281-30.503906-25.8125-44.796874-52.480468-56.535157-2.132813-66.132813-10.453125-67.839844-18.984375-1.066406-4.910157 1.707031-10.027344 6.398437-11.949219 6.398438-2.773438 21.546875-9.386719 32-14.933594-14.71875-27.304687-17.066406-58.453125-17.28125-59.730468-.210937-3.628907 1.28125-7.042969 4.054688-9.175782 2.773437-2.132812 6.398437-2.773437 9.8125-1.917968 14.082031 4.265624 60.800781 19.199218 70.402343 38.183593 2.773438 5.335938.636719 11.734375-4.695312 14.296875-5.332031 2.773438-11.734375.636719-14.292969-4.695312-2.988281-5.546875-21.761719-14.71875-41.386719-21.972656 2.558594 12.160156 7.464844 29.011718 16.851563 42.238281 3.203125 4.695312 2.347656 11.308593-2.34375 14.722656-4.269531 3.199219-11.308594 7.039063-18.5625 10.664063 8.109375.855468 19.203125 1.707031 33.707031 2.132812 4.054688.214844 7.46875 2.347656 9.386719 5.976562 12.160156 24.320313 24.109375 38.613282 32.640625 45.226563 11.519531-9.601563 18.132812-22.613281 21.972656-42.453125.640625-2.988281 2.347656-5.546875 4.90625-7.042969 2.5625-1.492187 5.546875-1.917969 8.535156-1.066406 10.027344 2.773437 27.519532 7.894531 44.800782 6.613281-7.253906-5.546875-13.441406-11.519531-18.132813-16-1.921875-1.917968-3.414062-3.414062-4.695312-4.480468-3.199219-2.773438-4.480469-7.039063-3.199219-11.089844 1.066406-4.054688 4.480469-7.042969 8.53125-7.46875 11.09375-1.707032 35.203125-7.253906 48.855469-24.105469-51.839844-6.402344-76.800781 19.414063-77.867188 20.691406-4.054687 4.265625-10.667969 4.480469-15.148437.640625-4.265625-4.054687-4.691406-10.667968-.636719-14.933594 1.492187-1.707031 38.183594-40.746093 112.636719-24.53125 2.988281.636719 5.546875 2.558594 7.042968 5.332032 1.492188 2.773437 1.707032 5.972656.640626 8.960937-10.027344 25.8125-33.28125 38.398438-52.054688 44.585938 7.253906 6.1875 16 13.011719 24.53125 16.210937 4.054688 1.070313 6.828125 4.695313 7.042969 8.960938.210937 4.269531-1.921875 8.109375-5.546875 10.027344-24.535156 13.011718-52.90625 8.535156-71.894532 3.839843-6.1875 22.1875-16.851562 37.546875-33.917968 49.066407-1.921875 1.066406-3.84375 1.707031-5.976563 1.707031zm0 0"/><path d="m266.667969 148.960938c-5.976563 0-10.667969-4.695313-10.667969-10.667969v-11.09375c0-38.824219 14.933594-61.652344 39.253906-85.757813 4.691406-4.695312 4.691406-12.160156 0-16.855468-4.695312-4.691407-12.160156-4.691407-16.855468 0l-10.664063 10.667968c-22.828125 22.613282-33.066406 62.507813-33.066406 91.945313v11.09375c0 5.972656-4.695313 10.667969-10.667969 10.667969s-10.667969-4.695313-10.667969-10.667969v-11.09375c0-31.359375 10.242188-78.078125 39.253907-107.09375l10.667968-10.664063c12.585938-12.589844 34.558594-12.589844 47.144532 0 13.015624 13.011719 13.015624 34.132813 0 47.144532-21.332032 21.335937-32.851563 38.828124-32.851563 70.613281v11.09375c-.214844 5.972656-4.90625 10.667969-10.878906 10.667969zm0 0"/></svg>