<?xml version="1.0" encoding="UTF-8" standalone="no"?>
<!-- Created with Inkscape (http://www.inkscape.org/) -->

<svg
   xmlns:dc="http://purl.org/dc/elements/1.1/"
   xmlns:cc="http://creativecommons.org/ns#"
   xmlns:rdf="http://www.w3.org/1999/02/22-rdf-syntax-ns#"
   xmlns:svg="http://www.w3.org/2000/svg"
   xmlns="http://www.w3.org/2000/svg"
   xmlns:sodipodi="http://sodipodi.sourceforge.net/DTD/sodipodi-0.dtd"
   xmlns:inkscape="http://www.inkscape.org/namespaces/inkscape"
   version="1.1"
   id="svg920"
   width="256"
   height="256"
   viewBox="0 0 256 256"
   sodipodi:docname="kivy.svg"
   inkscape:version="0.92.3 (2405546, 2018-03-11)">
  <metadata
     id="metadata926">
    <rdf:RDF>
      <cc:Work
         rdf:about="">
        <dc:format>image/svg+xml</dc:format>
        <dc:type
           rdf:resource="http://purl.org/dc/dcmitype/StillImage" />
        <dc:title></dc:title>
      </cc:Work>
    </rdf:RDF>
  </metadata>
  <defs
     id="defs924" />
  <sodipodi:namedview
     pagecolor="#ffffff"
     bordercolor="#666666"
     borderopacity="1"
     objecttolerance="10"
     gridtolerance="10"
     guidetolerance="10"
     inkscape:pageopacity="0"
     inkscape:pageshadow="2"
     inkscape:window-width="2560"
     inkscape:window-height="1302"
     id="namedview922"
     showgrid="false"
     inkscape:zoom="4.0007935"
     inkscape:cx="76.589261"
     inkscape:cy="128"
     inkscape:window-x="0"
     inkscape:window-y="113"
     inkscape:window-maximized="0"
     inkscape:current-layer="svg920" />
  <g
     id="g1473"
     transform="translate(2.7494575,-0.74985105)">
    <path
       style="fill:#dfdfdf;fill-opacity:1"
       d="M 110.90986,245.48485 C 60.578993,238.61465 19.997766,197.38301 12.50224,145.5 11.285422,137.07735 11.815213,115.34026 13.449941,106.61627 20.124177,70.998162 43.86352,39.811405 76.656067,23.58137 93.236811,15.375053 108.38969,12 128.65263,12 c 14.85541,0 23.7019,1.431688 37.78359,6.114774 21.50649,7.152322 41.24014,21.7086 56.10509,41.385226 6.16901,8.165871 14.90747,26.107229 17.94657,36.84696 7.64492,27.01608 5.01144,58.36561 -7.01295,83.48367 -17.27778,36.09201 -50.50503,60.49869 -89.47493,65.72276 -12.60453,1.68969 -20.32664,1.67369 -33.09014,-0.0685 z m 40.30325,-79.27174 C 163.54182,153.88441 166,150.93853 166,148.49253 c 0,-2.52174 -4.91421,-7.8526 -34.99601,-37.96311 L 96.007977,75.5 l -0.004,32.21249 c -0.0051,41.45133 -1.271318,37.64344 19.309193,58.06995 C 127.98509,178.35953 131.14699,181 133.53585,181 c 2.39019,0 5.44927,-2.5589 17.67726,-14.78689 z M 87.990945,148.25 87.98189,116.5 73.490945,131.06809 C 61.623278,142.99894 59,146.15292 59,148.4906 c 0,2.33286 2.595578,5.47231 14.205373,17.18191 7.812954,7.88012 14.337954,14.32749 14.5,14.32749 0.162045,0 0.290552,-14.2875 0.285572,-31.75 z M 195.74107,121.75915 C 206.88348,110.62668 216,101.25859 216,100.94117 c 0,-0.40314 -66.69784,6.78972 -73.98863,7.97912 C 141.40934,109.0185 174.2798,142 174.9797,142 c 0.27634,0 9.61895,-9.10838 20.76137,-20.24085 z M 83,107.08375 c 0,-3.08953 -1.436486,-4.88771 -13.990656,-17.513397 L 55.018687,75.5 55.009344,106.9866 55,138.47321 69,124.5 c 12.583629,-12.55955 14,-14.32154 14,-17.41625 z"
       id="path1563"
       inkscape:connector-curvature="0" />
    <path
       style="fill:#dbdbdb;fill-opacity:1"
       d="M 108,244.86114 C 93.311896,242.44415 73.865342,234.32753 61.094742,225.28378 36.241708,207.68362 19.180331,180.72303 13.541469,150.13953 11.499415,139.06404 11.507212,116.30142 13.556459,106.38039 19.682263,76.723468 34.739266,52.691177 58.371483,34.851694 68.577011,27.147748 85.889801,18.71383 98.5,15.303106 c 9.22374,-2.494778 11.5137,-2.708069 29.5,-2.747681 18.28806,-0.04028 20.11319,0.128029 29.36616,2.708009 26.38773,7.357623 48.44456,22.229594 64.71376,43.633716 6.41423,8.4387 15.15147,26.175334 18.27722,37.10285 9.33043,32.61876 3.7552,69.35448 -14.87719,98.02733 -6.23999,9.60256 -23.85006,27.21263 -33.45262,33.45262 -13.26949,8.62287 -30.87101,15.49221 -44.89424,17.52087 -8.13149,1.17633 -31.64573,1.0924 -39.13309,-0.13968 z m 43.21311,-78.64803 C 163.54182,153.88441 166,150.93853 166,148.49253 c 0,-2.52174 -4.91421,-7.8526 -34.99601,-37.96311 L 96.007977,75.5 l -0.004,32.21249 c -0.0051,41.45133 -1.271318,37.64344 19.309193,58.06995 C 127.98509,178.35953 131.14699,181 133.53585,181 c 2.39019,0 5.44927,-2.5589 17.67726,-14.78689 z M 87.990945,148.25 87.98189,116.5 73.490945,131.06809 C 61.623278,142.99894 59,146.15292 59,148.4906 c 0,2.33286 2.595578,5.47231 14.205373,17.18191 7.812954,7.88012 14.337954,14.32749 14.5,14.32749 0.162045,0 0.290552,-14.2875 0.285572,-31.75 z M 195.74107,121.75915 C 206.88348,110.62668 216,101.25859 216,100.94117 c 0,-0.40314 -66.69784,6.78972 -73.98863,7.97912 C 141.40934,109.0185 174.2798,142 174.9797,142 c 0.27634,0 9.61895,-9.10838 20.76137,-20.24085 z M 83,107.08375 c 0,-3.08953 -1.436486,-4.88771 -13.990656,-17.513397 L 55.018687,75.5 55.009344,106.9866 55,138.47321 69,124.5 c 12.583629,-12.55955 14,-14.32154 14,-17.41625 z"
       id="path1561"
       inkscape:connector-curvature="0" />
    <path
       style="fill:#d8d8d8;fill-opacity:1"
       d="M 109.16795,244.91619 C 81.829186,240.70048 52.989096,223.3306 36.0316,200.86746 19.75863,179.3111 11.992164,156.02708 12.007554,128.84292 12.016091,113.76476 12.912213,106.97746 16.553363,94.412613 23.130474,71.716376 38.483452,49.827093 58.297144,34.897028 68.585543,27.144486 85.875829,18.717609 98.5,15.303106 c 9.22374,-2.494778 11.5137,-2.708069 29.5,-2.747681 18.28806,-0.04028 20.11319,0.128029 29.36616,2.708009 43.99091,12.26587 75.81968,45.780119 85.22358,89.736566 2.48346,11.60842 2.5144,34.3225 0.0625,45.91439 -7.90565,37.37619 -30.01962,66.7815 -62.40659,82.98305 -17.13024,8.56939 -27.81144,11.14049 -48.24569,11.61335 -9.075,0.21 -19.34942,-0.0576 -22.83205,-0.5946 z m 42.04516,-78.70308 C 163.54182,153.88441 166,150.93853 166,148.49253 c 0,-2.52174 -4.91421,-7.8526 -34.99601,-37.96311 L 96.007977,75.5 l -0.004,32.21249 c -0.0051,41.45133 -1.271318,37.64344 19.309193,58.06995 C 127.98509,178.35953 131.14699,181 133.53585,181 c 2.39019,0 5.44927,-2.5589 17.67726,-14.78689 z M 87.990945,148.25 87.98189,116.5 73.490945,131.06809 C 61.623278,142.99894 59,146.15292 59,148.4906 c 0,2.33286 2.595578,5.47231 14.205373,17.18191 7.812954,7.88012 14.337954,14.32749 14.5,14.32749 0.162045,0 0.290552,-14.2875 0.285572,-31.75 z M 195.74107,121.75915 C 206.88348,110.62668 216,101.25859 216,100.94117 c 0,-0.40314 -66.69784,6.78972 -73.98863,7.97912 C 141.40934,109.0185 174.2798,142 174.9797,142 c 0.27634,0 9.61895,-9.10838 20.76137,-20.24085 z M 83,107.08375 c 0,-3.08953 -1.436486,-4.88771 -13.990656,-17.513397 L 55.018687,75.5 55.009344,106.9866 55,138.47321 69,124.5 c 12.583629,-12.55955 14,-14.32154 14,-17.41625 z"
       id="path1559"
       inkscape:connector-curvature="0" />
    <path
       style="fill:#d4d4d4;fill-opacity:1"
       d="M 110.78965,244.95376 C 97.034449,243.03507 76.299054,234.95437 63.756927,226.62486 52.639914,219.2418 39.352289,205.882 31.308313,194 23.319455,182.19942 16.324439,164.69431 13.410215,149.20981 10.908979,135.91969 11.900211,110.78172 15.429504,98 26.492091,57.935623 58.479222,26.15651 98.722651,15.248523 107.69359,12.816947 110.1083,12.594829 128,12.555425 c 18.28806,-0.04028 20.11319,0.128029 29.36616,2.708009 43.99091,12.26587 75.81968,45.780119 85.22358,89.736566 2.49033,11.64048 2.51439,34.3148 0.0488,46 -5.03316,23.85389 -16.04145,44.45134 -32.61433,61.02423 -15.75101,15.75101 -34.54411,26.12708 -57.02423,31.48431 -7.89432,1.88129 -32.93719,2.73872 -42.21035,1.44522 z m 40.42346,-78.74065 C 163.54182,153.88441 166,150.93853 166,148.49253 c 0,-2.52174 -4.91421,-7.8526 -34.99601,-37.96311 L 96.007977,75.5 l -0.004,32.23927 c -0.0052,42.27864 -1.455921,38.16344 21.165573,60.04082 C 128.07101,178.32294 131.40482,181 133.63268,181 c 2.26545,0 5.58888,-2.79533 17.58043,-14.78689 z M 87.990945,148.25 87.98189,116.5 73.490945,131.06809 C 61.623278,142.99894 59,146.15292 59,148.4906 c 0,2.33286 2.595578,5.47231 14.205373,17.18191 7.812954,7.88012 14.337954,14.32749 14.5,14.32749 0.162045,0 0.290552,-14.2875 0.285572,-31.75 z M 195.96292,121.53711 c 11.24455,-11.25459 20.24043,-20.63498 19.99086,-20.84531 -0.32001,-0.26968 -68.40671,7.3057 -73.94241,8.22689 C 141.40002,109.02042 174.28499,142 174.99778,142 c 0.28628,0 9.7206,-9.2083 20.96514,-20.46289 z M 83,107.08375 c 0,-3.08953 -1.436486,-4.88771 -13.990656,-17.513397 L 55.018687,75.5 55.009344,106.9866 55,138.47321 69,124.5 c 12.583629,-12.55955 14,-14.32154 14,-17.41625 z"
       id="path1557"
       inkscape:connector-curvature="0" />
    <path
       style="fill:#d0d0d0;fill-opacity:1"
       d="M 118,245.35542 C 109.62122,244.57857 99.87039,242.531 91.613414,239.81452 51.581331,226.64425 21.377545,191.64845 13.41531,149.20981 10.928423,135.95472 11.859594,111.83363 15.372912,98.5 25.145798,61.41025 54.123753,30.316667 90.423392,17.970218 115.78955,9.3425297 145.32677,9.9178727 170.20062,19.524165 202.41641,31.965913 228.26659,59.154504 238.94307,91.825786 242.18074,101.73345 245,118.4103 245,127.65457 c 0,15.13819 -3.76639,33.13233 -9.92504,47.41745 -7.94704,18.43333 -24.89829,39.01406 -41.57496,50.4767 -21.44039,14.73697 -49.83566,22.18619 -75.5,19.8067 z m 33.21311,-79.14231 C 163.54182,153.88441 166,150.93853 166,148.49253 c 0,-2.52174 -4.91421,-7.8526 -34.99601,-37.96311 L 96.007977,75.5 l -0.004,32.23927 c -0.0052,42.27864 -1.455921,38.16344 21.165573,60.04082 C 128.07101,178.32294 131.40482,181 133.63268,181 c 2.26545,0 5.58888,-2.79533 17.58043,-14.78689 z M 87.990945,148.25 87.98189,116.5 73.490945,131.06809 C 61.623278,142.99894 59,146.15292 59,148.4906 c 0,2.33286 2.595578,5.47231 14.205373,17.18191 7.812954,7.88012 14.337954,14.32749 14.5,14.32749 0.162045,0 0.290552,-14.2875 0.285572,-31.75 z M 195.96292,121.53711 c 11.24455,-11.25459 20.24043,-20.63498 19.99086,-20.84531 -0.32001,-0.26968 -68.40671,7.3057 -73.94241,8.22689 C 141.40002,109.02042 174.28499,142 174.99778,142 c 0.28628,0 9.7206,-9.2083 20.96514,-20.46289 z M 83,107.08375 c 0,-3.08953 -1.436486,-4.88771 -13.990656,-17.513397 L 55.018687,75.5 55.009344,106.9866 55,138.47321 69,124.5 c 12.583629,-12.55955 14,-14.32154 14,-17.41625 z"
       id="path1555"
       inkscape:connector-curvature="0" />
    <path
       style="fill:#cdcdcd;fill-opacity:1"
       d="M 107,243.82972 C 96.576348,241.61506 84.879035,237.48721 75.700222,232.78437 43.09541,216.07906 20.200777,185.3767 13.427505,149.27488 10.947298,136.05528 11.852455,111.85541 15.318329,98.722651 20.557655,78.869996 30.897156,61.102844 46,46 68.83603,23.16397 95.827681,12 128.20338,12 c 37.59207,0 70.83468,16.672762 93.64891,46.969402 14.12778,18.76129 23.15598,45.543308 23.14489,68.658938 -0.0107,22.28489 -7.11197,46.08708 -19.24418,64.50292 -17.45571,26.49655 -44.53609,44.99224 -75.12658,51.31087 -8.49864,1.75545 -36.03688,2.00011 -43.62642,0.38759 z m 44.21311,-77.61661 C 163.54182,153.88441 166,150.93853 166,148.49253 c 0,-2.52174 -4.91421,-7.8526 -34.99601,-37.96311 L 96.007977,75.5 l -0.004,32.23927 c -0.0052,42.27864 -1.455921,38.16344 21.165573,60.04082 C 128.07101,178.32294 131.40482,181 133.63268,181 c 2.26545,0 5.58888,-2.79533 17.58043,-14.78689 z M 87.990945,148.25 87.98189,116.5 73.490945,131.06809 C 61.623278,142.99894 59,146.15292 59,148.4906 c 0,2.33286 2.595578,5.47231 14.205373,17.18191 7.812954,7.88012 14.337954,14.32749 14.5,14.32749 0.162045,0 0.290552,-14.2875 0.285572,-31.75 z M 195.96292,121.53711 c 11.24455,-11.25459 20.24043,-20.63498 19.99086,-20.84531 -0.32001,-0.26968 -68.40671,7.3057 -73.94241,8.22689 C 141.40002,109.02042 174.28499,142 174.99778,142 c 0.28628,0 9.7206,-9.2083 20.96514,-20.46289 z M 83,107.08375 c 0,-3.08953 -1.436486,-4.88771 -13.990656,-17.513397 L 55.018687,75.5 55.009344,106.9866 55,138.47321 69,124.5 c 12.583629,-12.55955 14,-14.32154 14,-17.41625 z"
       id="path1553"
       inkscape:connector-curvature="0" />
    <path
       style="fill:#c9c9c9;fill-opacity:1"
       d="M 107,243.43702 C 85.994738,238.89996 71.571449,232.11286 54.698865,218.82593 33.576412,202.19228 18.629999,177.00439 13.427505,149.27488 10.947298,136.05528 11.852455,111.85541 15.318329,98.722651 20.557655,78.869996 30.897156,61.102844 46,46 68.83603,23.16397 95.827681,12 128.20338,12 c 32.94708,0 61.34627,12.106055 83.98423,35.800941 30.49413,31.917845 40.34015,76.148219 26.31012,118.190519 -13.20681,39.57543 -47.98856,69.50221 -90.15378,77.56975 -9.54466,1.82619 -32.63537,1.75684 -41.34395,-0.12419 z m 42.85547,-75.65958 c 14.39185,-13.94677 16.78643,-17.11659 15.80865,-20.92667 -0.3318,-1.29292 -16.14197,-17.87332 -35.1337,-36.84533 L 96,75.51087 v 32.20705 c 0,41.10231 -0.748031,38.59574 16.91026,56.66442 13.25583,13.56391 17.09327,16.60781 20.94521,16.61392 1.66985,0.003 6.32704,-3.84501 16,-13.21882 z M 87.990945,148.25 87.98189,116.5 73.490945,131.06809 C 61.623278,142.99894 59,146.15292 59,148.4906 c 0,2.33286 2.595578,5.47231 14.205373,17.18191 7.812954,7.88012 14.337954,14.32749 14.5,14.32749 0.162045,0 0.290552,-14.2875 0.285572,-31.75 z M 215.95686,100.67436 c -0.32255,-0.28667 -57.16995,5.98083 -74.94583,8.26287 -0.26893,0.0345 7.15292,7.71459 16.49301,17.06682 l 16.98198,17.00405 20.96385,-20.96386 c 11.53012,-11.53011 20.75827,-21.14656 20.50699,-21.36988 z m -132.623527,6.33467 c 0,-2.71328 -1.924427,-5.07729 -13.903269,-17.0791 C 61.783266,82.268468 55.183266,76 54.763397,76 54.343529,76 54,90.285593 54,107.74576 v 31.74577 l 14.666667,-14.66667 c 12.679132,-12.67913 14.666666,-15.09342 14.666666,-17.81583 z"
       id="path1551"
       inkscape:connector-curvature="0" />
    <path
       style="fill:#c6c6c6;fill-opacity:1"
       d="M 108.5,243.45409 C 61.962616,234.76131 27.045972,202.19418 14.853003,156.10853 11.941642,145.10449 11.180459,119.62743 13.409385,107.79019 18.014818,83.331955 28.447061,63.552939 46,46 63.685687,28.314313 84.175328,17.611395 108.5,13.352656 c 13.34512,-2.33645 35.73386,-1.410459 48.88805,2.021995 54.94213,14.336595 92.61775,68.138836 86.79976,123.953389 -5.19865,49.87293 -38.99943,89.27693 -87.68781,102.22398 -12.69457,3.37569 -35.31261,4.27197 -48,1.90207 z m 41.35547,-75.67665 c 14.39185,-13.94677 16.78643,-17.11659 15.80865,-20.92667 -0.3318,-1.29292 -16.14197,-17.87332 -35.1337,-36.84533 L 96,75.51087 v 32.20705 c 0,41.10231 -0.748031,38.59574 16.91026,56.66442 13.25583,13.56391 17.09327,16.60781 20.94521,16.61392 1.66985,0.003 6.32704,-3.84501 16,-13.21882 z M 87.990945,148.25 87.98189,116.5 73.490945,131.06809 C 61.623278,142.99894 59,146.15292 59,148.4906 c 0,2.33286 2.595578,5.47231 14.205373,17.18191 7.812954,7.88012 14.337954,14.32749 14.5,14.32749 0.162045,0 0.290552,-14.2875 0.285572,-31.75 z M 215.95686,100.67436 c -0.32255,-0.28667 -57.16995,5.98083 -74.94583,8.26287 -0.26893,0.0345 7.15292,7.71459 16.49301,17.06682 l 16.98198,17.00405 20.96385,-20.96386 c 11.53012,-11.53011 20.75827,-21.14656 20.50699,-21.36988 z m -132.623527,6.33467 c 0,-2.71328 -1.924427,-5.07729 -13.903269,-17.0791 C 61.783266,82.268468 55.183266,76 54.763397,76 54.343529,76 54,90.285593 54,107.74576 v 31.74577 l 14.666667,-14.66667 c 12.679132,-12.67913 14.666666,-15.09342 14.666666,-17.81583 z"
       id="path1549"
       inkscape:connector-curvature="0" />
    <path
       style="fill:#c2c2c2;fill-opacity:1"
       d="M 112.5,243.87264 C 95.253701,241.7184 72.458236,232.4401 58.594758,221.93192 34.322259,203.53395 17.823922,176.29019 13.016157,146.66782 11.507212,137.37067 11.784942,116.35463 13.538943,107.10829 20.467376,70.584558 44.468067,39.19355 77.5,23.452278 c 19.236886,-9.167282 32.79391,-11.919745 55,-11.166574 18.64301,0.63232 30.01129,3.366902 45.88805,11.038136 61.92206,29.919112 84.78774,104.8777 50.08097,164.17616 -23.61947,40.35518 -68.71333,62.27535 -115.96902,56.37264 z m 37.35547,-76.0952 c 14.39185,-13.94677 16.78643,-17.11659 15.80865,-20.92667 -0.3318,-1.29292 -16.14197,-17.87332 -35.1337,-36.84533 L 96,75.51087 v 32.20705 c 0,41.10231 -0.748031,38.59574 16.91026,56.66442 13.25583,13.56391 17.09327,16.60781 20.94521,16.61392 1.66985,0.003 6.32704,-3.84501 16,-13.21882 z M 87.990945,148.25 87.98189,116.5 73.490945,131.06809 C 61.623278,142.99894 59,146.15292 59,148.4906 c 0,2.33286 2.595578,5.47231 14.205373,17.18191 7.812954,7.88012 14.337954,14.32749 14.5,14.32749 0.162045,0 0.290552,-14.2875 0.285572,-31.75 z M 215.95686,100.67436 c -0.32255,-0.28667 -57.16995,5.98083 -74.94583,8.26287 -0.26893,0.0345 7.15292,7.71459 16.49301,17.06682 l 16.98198,17.00405 20.96385,-20.96386 c 11.53012,-11.53011 20.75827,-21.14656 20.50699,-21.36988 z m -132.623527,6.33467 c 0,-2.71328 -1.924427,-5.07729 -13.903269,-17.0791 C 61.783266,82.268468 55.183266,76 54.763397,76 54.343529,76 54,90.285593 54,107.74576 v 31.74577 l 14.666667,-14.66667 c 12.679132,-12.67913 14.666666,-15.09342 14.666666,-17.81583 z"
       id="path1547"
       inkscape:connector-curvature="0" />
    <path
       style="fill:#bebebe;fill-opacity:1"
       d="M 112.5,243.87264 C 95.71679,241.77624 72.697394,232.51145 59.5,222.54131 34.502247,203.65645 17.85549,176.48469 13.016157,146.66782 11.517287,137.43274 11.784958,116.35455 13.517055,107.22367 20.398145,70.949516 43.87967,39.922875 76.5,24.00296 c 19.792863,-9.659641 33.30555,-12.486991 56,-11.717256 18.64301,0.63232 30.01129,3.366902 45.88805,11.038136 55.76397,26.943684 81.14065,92.50305 57.64884,148.9329 -20.65634,49.61876 -70.11252,78.28914 -123.53689,71.6159 z m 37.35547,-76.0952 c 14.39185,-13.94677 16.78643,-17.11659 15.80865,-20.92667 -0.3318,-1.29292 -16.14197,-17.87332 -35.1337,-36.84533 L 96,75.51087 v 32.20705 c 0,41.10231 -0.748031,38.59574 16.91026,56.66442 13.25583,13.56391 17.09327,16.60781 20.94521,16.61392 1.66985,0.003 6.32704,-3.84501 16,-13.21882 z M 87.990945,148.25 87.98189,116.5 73.490945,131.06809 C 61.623278,142.99894 59,146.15292 59,148.4906 c 0,2.33286 2.595578,5.47231 14.205373,17.18191 7.812954,7.88012 14.337954,14.32749 14.5,14.32749 0.162045,0 0.290552,-14.2875 0.285572,-31.75 z M 215.95686,100.63179 c -0.33517,-0.32911 -71.80591,7.54535 -74.94583,8.25733 -0.26893,0.061 7.15292,7.7627 16.49301,17.11493 l 16.98198,17.00405 20.96385,-20.96386 c 11.53012,-11.53011 20.75827,-21.16572 20.50699,-21.41245 z m -132.623527,6.37724 c 0,-2.71328 -1.924427,-5.07729 -13.903269,-17.0791 C 61.783266,82.268468 55.183266,76 54.763397,76 54.343529,76 54,90.285593 54,107.74576 v 31.74577 l 14.666667,-14.66667 c 12.679132,-12.67913 14.666666,-15.09342 14.666666,-17.81583 z"
       id="path1545"
       inkscape:connector-curvature="0" />
    <path
       style="fill:#bbbbbb;fill-opacity:1"
       d="M 116,244.37672 C 66.5058,238.07571 27.786609,204.5464 15.294323,157.16954 11.883229,144.233 10.9776,120.77132 13.392733,107.90596 21.602467,64.172875 53.350575,28.742463 95.194315,16.616623 c 13.094715,-3.7947 23.410795,-4.952975 38.691955,-4.344277 17.19014,0.684738 29.38962,3.738011 44.6655,11.178837 73.08459,35.599229 88.80405,131.184767 30.93865,188.129147 -15.8875,15.63463 -35.48631,26.08482 -58.00326,30.92765 -7.08875,1.52461 -29.08981,2.68318 -35.48716,1.86874 z m 33.85547,-76.59928 C 164.24732,153.83067 166.6419,150.66085 165.66412,146.85077 165.33232,145.55785 149.50617,128.975 130.4949,110 l -34.565934,-34.5 0.285517,34 c 0.282082,33.59092 0.314088,34.05414 2.660141,38.5 2.529496,4.79348 24.598276,27.97312 29.625376,31.1166 5.52717,3.45618 6.76763,2.79753 21.35547,-11.33916 z M 87.990945,148.25 87.98189,116.5 73.490945,131.06809 C 61.623278,142.99894 59,146.15292 59,148.4906 c 0,2.33286 2.595578,5.47231 14.205373,17.18191 7.812954,7.88012 14.337954,14.32749 14.5,14.32749 0.162045,0 0.290552,-14.2875 0.285572,-31.75 z M 215.95686,100.63179 c -0.33517,-0.32911 -71.80591,7.54535 -74.94583,8.25733 -0.26893,0.061 7.15292,7.7627 16.49301,17.11493 l 16.98198,17.00405 20.96385,-20.96386 c 11.53012,-11.53011 20.75827,-21.16572 20.50699,-21.41245 z M 83.333333,107 c 0,-2.73404 -1.969787,-5.12798 -14.666666,-17.824859 L 54,74.508475 V 107 139.49153 L 68.666667,124.82486 C 81.363546,112.12798 83.333333,109.73404 83.333333,107 Z"
       id="path1543"
       inkscape:connector-curvature="0" />
    <path
       style="fill:#b7b7b7;fill-opacity:1"
       d="M 116,244.37672 C 80.159416,239.81393 50.425682,221.55992 30.934184,192.15349 14.916918,167.98856 8.443355,136.74643 13.497058,108 21.100051,64.752714 53.273433,28.764818 95.194315,16.616623 114.81653,10.930329 138.72682,10.488694 157.5,15.465806 c 36.85814,9.771764 67.41926,37.623843 80.04523,72.94975 1.84324,5.157165 4.12217,13.360914 5.06429,18.230554 2.28123,11.79125 2.29906,34.14939 0.0352,44.19152 -10.69088,47.42409 -44.7683,81.69319 -91.15761,91.67035 -7.08875,1.52461 -29.08981,2.68318 -35.48716,1.86874 z m 33.85547,-76.59928 C 164.24732,153.83067 166.6419,150.66085 165.66412,146.85077 165.33232,145.55785 149.50617,128.975 130.4949,110 l -34.565934,-34.5 0.285517,34 c 0.282082,33.59092 0.314088,34.05414 2.660141,38.5 2.529496,4.79348 24.598276,27.97312 29.625376,31.1166 5.52717,3.45618 6.76763,2.79753 21.35547,-11.33916 z M 87.990945,148.25 87.98189,116.5 73.490945,131.06809 C 61.623278,142.99894 59,146.15292 59,148.4906 c 0,2.33286 2.595578,5.47231 14.205373,17.18191 7.812954,7.88012 14.337954,14.32749 14.5,14.32749 0.162045,0 0.290552,-14.2875 0.285572,-31.75 z M 215.95686,100.63179 c -0.33517,-0.32911 -71.80591,7.54535 -74.94583,8.25733 -0.26893,0.061 7.15292,7.7627 16.49301,17.11493 l 16.98198,17.00405 20.96385,-20.96386 c 11.53012,-11.53011 20.75827,-21.16572 20.50699,-21.41245 z M 83.333333,107 c 0,-2.73404 -1.969787,-5.12798 -14.666666,-17.824859 L 54,74.508475 V 107 139.49153 L 68.666667,124.82486 C 81.363546,112.12798 83.333333,109.73404 83.333333,107 Z"
       id="path1541"
       inkscape:connector-curvature="0" />
    <path
       style="fill:#b4b4b4;fill-opacity:1"
       d="M 117,244.36962 C 105.77054,242.76146 99.264565,241.35052 91.640656,238.86998 57.187037,227.66003 29.297058,199.80607 17.610149,164.93508 10.320357,143.18405 10.112209,114.64461 17.0855,93 28.86693,56.431253 58.794374,27.164912 95.194315,16.616623 114.76912,10.944065 138.6625,10.493332 157.5,15.441265 c 37.68467,9.898408 68.26624,38.543945 81.12337,75.987669 5.49379,15.999536 7.33122,39.538516 4.41588,56.571066 -4.01826,23.47627 -18.07139,49.77531 -34.73685,65.0066 -18.32013,16.74357 -42.31731,28.00682 -65.8024,30.88484 -8.53573,1.04603 -20.02973,1.26156 -25.5,0.47818 z m 32.83044,-76.5462 C 164.17302,153.99809 166.65475,150.7109 165.66412,146.85077 165.33232,145.55785 149.50617,128.975 130.4949,110 l -34.565934,-34.5 0.285517,34 0.285517,34 2.854104,5.14927 c 1.695566,3.05907 8.425786,10.6701 16.580116,18.75 C 127.9062,179.26198 130.07559,181 132.91055,181 c 2.81104,0 5.09778,-1.78083 16.91989,-13.17658 z M 87.990945,148.25 87.98189,116.5 73.490945,131.06809 C 61.623278,142.99894 59,146.15292 59,148.4906 c 0,2.33286 2.595578,5.47231 14.205373,17.18191 7.812954,7.88012 14.337954,14.32749 14.5,14.32749 0.162045,0 0.290552,-14.2875 0.285572,-31.75 z M 215.94,100.60666 c -0.48678,-0.48677 -71.28871,7.2016 -73.88542,8.02321 -0.94422,0.29876 4.42798,6.33837 15.49301,17.41778 l 16.93843,16.96045 20.96385,-20.96386 C 206.97999,110.51413 216.20055,100.86721 215.94,100.60666 Z M 83.333333,107 c 0,-2.73404 -1.969787,-5.12798 -14.666666,-17.824859 L 54,74.508475 V 107 139.49153 L 68.666667,124.82486 C 81.363546,112.12798 83.333333,109.73404 83.333333,107 Z"
       id="path1539"
       inkscape:connector-curvature="0" />
    <path
       style="fill:#b0b0b0;fill-opacity:1"
       d="M 110.62911,243.49858 C 84.289427,239.18934 62.084927,227.45354 43.708845,208.12904 22.553751,185.8821 12,159.13798 12,127.77609 12,74.565132 47.640582,28.884762 99.706037,15.363669 113.25571,11.844898 132.70724,11.061447 147.03585,13.457361 187.16043,20.16667 221.14099,47.231042 235.98444,84.301921 262.91417,151.5578 223.64456,226.22727 153,242.09325 c -11.59707,2.60457 -31.08905,3.25107 -42.37089,1.40533 z m 39.20133,-75.67516 c 14.38629,-13.86746 16.84457,-17.1318 15.79391,-20.97265 C 165.27067,145.55785 149.48004,128.75 130.53406,109.5 L 96.086833,74.5 96.043416,108.09028 96,141.68056 l 2.953252,5.90972 c 2.202398,4.40719 6.481418,9.40563 16.830118,19.65972 12.1109,12.00018 14.2905,13.75 17.12718,13.75 2.81104,0 5.09778,-1.78083 16.91989,-13.17658 z M 87.990945,148.25 87.98189,116.5 73.490945,131.06809 C 61.47221,143.15082 59,146.13425 59,148.55558 c 0,2.4213 2.429079,5.35282 14.237065,17.18191 7.830386,7.84438 14.355386,14.26251 14.5,14.26251 0.144614,0 0.25886,-14.2875 0.25388,-31.75 z M 215.94,100.60666 c -0.48678,-0.48677 -71.28871,7.2016 -73.88542,8.02321 -0.94422,0.29876 4.42798,6.33837 15.49301,17.41778 l 16.93843,16.96045 20.96385,-20.96386 C 206.97999,110.51413 216.20055,100.86721 215.94,100.60666 Z M 68.662931,125.75 C 82.762331,111.45371 84.361005,109.28654 83.458944,105.69244 83.134741,104.40072 76.37385,96.859802 68.434742,88.934858 L 54,74.52587 v 32.23706 C 54,124.49332 54.358967,139 54.797704,139 c 0.438737,0 6.678089,-5.9625 13.865227,-13.25 z"
       id="path1537"
       inkscape:connector-curvature="0" />
    <path
       style="fill:#adadad;fill-opacity:1"
       d="M 110.74184,243.51486 C 80.452606,238.55196 53.306805,222.28362 34.879729,198.05108 27.706745,188.61825 18.506911,169.4569 15.410161,157.5 12.215797,145.1662 11.099891,124.58234 12.942455,111.98097 19.810849,65.007748 53.651569,27.323744 99.706037,15.363669 113.25571,11.844898 132.70724,11.061447 147.03585,13.457361 207.51752,23.570617 249.77409,78.291304 243.99594,139.01708 239.18003,189.63015 202.72415,230.92576 153,242.09325 c -11.54695,2.59332 -31.09379,3.25089 -42.25816,1.42161 z m 39.0886,-75.69144 c 14.38629,-13.86746 16.84457,-17.1318 15.79391,-20.97265 C 165.27067,145.55785 149.48004,128.75 130.53406,109.5 L 96.086833,74.5 96.043416,108.09028 96,141.68056 l 2.953252,5.90972 c 2.202398,4.40719 6.481418,9.40563 16.830118,19.65972 12.1109,12.00018 14.2905,13.75 17.12718,13.75 2.81104,0 5.09778,-1.78083 16.91989,-13.17658 z M 87.990945,148.25 87.98189,116.5 73.490945,131.06809 C 61.47221,143.15082 59,146.13425 59,148.55558 c 0,2.4213 2.429079,5.35282 14.237065,17.18191 7.830386,7.84438 14.355386,14.26251 14.5,14.26251 0.144614,0 0.25886,-14.2875 0.25388,-31.75 z M 215.94,100.60666 c -0.48678,-0.48677 -71.28871,7.2016 -73.88542,8.02321 -0.94422,0.29876 4.42798,6.33837 15.49301,17.41778 l 16.93843,16.96045 20.96385,-20.96386 C 206.97999,110.51413 216.20055,100.86721 215.94,100.60666 Z M 68.662931,125.75 C 82.762331,111.45371 84.361005,109.28654 83.458944,105.69244 83.134741,104.40072 76.37385,96.859802 68.434742,88.934858 L 54,74.52587 v 32.23706 C 54,124.49332 54.358967,139 54.797704,139 c 0.438737,0 6.678089,-5.9625 13.865227,-13.25 z"
       id="path1535"
       inkscape:connector-curvature="0" />
    <path
       style="fill:#a9a9a9;fill-opacity:1"
       d="M 113.5,243.923 C 82.174089,239.60702 53.612871,222.78467 34.682393,197.5 26.939797,187.15853 18.633857,169.89137 15.387536,157.38805 12.216265,145.17379 11.10542,124.54453 12.942455,111.98097 19.810849,65.007748 53.651569,27.323744 99.706037,15.363669 c 13.549673,-3.518771 33.001203,-4.302222 47.329813,-1.906308 36.9775,6.183079 68.31047,29.230705 84.88734,62.440667 10.31534,20.665663 14.22305,41.139832 12.04369,63.101972 -5.13959,51.79328 -41.92448,92.69261 -93.12925,103.54591 -9.19337,1.94862 -28.12227,2.64676 -37.33763,1.37709 z m 38.17797,-77.24503 C 165.17484,153.18109 166,152.13288 166,148.48446 c 0,-3.75363 -1.06506,-4.93851 -34.99163,-38.92797 L 96.016737,74.5 96.008368,108.09028 96,141.68056 l 2.953252,5.90972 c 2.202398,4.40719 6.481418,9.40563 16.830118,19.65972 18.67716,18.50641 16.78601,18.53655 35.8946,-0.57203 z M 87.990945,148.25 87.98189,116.5 73.490945,131.06809 C 61.47221,143.15082 59,146.13425 59,148.55558 c 0,2.4213 2.429079,5.35282 14.237065,17.18191 7.830386,7.84438 14.355386,14.26251 14.5,14.26251 0.144614,0 0.25886,-14.2875 0.25388,-31.75 z M 195.74107,122.75915 C 206.88348,111.62668 216,101.9016 216,101.14786 c 0,-0.99399 -0.89276,-1.217087 -3.25,-0.81217 -1.7875,0.30705 -18.1,2.19226 -36.25,4.18936 -18.15,1.99709 -33.65044,3.84057 -34.44542,4.09662 -0.9482,0.3054 4.37996,6.29849 15.48897,17.42193 9.31391,9.32602 17.16033,16.9564 17.43649,16.9564 0.27615,0 9.61861,-9.10838 20.76103,-20.24085 z M 68.662931,125.75 C 82.762331,111.45371 84.361005,109.28654 83.458944,105.69244 83.134741,104.40072 76.37385,96.859802 68.434742,88.934858 L 54,74.52587 v 32.23706 C 54,124.49332 54.358967,139 54.797704,139 c 0.438737,0 6.678089,-5.9625 13.865227,-13.25 z"
       id="path1533"
       inkscape:connector-curvature="0" />
    <path
       style="fill:#a5a5a5;fill-opacity:1"
       d="M 113.5,243.923 C 82.174089,239.60702 53.612871,222.78467 34.682393,197.5 27.083508,187.35048 18.88173,170.37361 15.357796,157.5 c -2.536918,-9.26785 -2.737117,-11.39109 -2.73439,-29 0.0027,-17.3912 0.226513,-19.82929 2.64332,-28.793963 C 26.635858,57.53447 58.072117,26.220867 100,15.303369 c 11.82456,-3.078968 31.78215,-4.150182 44.01009,-2.362221 44.82022,6.553583 80.954,36.972799 94.93334,79.919615 3.92278,12.051417 5.37031,21.683367 5.35602,35.639237 -0.057,55.63375 -38.35399,102.36532 -93.46182,114.04591 -9.19337,1.94862 -28.12227,2.64676 -37.33763,1.37709 z m 38.17797,-77.24503 C 165.17484,153.18109 166,152.13288 166,148.48446 c 0,-3.75363 -1.06506,-4.93851 -34.99163,-38.92797 L 96.016737,74.5 l -0.0076,33.5 -0.0076,33.5 2.881601,6 c 2.247392,4.67946 5.951352,9.02623 16.829332,19.75 18.76745,18.50141 16.8617,18.53172 35.96546,-0.57203 z M 87.990945,148.25 87.98189,116.5 73.490945,131.06809 C 61.47221,143.15082 59,146.13425 59,148.55558 c 0,2.4213 2.429079,5.35282 14.237065,17.18191 7.830386,7.84438 14.355386,14.26251 14.5,14.26251 0.144614,0 0.25886,-14.2875 0.25388,-31.75 z M 195.74107,122.75915 C 206.88348,111.62668 216,101.9016 216,101.14786 c 0,-0.99399 -0.89276,-1.217087 -3.25,-0.81217 -1.7875,0.30705 -18.1,2.19226 -36.25,4.18936 -18.15,1.99709 -33.65044,3.84057 -34.44542,4.09662 -0.9482,0.3054 4.37996,6.29849 15.48897,17.42193 9.31391,9.32602 17.16033,16.9564 17.43649,16.9564 0.27615,0 9.61861,-9.10838 20.76103,-20.24085 z M 68.655898,125.75 C 82.74664,111.52843 84.37121,109.3272 83.458944,105.69244 83.134741,104.40072 76.37385,96.859802 68.434742,88.934858 L 54,74.52587 v 32.23706 C 54,124.49332 54.343752,139 54.763894,139 c 0.420141,0 6.671543,-5.9625 13.892004,-13.25 z"
       id="path1531"
       inkscape:connector-curvature="0" />
    <path
       style="fill:#a2a2a2;fill-opacity:1"
       d="M 113.5,243.87264 C 83.153144,240.08201 53.502082,222.63669 34.682393,197.5 27.083508,187.35048 18.88173,170.37361 15.357796,157.5 c -2.536918,-9.26785 -2.737117,-11.39109 -2.73439,-29 0.0027,-17.3912 0.226513,-19.82929 2.64332,-28.793963 C 26.635858,57.53447 58.072117,26.220867 100,15.303369 c 11.82456,-3.078968 31.78215,-4.150182 44.01009,-2.362221 44.74692,6.542865 80.97686,37.043036 94.93334,79.919615 7.45278,22.896157 7.23606,49.407847 -0.59551,72.849047 -17.28113,51.72531 -70.37707,84.96678 -124.84792,78.16283 z m 38.17797,-77.19467 C 165.17484,153.18109 166,152.13288 166,148.48446 c 0,-3.75363 -1.06506,-4.93851 -34.99163,-38.92797 L 96.016737,74.5 l -0.0076,33.5 -0.0076,33.5 2.881601,6 c 2.247392,4.67946 5.951352,9.02623 16.829332,19.75 18.76745,18.50141 16.8617,18.53172 35.96546,-0.57203 z M 87.990945,148.25 87.98189,116.5 73.490945,131.06809 C 61.47221,143.15082 59,146.13425 59,148.55558 c 0,2.4213 2.429079,5.35282 14.237065,17.18191 7.830386,7.84438 14.355386,14.26251 14.5,14.26251 0.144614,0 0.25886,-14.2875 0.25388,-31.75 z M 195.74107,122.75915 C 206.88348,111.62668 216,101.9016 216,101.14786 c 0,-0.99399 -0.89276,-1.217087 -3.25,-0.81217 -1.7875,0.30705 -18.1,2.19226 -36.25,4.18936 -18.15,1.99709 -33.65044,3.84057 -34.44542,4.09662 -0.9482,0.3054 4.37996,6.29849 15.48897,17.42193 9.31391,9.32602 17.16033,16.9564 17.43649,16.9564 0.27615,0 9.61861,-9.10838 20.76103,-20.24085 z M 68.655898,125.75 C 82.74664,111.52843 84.37121,109.3272 83.458944,105.69244 83.134741,104.40072 76.37385,96.859802 68.434742,88.934858 L 54,74.52587 v 32.23706 C 54,124.49332 54.343752,139 54.763894,139 c 0.420141,0 6.671543,-5.9625 13.892004,-13.25 z"
       id="path1529"
       inkscape:connector-curvature="0" />
    <path
       style="fill:#9e9e9e;fill-opacity:1"
       d="M 115.60482,243.90145 C 77.159331,239.8475 42.696438,216.12679 24.739712,181.35926 15.211811,162.91149 11.395701,145.07605 12.27547,123.10485 14.341618,71.505213 49.342452,28.493963 100,15.303369 c 11.82456,-3.078968 31.78215,-4.150182 44.01009,-2.362221 44.6197,6.524262 80.98908,37.085244 94.86681,79.716017 3.99615,12.275725 5.43866,21.842765 5.40433,35.842835 -0.14737,60.10989 -45.16287,109.67888 -104.87664,115.4853 -11.16814,1.08597 -12.75901,1.08036 -23.79977,-0.0838 z m 36.04644,-77.16314 C 165.26515,153.20701 166,152.27526 166,148.5448 c 0,-3.83294 -0.87994,-4.81338 -34.99163,-38.98831 L 96.016737,74.5 l -0.0076,33.5 -0.0076,33.5 2.881601,6 c 2.247392,4.67946 5.951352,9.02623 16.829332,19.75 18.73754,18.47192 16.81168,18.49934 35.93875,-0.51169 z M 87.990945,148.25 87.98189,116.5 73.490945,131.06809 C 61.47221,143.15082 59,146.13425 59,148.55558 c 0,2.4213 2.429079,5.35282 14.237065,17.18191 7.830386,7.84438 14.355386,14.26251 14.5,14.26251 0.144614,0 0.25886,-14.2875 0.25388,-31.75 z M 196.46219,122.0141 c 11.49464,-11.54224 20.66553,-21.21972 20.37974,-21.5055 -0.52045,-0.520458 -74.94208,7.53921 -75.79477,8.20837 C 140.55164,109.10584 174.13952,143 175.02039,143 c 0.29835,0 9.94716,-9.44365 21.4418,-20.9859 z M 68.655898,125.75 C 82.74664,111.52843 84.37121,109.3272 83.458944,105.69244 83.134741,104.40072 76.37385,96.859802 68.434742,88.934858 L 54,74.52587 v 32.23706 C 54,124.49332 54.343752,139 54.763894,139 c 0.420141,0 6.671543,-5.9625 13.892004,-13.25 z"
       id="path1527"
       inkscape:connector-curvature="0" />
    <path
       style="fill:#9b9b9b;fill-opacity:1"
       d="M 120,244.39108 C 97.083426,241.91597 80.692437,236.30279 64.054396,225.23222 16.830771,193.8107 -0.86743194,133.63015 21.737408,81.338534 39.814297,39.521392 82.162042,11.988602 128.38099,12.003195 c 80.8179,0.02552 136.58446,80.532249 108.70336,156.928295 -13.62239,37.32623 -46.72639,65.49145 -86.31696,73.43935 -7.64087,1.53393 -24.82378,2.66218 -30.76739,2.02024 z m 31.65126,-77.65277 C 165.26515,153.20701 166,152.27526 166,148.5448 c 0,-3.83294 -0.87994,-4.81338 -34.99163,-38.98831 L 96.016737,74.5 l -0.0084,33.07186 c -0.0071,28.07235 0.24076,33.81685 1.639617,38 1.37488,4.11145 4.152446,7.45538 16.760526,20.17814 20.09021,20.27295 17.8989,20.2148 37.24275,0.98831 z M 88,148.26293 V 116.52587 L 73.5,131 C 61.27112,143.20706 59,145.94408 59,148.47455 c 0,2.52555 2.253323,5.25778 14.237065,17.26294 C 81.067451,173.58187 87.592451,180 87.737065,180 87.881679,180 88,165.71832 88,148.26293 Z M 196.46219,122.0141 c 11.49464,-11.54224 20.66553,-21.21972 20.37974,-21.5055 -0.52045,-0.520458 -74.94208,7.53921 -75.79477,8.20837 C 140.55164,109.10584 174.13952,143 175.02039,143 c 0.29835,0 9.94716,-9.44365 21.4418,-20.9859 z M 68.655898,125.75 C 82.55748,111.71935 84.501478,109.1087 83.618071,105.65686 83.314476,104.47059 76.526212,96.980821 68.53304,89.012935 L 54,74.52587 v 32.23706 C 54,124.49332 54.343752,139 54.763894,139 c 0.420141,0 6.671543,-5.9625 13.892004,-13.25 z"
       id="path1525"
       inkscape:connector-curvature="0" />
    <path
       style="fill:#979797;fill-opacity:1"
       d="M 120.5,244.38981 C 98.374042,242.34254 80.810936,236.38164 64.054396,225.23222 16.91852,193.86909 -0.86314149,133.56495 21.672603,81.5 39.808448,39.60026 81.894609,12.101173 128,12.025704 c 60.11504,-0.0984 109.8842,45.256599 115.94332,105.660006 1.11315,11.09698 0.17206,25.69324 -2.36071,36.6143 -10.43038,44.97495 -47.01114,80.06383 -91.8728,88.12596 -8.96392,1.61091 -22.89878,2.54778 -29.20981,1.96384 z m 31.15126,-77.6515 C 165.26515,153.20701 166,152.27526 166,148.5448 c 0,-3.83294 -0.87994,-4.81338 -34.99163,-38.98831 L 96.016737,74.5 l -0.0084,33.07186 c -0.0071,28.07235 0.24076,33.81685 1.639617,38 1.37488,4.11145 4.152446,7.45538 16.760526,20.17814 20.09021,20.27295 17.8989,20.2148 37.24275,0.98831 z M 88,148.26293 V 116.52587 L 73.5,131 C 61.27112,143.20706 59,145.94408 59,148.47455 c 0,2.52555 2.253323,5.25778 14.237065,17.26294 C 81.067451,173.58187 87.592451,180 87.737065,180 87.881679,180 88,165.71832 88,148.26293 Z M 196.46219,122.0141 c 11.49464,-11.54224 20.66553,-21.21972 20.37974,-21.5055 -0.52045,-0.520458 -74.94208,7.53921 -75.79477,8.20837 C 140.55164,109.10584 174.13952,143 175.02039,143 c 0.29835,0 9.94716,-9.44365 21.4418,-20.9859 z M 68.655898,125.75 C 82.55748,111.71935 84.501478,109.1087 83.618071,105.65686 83.314476,104.47059 76.526212,96.980821 68.53304,89.012935 L 54,74.52587 v 32.23706 C 54,124.49332 54.343752,139 54.763894,139 c 0.420141,0 6.671543,-5.9625 13.892004,-13.25 z"
       id="path1523"
       inkscape:connector-curvature="0" />
    <path
       style="fill:#939393;fill-opacity:1"
       d="M 120.5,244.38981 C 103.64717,242.83045 90.393318,239.2108 76.656067,232.41596 42.225632,215.38568 18.580441,182.57744 12.941148,144.01009 11.297193,132.76702 12.269384,111.9372 14.940522,101.17218 27.93428,48.805698 74.469158,12.113327 128,12.025704 c 60.09311,-0.09836 109.88641,45.278637 115.94332,105.660006 2.20184,21.9501 -2.90492,46.88428 -13.54769,66.14774 -11.12995,20.14525 -30.49196,38.75659 -50.89563,48.9224 -16.26159,8.10209 -42.10217,13.19748 -59,11.63396 z m 31.21186,-77.67795 C 165.25152,153.17221 166,152.21773 166,148.49128 c 0,-3.83438 -0.87272,-4.806 -34.99601,-38.96186 L 96.007977,74.5 l -0.004,33.07186 c -0.0034,28.06424 0.245544,33.81806 1.643997,38 1.37488,4.11145 4.152446,7.45538 16.760526,20.17814 20.13813,20.3213 17.99907,20.26615 37.30335,0.96186 z M 88,148.26293 V 116.52587 L 73.5,131 C 61.27112,143.20706 59,145.94408 59,148.47455 c 0,2.52555 2.253323,5.25778 14.237065,17.26294 C 81.067451,173.58187 87.592451,180 87.737065,180 87.881679,180 88,165.71832 88,148.26293 Z m 108.46281,-26.22571 c 11.51973,-11.52953 20.66523,-21.24252 20.32333,-21.58441 -0.6104,-0.610399 -74.85262,7.45172 -75.73898,8.22465 C 140.56861,109.09477 174.10655,143 174.9979,143 c 0.28598,0 9.94519,-9.43325 21.46491,-20.96278 z M 68.655898,125.75 C 82.55748,111.71935 84.501478,109.1087 83.618071,105.65686 83.314476,104.47059 76.526212,96.980821 68.53304,89.012935 L 54,74.52587 v 32.23706 C 54,124.49332 54.343752,139 54.763894,139 c 0.420141,0 6.671543,-5.9625 13.892004,-13.25 z"
       id="path1521"
       inkscape:connector-curvature="0" />
    <path
       style="fill:#909090;fill-opacity:1"
       d="M 120.5,244.37558 C 78.98235,240.68173 43.599044,217.63283 25.222834,182.31143 -3.5083026,127.08656 16.160912,58.822785 69.77346,27.694495 109.16322,4.8241823 158.65365,7.1801681 195.82347,33.695089 c 43.3838,30.94763 60.06924,88.282921 40.16097,138.002991 -5.97945,14.9334 -12.34665,24.60824 -24.43969,37.13559 -21.34744,22.11411 -47.43979,33.89657 -78.54475,35.46829 -4.675,0.23622 -10.3,0.26935 -12.5,0.0736 z m 31.21186,-77.66372 C 165.25152,153.17221 166,152.21773 166,148.49128 c 0,-3.83438 -0.87272,-4.806 -34.99601,-38.96186 L 96.007977,74.5 l -0.004,33.07186 c -0.0034,28.06424 0.245544,33.81806 1.643997,38 1.37488,4.11145 4.152446,7.45538 16.760526,20.17814 20.13813,20.3213 17.99907,20.26615 37.30335,0.96186 z M 88,148.26293 V 116.52587 L 73.5,131 C 61.27112,143.20706 59,145.94408 59,148.47455 c 0,2.52555 2.253323,5.25778 14.237065,17.26294 C 81.067451,173.58187 87.592451,180 87.737065,180 87.881679,180 88,165.71832 88,148.26293 Z m 108.46281,-26.22571 c 11.51973,-11.52953 20.66523,-21.24252 20.32333,-21.58441 -0.6104,-0.610399 -74.85262,7.45172 -75.73898,8.22465 C 140.56861,109.09477 174.10655,143 174.9979,143 c 0.28598,0 9.94519,-9.43325 21.46491,-20.96278 z M 68.655898,125.75 C 82.55748,111.71935 84.501478,109.1087 83.618071,105.65686 83.314476,104.47059 76.526212,96.980821 68.53304,89.012935 L 54,74.52587 v 32.23706 C 54,124.49332 54.343752,139 54.763894,139 c 0.420141,0 6.671543,-5.9625 13.892004,-13.25 z"
       id="path1519"
       inkscape:connector-curvature="0" />
    <path
       style="fill:#8c8c8c;fill-opacity:1"
       d="M 120.5,244.37558 C 83.61837,241.0942 51.727604,222.73504 31.919572,193.38081 -5.6746878,137.66853 11.570592,61.987758 69.632473,27.878051 120.02744,-1.7275629 186.17008,11.578428 221.0982,58.348586 c 7.9146,10.597958 16.20285,27.58666 19.58861,40.151414 2.50393,9.2922 2.69439,11.41559 2.69092,30 -0.003,17.42921 -0.28222,21.00649 -2.17032,27.83017 -5.63369,20.3604 -14.75397,36.74502 -28.55267,51.29494 -13.98857,14.75014 -28.06356,24.03137 -45.87986,30.25379 -13.66455,4.77241 -33.83176,7.60375 -46.27488,6.49668 z m 31.21186,-77.66372 C 165.25152,153.17221 166,152.21773 166,148.49128 c 0,-3.83438 -0.87272,-4.806 -34.99601,-38.96186 L 96.007977,74.5 l -0.004,33.07186 c -0.0034,28.06424 0.245544,33.81806 1.643997,38 1.37488,4.11145 4.152446,7.45538 16.760526,20.17814 20.13813,20.3213 17.99907,20.26615 37.30335,0.96186 z M 88,148.26293 V 116.52587 L 73.5,131 C 61.27112,143.20706 59,145.94408 59,148.47455 c 0,2.52555 2.253323,5.25778 14.237065,17.26294 C 81.067451,173.58187 87.592451,180 87.737065,180 87.881679,180 88,165.71832 88,148.26293 Z m 108.46281,-26.22571 c 11.51973,-11.52953 20.66523,-21.24252 20.32333,-21.58441 -0.6104,-0.610399 -74.85262,7.45172 -75.73898,8.22465 C 140.56861,109.09477 174.10655,143 174.9979,143 c 0.28598,0 9.94519,-9.43325 21.46491,-20.96278 z M 68.655898,125.75 C 82.55748,111.71935 84.501478,109.1087 83.618071,105.65686 83.314476,104.47059 76.526212,96.980821 68.53304,89.012935 L 54,74.52587 v 32.23706 C 54,124.49332 54.343752,139 54.763894,139 c 0.420141,0 6.671543,-5.9625 13.892004,-13.25 z"
       id="path1517"
       inkscape:connector-curvature="0" />
    <path
       style="fill:#898989;fill-opacity:1"
       d="M 116.32408,243.96969 C 97.055729,242.0236 74.007192,232.94085 58.297144,221.10297 11.240317,185.64459 -1.8501891,120.42851 27.893205,69.632473 47.729819,35.755322 82.938094,14.312748 122,12.319472 c 59.09642,-3.015611 110.54721,37.994894 120.64629,96.164998 2.3277,13.40738 1.43078,35.8682 -1.94412,48.68507 -11.5111,43.71583 -47.6604,77.53938 -91.1311,85.26798 -10.96941,1.95023 -23.42462,2.52423 -33.24699,1.53217 z m 35.38778,-77.25783 C 165.25152,153.17221 166,152.21773 166,148.49128 c 0,-3.83438 -0.87272,-4.806 -34.99601,-38.96186 L 96.007977,74.5 l -0.004,33.07186 c -0.0034,28.06424 0.245544,33.81806 1.643997,38 1.37488,4.11145 4.152446,7.45538 16.760526,20.17814 20.13813,20.3213 17.99907,20.26615 37.30335,0.96186 z M 88,148.26293 V 116.52587 L 73.5,131 C 61.27112,143.20706 59,145.94408 59,148.47455 c 0,2.52555 2.253323,5.25778 14.237065,17.26294 C 81.067451,173.58187 87.592451,180 87.737065,180 87.881679,180 88,165.71832 88,148.26293 Z m 108.46281,-26.22571 c 11.51973,-11.52953 20.65961,-21.24814 20.31084,-21.5969 -0.62358,-0.623586 -74.84277,7.44118 -75.72649,8.22856 C 140.5704,109.09366 174.10106,143 174.9979,143 c 0.28598,0 9.94519,-9.43325 21.46491,-20.96278 z M 68.655898,125.75 C 82.55748,111.71935 84.501478,109.1087 83.618071,105.65686 83.314476,104.47059 76.526212,96.980821 68.53304,89.012935 L 54,74.52587 v 32.23706 C 54,124.49332 54.343752,139 54.763894,139 c 0.420141,0 6.671543,-5.9625 13.892004,-13.25 z"
       id="path1515"
       inkscape:connector-curvature="0" />
    <path
       style="fill:#858585;fill-opacity:1"
       d="M 116,243.88409 C 89.308263,241.00071 62.069799,227.53782 43.848818,208.22262 21.819864,184.87077 10.555016,153.9213 12.31507,121.58562 14.427375,82.778382 35.879102,47.707198 69.632473,27.878051 119.9049,-1.6555727 185.56772,11.382721 220.51474,57.837885 236.5231,79.117834 244,101.62077 244,128.52052 c 0,32.10115 -11.84997,60.29149 -34.74937,82.66659 C 184.30427,235.56231 150.0734,247.56487 116,243.88409 Z m 35.71186,-77.17223 C 165.25152,153.17221 166,152.21773 166,148.49128 c 0,-3.83438 -0.87272,-4.806 -34.99601,-38.96186 L 96.007977,74.5 l -0.004,33.07186 c -0.0034,28.06424 0.245544,33.81806 1.643997,38 1.37488,4.11145 4.152446,7.45538 16.760526,20.17814 20.13813,20.3213 17.99907,20.26615 37.30335,0.96186 z M 88,148.26293 V 116.52587 L 73.5,131 C 61.27112,143.20706 59,145.94408 59,148.47455 c 0,2.52555 2.253323,5.25778 14.237065,17.26294 C 81.067451,173.58187 87.592451,180 87.737065,180 87.881679,180 88,165.71832 88,148.26293 Z m 108.46281,-26.22571 c 11.51973,-11.52953 20.65961,-21.24814 20.31084,-21.5969 -0.62358,-0.623586 -74.84277,7.44118 -75.72649,8.22856 C 140.5704,109.09366 174.10106,143 174.9979,143 c 0.28598,0 9.94519,-9.43325 21.46491,-20.96278 z M 68.655898,125.75 C 82.55748,111.71935 84.501478,109.1087 83.618071,105.65686 83.314476,104.47059 76.526212,96.980821 68.53304,89.012935 L 54,74.52587 v 32.23706 C 54,124.49332 54.343752,139 54.763894,139 c 0.420141,0 6.671543,-5.9625 13.892004,-13.25 z"
       id="path1513"
       inkscape:connector-curvature="0" />
    <path
       style="fill:#828282;fill-opacity:1"
       d="M 116,243.88409 C 89.159941,240.98469 61.497558,227.21616 43.536371,207.81642 -5.3703712,154.99262 3.9162646,72.122999 63.258603,31.824386 83.194258,18.286341 109.21269,11.054588 133.5,12.300978 163.06174,13.818044 188.75297,25.012664 209.47774,45.40729 232.24144,67.808378 244,95.940119 244,128 c 0,24.5396 -6.4895,45.96766 -20.01371,66.08445 -6.27117,9.32814 -22.10751,24.76892 -31.99582,31.19662 C 169.19475,240.09899 142.18059,246.71225 116,243.88409 Z M 88,148.76293 V 116.52587 L 73.5,131 C 54.42308,150.04288 54.442035,147.74787 73.205373,166.67251 81.018327,174.55263 87.543327,181 87.705373,181 87.867418,181 88,166.49332 88,148.76293 Z m 63.71186,17.94893 C 165.25152,153.17221 166,152.21773 166,148.49128 c 0,-3.83438 -0.87272,-4.806 -34.99601,-38.96186 L 96.007977,74.5 l -0.004,34.05366 -0.004,34.05365 2.474514,4.9657 c 1.651279,3.31368 7.249589,9.70008 16.827499,19.19635 19.24667,19.08262 17.26661,19.08575 36.40985,-0.0575 z m 44.75095,-44.67464 c 11.51973,-11.52953 20.65961,-21.24814 20.31084,-21.5969 -0.62358,-0.623586 -74.84277,7.44118 -75.72649,8.22856 C 140.5704,109.09366 174.10106,143 174.9979,143 c 0.28598,0 9.94519,-9.43325 21.46491,-20.96278 z M 69.794627,124.67251 C 81.409364,112.95792 84,109.82407 84,107.48848 84,105.14346 81.31556,101.93412 69.008784,89.565976 L 54.017567,74.5 l -0.0088,32.25 c -0.0048,17.7375 0.348798,32.25 0.785843,32.25 0.437046,0 7.187046,-6.44737 15,-14.32749 z"
       id="path1511"
       inkscape:connector-curvature="0" />
    <path
       style="fill:#7e7e7e;fill-opacity:1"
       d="M 106.65527,242.4032 C 83.425135,238.20615 59.547656,225.11008 43.47618,207.75141 5.9315759,167.19976 1.6112468,106.99953 32.988274,61.611061 39.006282,52.905704 54.133172,37.926007 62.779796,32.109426 97.19188,8.9604295 141.00312,5.7382483 178.62135,23.589639 200.71303,34.073049 221.14658,54.223364 232.27543,76.5 c 15.81443,31.65577 15.72564,71.695 -0.22982,103.6341 -5.93407,11.87864 -11.56273,19.55623 -21.959,29.95251 -17.75267,17.75267 -36.54174,27.69782 -61.14677,32.36532 -10.13799,1.92314 -31.5068,1.89852 -42.28457,-0.0487 z M 88,148.76293 V 116.52587 L 73.5,131 C 54.42308,150.04288 54.442035,147.74787 73.205373,166.67251 81.018327,174.55263 87.543327,181 87.705373,181 87.867418,181 88,166.49332 88,148.76293 Z m 63.71186,17.94893 C 165.25152,153.17221 166,152.21773 166,148.49128 c 0,-3.83438 -0.87272,-4.806 -34.99601,-38.96186 L 96.007977,74.5 l -0.004,34.05366 -0.004,34.05365 2.474514,4.9657 c 1.651279,3.31368 7.249589,9.70008 16.827499,19.19635 19.24667,19.08262 17.26661,19.08575 36.40985,-0.0575 z m 44.75095,-44.67464 c 11.51973,-11.52953 20.65789,-21.24985 20.30703,-21.60071 -0.63499,-0.634996 -74.85976,7.41976 -75.72268,8.21731 -0.4737,0.4378 33.04428,34.34618 33.95074,34.34618 0.28598,0 9.94519,-9.43325 21.46491,-20.96278 z M 69.794627,124.67251 C 81.409364,112.95792 84,109.82407 84,107.48848 84,105.14346 81.31556,101.93412 69.008784,89.565976 L 54.017567,74.5 l -0.0088,32.25 c -0.0048,17.7375 0.348798,32.25 0.785843,32.25 0.437046,0 7.187046,-6.44737 15,-14.32749 z"
       id="path1509"
       inkscape:connector-curvature="0" />
    <path
       style="fill:#7a7a7a;fill-opacity:1"
       d="M 106.65527,242.4032 C 84.112254,238.33029 63.508646,227.41053 46.459706,210.5 6.27834,170.64483 0.64605758,108.39573 32.988274,61.611061 39.006282,52.905704 54.133172,37.926007 62.779796,32.109426 95.151357,10.333088 136.16162,6.050935 172,20.705022 c 69.37716,28.367884 94.12835,114.615198 50.3438,175.426598 -17.40189,24.1691 -43.5221,40.65182 -73.40396,46.32031 -10.13799,1.92314 -31.5068,1.89852 -42.28457,-0.0487 z M 88,148.76293 V 116.52587 L 73.5,131 C 54.42308,150.04288 54.442035,147.74787 73.205373,166.67251 81.018327,174.55263 87.543327,181 87.705373,181 87.867418,181 88,166.49332 88,148.76293 Z m 63.71186,17.94893 C 165.25152,153.17221 166,152.21773 166,148.49128 c 0,-3.83438 -0.87272,-4.806 -34.99601,-38.96186 L 96.007977,74.5 l -0.004,34.05366 -0.004,34.05365 2.474514,4.9657 c 1.651279,3.31368 7.249589,9.70008 16.827499,19.19635 19.24667,19.08262 17.26661,19.08575 36.40985,-0.0575 z m 44.75095,-44.67464 c 11.51973,-11.52953 20.65789,-21.24985 20.30703,-21.60071 -0.63499,-0.634996 -74.85976,7.41976 -75.72268,8.21731 -0.4737,0.4378 33.04428,34.34618 33.95074,34.34618 0.28598,0 9.94519,-9.43325 21.46491,-20.96278 z M 69.794627,124.67251 C 81.409364,112.95792 84,109.82407 84,107.48848 84,105.14346 81.31556,101.93412 69.008784,89.565976 L 54.017567,74.5 l -0.0088,32.25 c -0.0048,17.7375 0.348798,32.25 0.785843,32.25 0.437046,0 7.187046,-6.44737 15,-14.32749 z"
       id="path1507"
       inkscape:connector-curvature="0" />
    <path
       style="fill:#777777;fill-opacity:1"
       d="M 107.17842,242.49304 C 76.736816,236.97791 48.740019,218.43597 31.301516,192.2407 5.1060045,152.89107 5.7763786,100.97446 32.988274,61.611061 39.032234,52.868163 54.143509,37.919284 62.877393,32.043149 109.116,0.93393379 171.41866,7.0010401 210.52221,46.420976 c 45.36077,45.727786 44.73114,120.282884 -1.39207,164.835854 -17.39994,16.80757 -37.5573,27.19164 -60.57605,31.20578 -10.66345,1.85955 -31.19624,1.87465 -41.37567,0.0304 z M 88,148.76293 V 116.52587 L 73.5,131 C 54.42308,150.04288 54.442035,147.74787 73.205373,166.67251 81.018327,174.55263 87.543327,181 87.705373,181 87.867418,181 88,166.49332 88,148.76293 Z m 63.71186,17.94893 C 165.25152,153.17221 166,152.21773 166,148.49128 c 0,-3.83438 -0.87272,-4.806 -34.99601,-38.96186 L 96.007977,74.5 l -0.004,34.05366 -0.004,34.05365 2.474514,4.9657 c 1.651279,3.31368 7.249589,9.70008 16.827499,19.19635 19.24667,19.08262 17.26661,19.08575 36.40985,-0.0575 z m 44.75095,-44.67464 c 11.51973,-11.52953 20.65789,-21.24985 20.30703,-21.60071 -0.63499,-0.634996 -74.85976,7.41976 -75.72268,8.21731 -0.4737,0.4378 33.04428,34.34618 33.95074,34.34618 0.28598,0 9.94519,-9.43325 21.46491,-20.96278 z M 84,107.5 c 0,-2.35986 -2.656271,-5.53757 -14.991216,-17.934024 L 54.017567,74.5 v 33 33 L 69.008784,125.43402 C 81.343729,113.03757 84,109.85986 84,107.5 Z"
       id="path1505"
       inkscape:connector-curvature="0" />
    <path
       style="fill:#737373;fill-opacity:1"
       d="M 107.17842,242.49304 C 40.168911,230.35286 -2.3308826,161.71812 16.603181,96.219211 19.655449,85.660453 26.223859,71.505744 32.057989,62.914607 37.60311,54.749055 50.630083,41.19322 58.968332,34.911772 104.34241,0.73015221 170.15595,5.7281209 210.52221,46.420976 c 30.57567,30.823057 41.51512,77.147424 27.89489,118.124094 -13.44852,40.46008 -48.28672,70.66724 -89.86301,77.91754 -10.66345,1.85955 -31.19624,1.87465 -41.37567,0.0304 z M 88,148.76293 V 116.52587 L 73.5,131 C 54.42308,150.04288 54.442035,147.74787 73.205373,166.67251 81.018327,174.55263 87.543327,181 87.705373,181 87.867418,181 88,166.49332 88,148.76293 Z m 63.71186,17.94893 C 165.25152,153.17221 166,152.21773 166,148.49128 c 0,-3.83438 -0.87272,-4.806 -34.99601,-38.96186 L 96.007977,74.5 l -0.004,34.05366 -0.004,34.05365 2.474514,4.9657 c 1.651279,3.31368 7.249589,9.70008 16.827499,19.19635 19.24667,19.08262 17.26661,19.08575 36.40985,-0.0575 z m 44.75095,-44.67464 c 11.51973,-11.52953 20.65577,-21.25197 20.30232,-21.60543 -0.35346,-0.35345 -17.79017,1.29263 -38.74824,3.65795 l -38.1056,4.30059 17.28364,17.30484 c 9.506,9.51766 17.51748,17.30483 17.80328,17.30483 0.28581,0 9.94488,-9.43325 21.4646,-20.96278 z M 84,107.5 c 0,-2.35986 -2.656271,-5.53757 -14.991216,-17.934024 L 54.017567,74.5 v 33 33 L 69.008784,125.43402 C 81.343729,113.03757 84,109.85986 84,107.5 Z"
       id="path1503"
       inkscape:connector-curvature="0" />
    <path
       style="fill:#707070;fill-opacity:1"
       d="M 105.49009,242.02552 C 37.192569,228.33633 -4.017703,157.55906 18.016248,91.792112 24.313117,72.997214 33.595816,58.423909 48.203349,44.400094 58.321247,34.686507 66.271878,29.163173 78.377393,23.438069 123.4722,2.1112256 176.162,11.50315 211.14929,47.104576 c 12.23061,12.445297 21.32839,27.253005 26.82614,43.66271 20.56356,61.378114 -12.14724,127.144284 -73.43036,147.634224 -17.34905,5.80064 -40.965,7.24987 -59.05498,3.62401 z M 88,148.76293 V 116.52587 L 73.5,131 C 54.42308,150.04288 54.442035,147.74787 73.205373,166.67251 81.018327,174.55263 87.543327,181 87.705373,181 87.867418,181 88,166.49332 88,148.76293 Z m 63.71186,17.94893 C 165.25152,153.17221 166,152.21773 166,148.49128 c 0,-3.83438 -0.87272,-4.806 -34.99601,-38.96186 L 96.007977,74.5 l -0.004,34.05366 -0.004,34.05365 2.474514,4.9657 c 1.651279,3.31368 7.249589,9.70008 16.827499,19.19635 19.24667,19.08262 17.26661,19.08575 36.40985,-0.0575 z m 44.75095,-44.67464 c 11.51973,-11.52953 20.65577,-21.25197 20.30232,-21.60543 -0.35346,-0.35345 -17.79017,1.29263 -38.74824,3.65795 l -38.1056,4.30059 17.28364,17.30484 c 9.506,9.51766 17.51748,17.30483 17.80328,17.30483 0.28581,0 9.94488,-9.43325 21.4646,-20.96278 z M 84,107.5 c 0,-2.35986 -2.656271,-5.53757 -14.991216,-17.934024 L 54.017567,74.5 v 33 33 L 69.008784,125.43402 C 81.343729,113.03757 84,109.85986 84,107.5 Z"
       id="path1501"
       inkscape:connector-curvature="0" />
    <path
       style="fill:#6c6c6c;fill-opacity:1"
       d="M 105.49009,242.02552 C 31.444969,227.18431 -8.8911224,146.73625 23.438069,78.377393 29.06636,66.476585 34.578263,58.474936 43.904574,48.666097 69.279595,21.978213 104.18382,9.0394735 140.30356,12.931699 166.9066,15.798414 191.30687,27.373632 210.01072,46 c 13.90691,13.849302 24.05583,30.847054 29.37266,49.194315 3.81825,13.175985 4.95747,23.400555 4.31107,38.691955 -2.0337,48.10922 -33.08682,89.11428 -79.14938,104.51524 -17.34905,5.80064 -40.965,7.24987 -59.05498,3.62401 z M 89,148.44098 C 89,131.14844 88.656679,117 88.237065,117 c -1.331912,0 -29.087444,28.43324 -29.284945,30 -0.103997,0.825 -0.135768,2.36513 -0.0706,3.42251 0.136379,2.21289 28.019256,30.75685 29.282107,29.97637 C 88.623631,180.11458 89,165.73352 89,148.44098 Z m 62.71186,18.27088 C 165.24695,153.17678 166,152.21667 166,148.49499 c 0,-3.82857 -0.88552,-4.8156 -34.73083,-38.71187 C 112.16722,90.652406 96.169705,75 95.71914,75 c -0.450565,0 -0.684194,14.9625 -0.519175,33.25 0.37445,41.49669 -0.927077,37.65504 19.684725,58.10241 19.72365,19.5663 17.64066,19.54597 36.82717,0.35945 z m 44.75095,-44.67464 c 11.51973,-11.52953 20.65577,-21.25197 20.30232,-21.60543 -0.35346,-0.35345 -17.79017,1.29263 -38.74824,3.65795 l -38.1056,4.30059 17.28364,17.30484 c 9.506,9.51766 17.51748,17.30483 17.80328,17.30483 0.28581,0 9.94488,-9.43325 21.4646,-20.96278 z M 84,107.5 c 0,-2.35986 -2.656271,-5.53757 -14.991216,-17.934024 L 54.017567,74.5 v 33 33 L 69.008784,125.43402 C 81.343729,113.03757 84,109.85986 84,107.5 Z"
       id="path1499"
       inkscape:connector-curvature="0" />
    <path
       style="fill:#686868;fill-opacity:1"
       d="M 105.5,241.96711 C 82.486032,237.12865 63.163752,226.93144 47.104576,211.14929 31.008312,195.33069 21.506081,178.60529 15.252732,155.08509 13.0561,146.82308 12.691972,143.29143 12.614809,129.5 12.547024,117.38498 12.974906,111.4361 14.377006,105 19.183208,82.937942 28.843031,64.534458 43.986712,48.588848 69.243349,21.994753 104.22583,9.044001 140.30356,12.931699 c 40.40903,4.354434 75.24169,28.997029 92.70393,65.584 13.07676,27.398491 14.56485,59.829251 4.11662,89.715931 -13.13494,37.57189 -48.70388,67.2789 -88.96003,74.29899 -11.76367,2.05141 -31.46396,1.79121 -42.66408,-0.56351 z m 46.71306,-75.74064 C 165.07,153.28735 166.40027,151.40293 166.11515,146.53312 166.00425,144.63883 97.472418,75 95.71914,75 c -0.450565,0 -0.684194,14.9625 -0.519175,33.25 0.373938,41.43995 -0.929064,37.58385 19.586805,57.96513 8.09227,8.03919 15.61323,14.79421 16.71323,15.01116 4.08012,0.80468 7.39225,-1.59387 20.71306,-14.99982 z M 89,148.44098 C 89,131.14844 88.656679,117 88.237065,117 c -1.331912,0 -29.087444,28.43324 -29.284945,30 -0.103997,0.825 -0.135768,2.36513 -0.0706,3.42251 0.136379,2.21289 28.019256,30.75685 29.282107,29.97637 C 88.623631,180.11458 89,165.73352 89,148.44098 Z m 107.46281,-26.40376 c 11.51973,-11.52953 20.61849,-21.28926 20.21946,-21.68828 -0.64337,-0.643369 -17.30177,1.03714 -63.014,6.35688 l -13.83174,1.60966 17.32102,17.34226 C 166.68411,135.19598 174.71241,143 174.99821,143 c 0.28581,0 9.94488,-9.43325 21.4646,-20.96278 z M 84,107.5 c 0,-2.35986 -2.656271,-5.53757 -14.991216,-17.934024 L 54.017567,74.5 v 33 33 L 69.008784,125.43402 C 81.343729,113.03757 84,109.85986 84,107.5 Z"
       id="path1497"
       inkscape:connector-curvature="0" />
    <path
       style="fill:#656565;fill-opacity:1"
       d="M 105.05834,241.9385 C 63.943793,233.0411 31.670688,204.72343 18.494609,165.98415 10.382692,142.13412 10.450164,112.57612 18.668772,89.68801 32.433213,51.355238 66.150088,21.921124 104.65041,14.627865 144.0208,7.1697876 182.27104,18.559477 210.00812,46 c 44.2274,43.754533 45.50359,115.7718 2.8607,161.43339 C 197.32389,224.07875 179.22188,234.6249 155,241.1475 c -11.56496,3.11428 -37.32086,3.52221 -49.94166,0.791 z m 47.15472,-75.71203 C 165.07,153.28735 166.40027,151.40293 166.11515,146.53312 166.00425,144.63883 97.472418,75 95.71914,75 c -0.450565,0 -0.684194,14.9625 -0.519175,33.25 0.373938,41.43995 -0.929064,37.58385 19.586805,57.96513 8.09227,8.03919 15.61323,14.79421 16.71323,15.01116 4.08012,0.80468 7.39225,-1.59387 20.71306,-14.99982 z M 89,148.44098 C 89,131.14844 88.656679,117 88.237065,117 c -1.331912,0 -29.087444,28.43324 -29.284945,30 -0.103997,0.825 -0.135768,2.36513 -0.0706,3.42251 0.136379,2.21289 28.019256,30.75685 29.282107,29.97637 C 88.623631,180.11458 89,165.73352 89,148.44098 Z m 107.46281,-26.40376 c 11.51973,-11.52953 20.61849,-21.28926 20.21946,-21.68828 -0.64337,-0.643369 -17.30177,1.03714 -63.014,6.35688 l -13.83174,1.60966 17.32102,17.34226 C 166.68411,135.19598 174.71241,143 174.99821,143 c 0.28581,0 9.94488,-9.43325 21.4646,-20.96278 z M 84,107.5 c 0,-2.35986 -2.656271,-5.53757 -14.991216,-17.934024 L 54.017567,74.5 v 33 33 L 69.008784,125.43402 C 81.343729,113.03757 84,109.85986 84,107.5 Z"
       id="path1495"
       inkscape:connector-curvature="0" />
    <path
       style="fill:#616161;fill-opacity:1"
       d="M 105.5,242.02899 C 88.627315,238.36567 77.295343,233.60803 63.108884,224.23139 43.365883,211.18211 26.284204,188.83891 18.434287,165.79607 10.38562,142.16981 10.477027,112.50131 18.668772,89.68801 32.433213,51.355238 66.150088,21.921124 104.65041,14.627865 144.0208,7.1697876 182.27104,18.559477 210.00812,46 c 44.43795,43.962832 45.44389,116.32146 2.25361,162.10544 -15.21168,16.12518 -33.38685,26.6129 -57.26173,33.04206 -11.361,3.05936 -37.33839,3.52196 -49.5,0.88149 z m 46.71306,-75.80252 C 165.07,153.28735 166.40027,151.40293 166.11515,146.53312 166.00425,144.63883 97.472418,75 95.71914,75 c -0.450565,0 -0.684194,14.9625 -0.519175,33.25 0.373938,41.43995 -0.929064,37.58385 19.586805,57.96513 8.09227,8.03919 15.61323,14.79421 16.71323,15.01116 4.08012,0.80468 7.39225,-1.59387 20.71306,-14.99982 z M 89,148.5 C 89,130.625 88.656471,116 88.236603,116 c -1.484628,0 -28.16387,27.53667 -29.065873,30 -0.555357,1.51666 -0.552876,3.48334 0.0063,5 0.909583,2.46703 27.579453,30 29.059565,30 C 88.656471,181 89,166.375 89,148.5 Z m 107.46281,-26.46278 c 11.51973,-11.52953 20.61849,-21.28926 20.21946,-21.68828 -0.64337,-0.643369 -17.30177,1.03714 -63.014,6.35688 l -13.83174,1.60966 17.32102,17.34226 C 166.68411,135.19598 174.71241,143 174.99821,143 c 0.28581,0 9.94488,-9.43325 21.4646,-20.96278 z M 84,107.07344 C 84,104.17885 82.278619,102.03171 69.822587,89.389415 62.025009,81.475237 55.275009,75 54.822587,75 c -0.452423,0 -0.818634,14.7375 -0.813803,32.75 l 0.0088,32.75 14.991217,-15.06598 C 82.248311,112.12847 84,109.98308 84,107.07344 Z"
       id="path1493"
       inkscape:connector-curvature="0" />
    <path
       style="fill:#5e5e5e;fill-opacity:1"
       d="M 110.5,242.8915 C 63.222458,236.07867 24.558493,199.02444 14.403693,150.79607 12.244201,140.53996 11.982245,118.60003 13.89272,108 18.167883,84.279799 28.934885,63.887479 46.411182,46.411182 74.782376,18.039988 113.93407,6.4912218 153,14.970156 c 52.9666,11.495956 91,58.682051 91,112.899034 0,58.01247 -42.44999,107.1326 -99.43433,115.05839 -8.89295,1.2369 -25.35283,1.21946 -34.06567,-0.0361 z m 41.71306,-76.66503 C 165.07,153.28735 166.40027,151.40293 166.11515,146.53312 166.00425,144.63883 97.472418,75 95.71914,75 c -0.450565,0 -0.684194,14.9625 -0.519175,33.25 0.373938,41.43995 -0.929064,37.58385 19.586805,57.96513 8.09227,8.03919 15.61323,14.79421 16.71323,15.01116 4.08012,0.80468 7.39225,-1.59387 20.71306,-14.99982 z M 89,148.5 C 89,130.625 88.656471,116 88.236603,116 c -1.484628,0 -28.16387,27.53667 -29.065873,30 -0.555357,1.51666 -0.552876,3.48334 0.0063,5 0.909583,2.46703 27.579453,30 29.059565,30 C 88.656471,181 89,166.375 89,148.5 Z m 107.46281,-26.46278 c 11.51973,-11.52953 20.61755,-21.2902 20.21738,-21.69037 -0.57103,-0.571024 -49.12884,4.3776 -72.52125,7.39079 l -4.34106,0.55917 17.33034,17.3516 C 166.67991,135.19178 174.71241,143 174.99821,143 c 0.28581,0 9.94488,-9.43325 21.4646,-20.96278 z M 84,107.07344 C 84,104.17885 82.278619,102.03171 69.822587,89.389415 62.025009,81.475237 55.275009,75 54.822587,75 c -0.452423,0 -0.818634,14.7375 -0.813803,32.75 l 0.0088,32.75 14.991217,-15.06598 C 82.248311,112.12847 84,109.98308 84,107.07344 Z"
       id="path1491"
       inkscape:connector-curvature="0" />
    <path
       style="fill:#5a5a5a;fill-opacity:1"
       d="M 110.5,242.8915 C 87.773219,239.61651 63.635719,227.51448 47.019481,211.06372 7.1734215,171.61448 0.89931857,109.86321 32.01814,63.416819 38.810695,53.278592 53.278592,38.810695 63.416819,32.01814 103.58699,5.1043486 156.13684,5.8105871 195.5,33.793259 c 40.05083,28.471528 57.65644,79.484471 43.86111,127.089271 -12.52241,43.2122 -50.22808,75.8463 -94.79544,82.04505 -8.89295,1.2369 -25.35283,1.21946 -34.06567,-0.0361 z m 41.71306,-76.66503 C 165.07,153.28735 166.40027,151.40293 166.11515,146.53312 166.00425,144.63883 97.472418,75 95.71914,75 c -0.450565,0 -0.684194,14.9625 -0.519175,33.25 0.373938,41.43995 -0.929064,37.58385 19.586805,57.96513 8.09227,8.03919 15.61323,14.79421 16.71323,15.01116 4.08012,0.80468 7.39225,-1.59387 20.71306,-14.99982 z M 89,148.5 C 89,130.625 88.656471,116 88.236603,116 c -1.484628,0 -28.16387,27.53667 -29.065873,30 -0.555357,1.51666 -0.552876,3.48334 0.0063,5 0.909583,2.46703 27.579453,30 29.059565,30 C 88.656471,181 89,166.375 89,148.5 Z m 107.46281,-26.46278 c 11.51973,-11.52953 20.61755,-21.2902 20.21738,-21.69037 -0.57103,-0.571024 -49.12884,4.3776 -72.52125,7.39079 l -4.34106,0.55917 17.33034,17.3516 C 166.67991,135.19178 174.71241,143 174.99821,143 c 0.28581,0 9.94488,-9.43325 21.4646,-20.96278 z M 84,107.07344 C 84,104.17885 82.278619,102.03171 69.822587,89.389415 62.025009,81.475237 55.275009,75 54.822587,75 c -0.452423,0 -0.818634,14.7375 -0.813803,32.75 l 0.0088,32.75 14.991217,-15.06598 C 82.248311,112.12847 84,109.98308 84,107.07344 Z"
       id="path1489"
       inkscape:connector-curvature="0" />
    <path
       style="fill:#575757;fill-opacity:1"
       d="M 109,242.58298 C 83.780412,238.0483 63.462215,227.39096 45.481906,209.26633 7.008423,170.48404 1.3502233,109.19021 32.01814,63.416819 38.810695,53.278592 53.278592,38.810695 63.416819,32.01814 109.18904,1.3510124 170.48504,7.009413 209.26633,45.481906 c 24.39534,24.201092 36.03301,54.096372 34.43449,88.456614 -2.38637,51.29514 -37.17689,93.67656 -87.62705,106.74629 -11.93286,3.09135 -35.21636,4.03022 -47.07377,1.89817 z m 43.21306,-76.35651 C 165.07,153.28735 166.40027,151.40293 166.11515,146.53312 166.00425,144.63883 97.472418,75 95.71914,75 c -0.450565,0 -0.684194,14.9625 -0.519175,33.25 0.373938,41.43995 -0.929064,37.58385 19.586805,57.96513 8.09227,8.03919 15.61323,14.79421 16.71323,15.01116 4.08012,0.80468 7.39225,-1.59387 20.71306,-14.99982 z M 89,148.5 C 89,130.625 88.656471,116 88.236603,116 c -1.484628,0 -28.16387,27.53667 -29.065873,30 -0.555357,1.51666 -0.552876,3.48334 0.0063,5 0.909583,2.46703 27.579453,30 29.059565,30 C 88.656471,181 89,166.375 89,148.5 Z m 107.46281,-26.46278 c 11.51973,-11.52953 20.61755,-21.2902 20.21738,-21.69037 -0.57103,-0.571024 -49.12884,4.3776 -72.52125,7.39079 l -4.34106,0.55917 17.33034,17.3516 C 166.67991,135.19178 174.71241,143 174.99821,143 c 0.28581,0 9.94488,-9.43325 21.4646,-20.96278 z M 84,107.07344 C 84,104.17885 82.278619,102.03171 69.822587,89.389415 62.025009,81.475237 55.275009,75 54.822587,75 c -0.452423,0 -0.818634,14.7375 -0.813803,32.75 l 0.0088,32.75 14.991217,-15.06598 C 82.248311,112.12847 84,109.98308 84,107.07344 Z"
       id="path1487"
       inkscape:connector-curvature="0" />
    <path
       style="fill:#535353;fill-opacity:1"
       d="M 109,242.58298 C 83.780412,238.0483 63.462215,227.39096 45.481906,209.26633 0.93278881,164.35964 1.3335542,91.457078 46.377401,46.368301 84.203105,8.504866 142.1233,1.4272975 188.0867,29.052109 215.71576,45.657659 234.89989,73.12387 242.18119,106.5 c 0.81841,3.75144 1.27469,12.37091 1.21753,23 -0.08,14.87516 -0.41031,18.19663 -2.64276,26.57377 -11.39704,42.76667 -42.28344,73.62713 -84.68219,84.61104 -11.93286,3.09135 -35.21636,4.03022 -47.07377,1.89817 z m 42.85,-76.05044 c 13.43806,-13.336 14.35,-14.4819 14.35,-18.03146 0,-3.64788 -1.31066,-5.10151 -34.84464,-38.64577 C 112.1908,90.684891 96.148288,75 95.705323,75 c -0.442966,0 -0.670377,14.9625 -0.505358,33.25 0.371719,41.19403 -0.867648,37.45527 19.088705,57.58425 7.81623,7.88384 15.11133,14.70673 16.21133,15.16197 4.10113,1.69729 7.13935,-0.36096 21.35,-14.46368 z M 89,148.5 C 89,130.625 88.656471,116 88.236603,116 c -1.56084,0 -28.176268,27.60318 -29.159162,30.24132 -0.561735,1.50772 -0.748918,3.53272 -0.415962,4.5 C 59.327704,152.67678 87.011518,181 88.237065,181 88.656679,181 89,166.375 89,148.5 Z m 107.46281,-26.46278 c 11.51973,-11.52953 20.61479,-21.29295 20.21125,-21.69649 -0.57654,-0.576548 -49.65219,4.42669 -72.51512,7.39288 l -4.34106,0.5632 17.33034,17.3516 C 166.67991,135.19178 174.71241,143 174.99821,143 c 0.28581,0 9.94488,-9.43325 21.4646,-20.96278 z M 84,107.01152 C 84,104.03273 82.401325,102.04257 69.794627,89.327493 61.981673,81.447372 55.231673,75 54.794627,75 c -0.437045,0 -0.790674,14.7375 -0.785843,32.75 l 0.0088,32.75 14.991217,-15.06598 C 82.360514,112.01571 84,110.00097 84,107.01152 Z"
       id="path1485"
       inkscape:connector-curvature="0" />
    <path
       style="fill:#4f4f4f;fill-opacity:1"
       d="M 115,243.35216 C 99.320525,240.99727 88.330893,237.64165 76,231.44373 56.341426,221.56267 40.228069,206.68176 29.052109,188.0867 1.427172,142.12309 8.5001908,84.236411 46.368301,46.368301 92.986394,-0.24979246 166.96627,1.052749 212.94455,49.301159 240.26416,77.969656 250.67182,121.67369 239.44239,160.57145 225.165,210.02711 178.7818,244.53754 127.5,243.8598 122,243.78711 116.375,243.55867 115,243.35216 Z m 36.85,-76.81962 c 13.43806,-13.336 14.35,-14.4819 14.35,-18.03146 0,-3.64788 -1.31066,-5.10151 -34.84464,-38.64577 C 112.1908,90.684891 96.148288,75 95.705323,75 c -0.442966,0 -0.670377,14.9625 -0.505358,33.25 0.371719,41.19403 -0.867648,37.45527 19.088705,57.58425 7.81623,7.88384 15.11133,14.70673 16.21133,15.16197 4.10113,1.69729 7.13935,-0.36096 21.35,-14.46368 z M 89,148.5 C 89,130.625 88.656471,116 88.236603,116 c -1.56084,0 -28.176268,27.60318 -29.159162,30.24132 -0.561735,1.50772 -0.748918,3.53272 -0.415962,4.5 C 59.327704,152.67678 87.011518,181 88.237065,181 88.656679,181 89,166.375 89,148.5 Z m 107.46281,-26.46278 c 11.51973,-11.52953 20.61479,-21.29295 20.21125,-21.69649 -0.57654,-0.576548 -49.65219,4.42669 -72.51512,7.39288 l -4.34106,0.5632 17.33034,17.3516 C 166.67991,135.19178 174.71241,143 174.99821,143 c 0.28581,0 9.94488,-9.43325 21.4646,-20.96278 z M 84,107.01152 C 84,104.03273 82.401325,102.04257 69.794627,89.327493 61.981673,81.447372 55.231673,75 54.794627,75 c -0.437045,0 -0.790674,14.7375 -0.785843,32.75 l 0.0088,32.75 14.991217,-15.06598 C 82.360514,112.01571 84,110.00097 84,107.01152 Z"
       id="path1483"
       inkscape:connector-curvature="0" />
    <path
       style="fill:#4c4c4c;fill-opacity:1"
       d="M 115,243.35216 C 99.320525,240.99727 88.330893,237.64165 76,231.44373 56.341426,221.56267 40.228069,206.68176 29.052109,188.0867 1.427172,142.12309 8.5001908,84.236411 46.368301,46.368301 92.986394,-0.24979246 166.96627,1.052749 212.94455,49.301159 240.26416,77.969656 250.67182,121.67369 239.44239,160.57145 225.165,210.02711 178.7818,244.53754 127.5,243.8598 122,243.78711 116.375,243.55867 115,243.35216 Z m 36.85,-76.81962 c 13.43806,-13.336 14.35,-14.4819 14.35,-18.03146 0,-3.64788 -1.31066,-5.10151 -34.84464,-38.64577 C 112.1908,90.684891 96.148288,75 95.705323,75 c -0.442966,0 -0.670377,14.9625 -0.505358,33.25 0.371719,41.19403 -0.867648,37.45527 19.088705,57.58425 7.81623,7.88384 15.11133,14.70673 16.21133,15.16197 4.10113,1.69729 7.13935,-0.36096 21.35,-14.46368 z M 89,148.5 C 89,130.625 88.656471,116 88.236603,116 c -1.56084,0 -28.176268,27.60318 -29.159162,30.24132 -0.561735,1.50772 -0.748918,3.53272 -0.415962,4.5 C 59.327704,152.67678 87.011518,181 88.237065,181 88.656679,181 89,166.375 89,148.5 Z m 107.46281,-26.46278 c 11.51973,-11.52953 20.61479,-21.29295 20.21125,-21.69649 -0.57654,-0.576548 -49.65219,4.42669 -72.51512,7.39288 l -4.34106,0.5632 17.33034,17.3516 C 166.67991,135.19178 174.71241,143 174.99821,143 c 0.28581,0 9.94488,-9.43325 21.4646,-20.96278 z M 84,107.01152 C 84,104.03273 82.401325,102.04257 69.794627,89.327493 61.981673,81.447372 55.231673,75 54.794627,75 c -0.437045,0 -0.790674,14.7375 -0.785843,32.75 l 0.0088,32.75 14.991217,-15.06598 C 82.360514,112.01571 84,110.00097 84,107.01152 Z"
       id="path1481"
       inkscape:connector-curvature="0" />
    <path
       style="fill:#484848;fill-opacity:1"
       d="M 115,243.35216 C 93.91117,240.18485 76.547571,233.51708 61.010443,222.61973 45.395406,211.66774 29.756055,192.23622 21.911143,174.03978 -1.5896053,119.52931 19.793751,56.219386 71.5,27.22154 115.78153,2.3876184 170.61611,9.2180947 207.57917,44.172257 244.55429,79.137825 254.50507,134.21493 231.98545,179.25991 211.82316,219.58964 171.6248,244.44295 127.5,243.8598 122,243.78711 116.375,243.55867 115,243.35216 Z m 35.5,-75.15332 c 13.96751,-13.58309 16.67053,-17.21402 15.84944,-21.29038 -0.34528,-1.71415 -12.52606,-14.57942 -35.97823,-38 L 94.914991,73.5 95.207495,108 c 0.356367,42.0323 -0.79831,38.36829 18.239035,57.87596 13.43036,13.76216 17.23235,16.50129 21.55347,15.52812 1.375,-0.30967 8.35,-6.25203 15.5,-13.20524 z M 89,148.5 C 89,130.625 88.656679,116 88.237065,116 c -0.419614,0 -7.259614,6.50829 -15.2,14.46287 C 59.844688,143.67882 58.6,145.23389 58.6,148.5 c 0,3.26611 1.244688,4.82118 14.437065,18.03713 C 80.977451,174.49171 87.817451,181 88.237065,181 88.656679,181 89,166.375 89,148.5 Z M 217,100.75872 C 217,100.34142 215.76629,100 214.25843,100 c -4.11777,0 -73.65648,8.06472 -74.19669,8.60492 -0.25725,0.25726 7.38178,8.32689 16.97564,17.93251 l 17.44338,17.46476 21.25962,-21.24237 C 207.43317,111.07651 217,101.17602 217,100.75872 Z M 84,107.09 C 84,104.01025 82.530801,102.17316 69.794627,89.327493 61.981673,81.447372 55.231673,75 54.794627,75 54.357582,75 54,89.731873 54,107.7375 v 32.73749 L 69,125.5 c 13.515788,-13.49326 15,-15.31488 15,-18.41 z"
       id="path1479"
       inkscape:connector-curvature="0" />
    <path
       style="fill:#454545;fill-opacity:1"
       d="M 111.5,242.8915 C 86.960058,239.35522 61.685839,226.0993 44.172257,207.57917 -7.6292693,152.80049 5.8169982,64.057814 71.5,27.22154 115.78153,2.3876184 170.61611,9.2180947 207.57917,44.172257 255.05188,89.064881 256.11391,163.75826 209.93608,209.93608 184.26586,235.60631 147.15744,248.02984 111.5,242.8915 Z m 39,-74.69266 c 13.96751,-13.58309 16.67053,-17.21402 15.84944,-21.29038 -0.34528,-1.71415 -12.52606,-14.57942 -35.97823,-38 L 94.914991,73.5 95.207495,108 c 0.356367,42.0323 -0.79831,38.36829 18.239035,57.87596 13.43036,13.76216 17.23235,16.50129 21.55347,15.52812 1.375,-0.30967 8.35,-6.25203 15.5,-13.20524 z M 89,148.5 C 89,130.625 88.656679,116 88.237065,116 c -0.419614,0 -7.259614,6.50829 -15.2,14.46287 C 59.844688,143.67882 58.6,145.23389 58.6,148.5 c 0,3.26611 1.244688,4.82118 14.437065,18.03713 C 80.977451,174.49171 87.817451,181 88.237065,181 88.656679,181 89,166.375 89,148.5 Z M 217,100.75872 C 217,100.34142 215.76629,100 214.25843,100 c -4.11777,0 -73.65648,8.06472 -74.19669,8.60492 -0.25725,0.25726 7.38178,8.32689 16.97564,17.93251 l 17.44338,17.46476 21.25962,-21.24237 C 207.43317,111.07651 217,101.17602 217,100.75872 Z M 84,107.09 C 84,104.01025 82.530801,102.17316 69.794627,89.327493 61.981673,81.447372 55.231673,75 54.794627,75 54.357582,75 54,89.731873 54,107.7375 v 32.73749 L 69,125.5 c 13.515788,-13.49326 15,-15.31488 15,-18.41 z"
       id="path1477"
       inkscape:connector-curvature="0" />
    <path
       style="fill:#414141;fill-opacity:1"
       d="M 111.5,242.8915 C 86.960058,239.35522 61.685839,226.0993 44.172257,207.57917 -7.6292693,152.80049 5.8169982,64.057814 71.5,27.22154 115.78153,2.3876184 170.61611,9.2180947 207.57917,44.172257 255.05188,89.064881 256.11391,163.75826 209.93608,209.93608 184.26586,235.60631 147.15744,248.02984 111.5,242.8915 Z m 39,-74.69266 c 13.96751,-13.58309 16.67053,-17.21402 15.84944,-21.29038 -0.34528,-1.71415 -12.52606,-14.57942 -35.97823,-38 L 94.914991,73.5 95.207495,108 c 0.356367,42.0323 -0.79831,38.36829 18.239035,57.87596 13.43036,13.76216 17.23235,16.50129 21.55347,15.52812 1.375,-0.30967 8.35,-6.25203 15.5,-13.20524 z M 89,148.5 C 89,130.625 88.656679,116 88.237065,116 c -0.419614,0 -7.259614,6.50829 -15.2,14.46287 C 59.844688,143.67882 58.6,145.23389 58.6,148.5 c 0,3.26611 1.244688,4.82118 14.437065,18.03713 C 80.977451,174.49171 87.817451,181 88.237065,181 88.656679,181 89,166.375 89,148.5 Z M 217,100.75872 C 217,100.34142 215.76629,100 214.25843,100 c -4.11777,0 -73.65648,8.06472 -74.19669,8.60492 -0.25725,0.25726 7.38178,8.32689 16.97564,17.93251 l 17.44338,17.46476 21.25962,-21.24237 C 207.43317,111.07651 217,101.17602 217,100.75872 Z M 84,107.09 C 84,104.01025 82.530801,102.17316 69.794627,89.327493 61.981673,81.447372 55.231673,75 54.794627,75 54.357582,75 54,89.731873 54,107.7375 v 32.73749 L 69,125.5 c 13.515788,-13.49326 15,-15.31488 15,-18.41 z"
       id="path1475"
       inkscape:connector-curvature="0" />
  </g>
  <path
     style="opacity:0.98000004;fill:#ffffff;fill-opacity:1;stroke:#660080;stroke-width:0.20688809;stroke-miterlimit:4;stroke-dasharray:none;stroke-opacity:1"
     d="m 57.846241,106.61674 c -0.0023,-21.713936 0.07566,-30.806387 0.264149,-30.806387 0.392003,0 21.000324,20.645399 23.827394,23.870265 2.893779,3.300962 3.650659,4.672732 3.64725,6.610272 -0.0054,3.09812 -0.949784,4.23521 -16.409838,19.7595 l -11.325693,11.37274 z"
     id="path1586"
     inkscape:connector-curvature="0" />
  <path
     style="opacity:0.98000004;fill:#ffffff;fill-opacity:1;stroke:#660080;stroke-width:0.20688809;stroke-miterlimit:4;stroke-dasharray:none;stroke-opacity:1"
     d="M 79.950087,168.66693 C 69.21644,157.94741 65.349055,153.82789 63.311661,150.94374 c -2.341662,-3.31487 -1.746189,-4.86162 4.435371,-11.52101 5.045323,-5.43531 21.48914,-21.92702 22.277064,-22.34194 l 0.562388,-0.29616 -0.03267,29.19051 c -0.01797,16.05478 -0.102327,30.03409 -0.187463,31.06513 l -0.154794,1.87463 z"
     id="path1588"
     inkscape:connector-curvature="0" />
  <path
     style="opacity:0.98000004;fill:#ffffff;fill-opacity:1;stroke:#660080;stroke-width:0.20688809;stroke-miterlimit:4;stroke-dasharray:none;stroke-opacity:1"
     d="m 134.70273,179.69978 c -1.16227,-0.53346 -3.48786,-2.33804 -6.49871,-5.0428 -4.08527,-3.66995 -20.14749,-19.66176 -22.22249,-22.12507 -3.32309,-3.94498 -5.06299,-7.34928 -6.00423,-11.74797 -0.509657,-2.38177 -0.798005,-14.77707 -1.025532,-44.084901 l -0.16674,-21.47791 4.280332,4.106356 c 5.83825,5.600951 42.56632,42.509785 50.59805,50.847085 8.20729,8.51953 12.67557,13.38372 13.8339,15.05967 1.71258,2.47787 1.09855,4.48164 -2.70248,8.81888 -3.38141,3.85844 -19.43154,19.79541 -22.45284,22.29454 -3.82612,3.16485 -5.98412,4.11178 -7.63926,3.35212 z"
     id="path1590"
     inkscape:connector-curvature="0" />
  <path
     style="opacity:0.98000004;fill:#ffffff;fill-opacity:1;stroke:#660080;stroke-width:0.20688809;stroke-miterlimit:4;stroke-dasharray:none;stroke-opacity:1"
     d="m 171.49844,135.19411 c -6.18209,-5.97931 -14.42911,-14.25674 -22.15679,-22.2385 -3.10968,-3.21192 -4.23225,-4.52376 -3.98513,-4.65702 1.01156,-0.5455 71.54723,-8.25394 72.52991,-7.92638 0.15023,0.0501 -0.8961,1.37717 -2.32517,2.94908 -3.57367,3.93089 -37.36616,37.72612 -37.72306,37.72612 -0.15837,0 -3.01126,-2.63398 -6.33976,-5.8533 z"
     id="path1592"
     inkscape:connector-curvature="0" />
</svg>
