<?xml version="1.0" encoding="UTF-8" standalone="no"?>
<!-- Created with Inkscape (http://www.inkscape.org/) -->

<svg
   xmlns:dc="http://purl.org/dc/elements/1.1/"
   xmlns:cc="http://creativecommons.org/ns#"
   xmlns:rdf="http://www.w3.org/1999/02/22-rdf-syntax-ns#"
   xmlns:svg="http://www.w3.org/2000/svg"
   xmlns="http://www.w3.org/2000/svg"
   xmlns:sodipodi="http://sodipodi.sourceforge.net/DTD/sodipodi-0.dtd"
   xmlns:inkscape="http://www.inkscape.org/namespaces/inkscape"
   version="1.1"
   id="svg2"
   width="225"
   height="225"
   viewBox="0 0 225 225"
   sodipodi:docname="taskwarrior.svg"
   inkscape:version="0.92.3 (2405546, 2018-03-11)">
  <metadata
     id="metadata8">
    <rdf:RDF>
      <cc:Work
         rdf:about="">
        <dc:format>image/svg+xml</dc:format>
        <dc:type
           rdf:resource="http://purl.org/dc/dcmitype/StillImage" />
        <dc:title></dc:title>
      </cc:Work>
    </rdf:RDF>
  </metadata>
  <defs
     id="defs6" />
  <sodipodi:namedview
     pagecolor="#ffffff"
     bordercolor="#666666"
     borderopacity="1"
     objecttolerance="10"
     gridtolerance="10"
     guidetolerance="10"
     inkscape:pageopacity="0"
     inkscape:pageshadow="2"
     inkscape:window-width="1920"
     inkscape:window-height="915"
     id="namedview4"
     showgrid="false"
     inkscape:zoom="2.8284271"
     inkscape:cx="87.140147"
     inkscape:cy="132.82127"
     inkscape:window-x="0"
     inkscape:window-y="125"
     inkscape:window-maximized="0"
     inkscape:current-layer="layer1" />
  <path
     style="fill:#3e3e40"
     d="M 95.5,223.88411 C 83.637395,221.76732 72.625524,218.28214 63.5,213.75634 33.53487,198.89514 11.390062,171.24894 3.866841,139.30864 2.7257082,134.46389 1.3888419,129.11805 0.89602703,127.429 -0.33864354,123.19735 -0.2526619,99.274188 1,98.5 1.55,98.160081 2.001135,96.671024 2.0025222,95.190983 2.0069793,90.435748 6.7679922,74.538452 10.803841,65.802874 25.008991,35.055886 52.887203,11.891529 84.789157,4.3275447 90.680121,2.9307914 96.881949,1.3856948 98.570998,0.89399664 c 3.983982,-1.15977449 24.881132,-1.15830421 28.858002,0.00203 1.68905,0.49281486 7.03489,1.82968116 11.87964,2.97081396 37.77724,8.8980534 70.14001,39.2301624 80.73496,75.6690994 4.589,15.782834 6.42005,37.90428 4.03691,48.77124 -0.50572,2.30605 -1.45043,6.89282 -2.09936,10.19282 -1.9663,9.99929 -8.62801,25.61109 -15.19134,35.60113 -20.93984,31.87249 -56.86584,51.14999 -94.64787,50.78703 C 105.73887,224.82664 98.25,224.37482 95.5,223.88411 Z m 27,-7.88347 c 28.42486,-3.10446 53.34364,-16.46258 70.51657,-37.80155 21.73856,-27.01221 28.78566,-61.23984 19.35326,-93.998467 C 202.25675,49.078004 174.29563,21.935301 138.27735,12.276833 129.64921,9.9631586 126.61939,9.6554314 112.5,9.6587305 94.71647,9.6628858 88.375156,10.886995 72.402244,17.399085 48.75679,27.03924 27.03924,48.75679 17.399085,72.402244 10.886995,88.375156 9.6628858,94.71647 9.6587305,112.5 c -0.00329,14.09205 0.3067439,17.15739 2.5999555,25.70581 7.377891,27.50262 23.971851,49.5212 48.241314,64.01156 11.788997,7.03875 23.542147,11.03799 39,13.27053 11.54671,1.66765 12.2765,1.68392 23,0.51274 z M 98,211.44384 C 84.833724,209.37281 78.920975,207.51027 67.947158,201.97706 47.172673,191.50217 29.574895,172.94318 21.08923,152.5597 15.0143,137.96706 13.526609,130.06476 13.547575,112.5 13.571649,92.331475 15.791051,82.966995 24.580058,65.949856 37.400149,41.127798 60.107313,23.565547 90,15.352545 c 10.29141,-2.82756 35.75753,-2.568633 46.97795,0.477649 42.01541,11.406953 70.23645,44.080351 75.07536,86.919806 3.38637,29.9799 -7.56691,59.88675 -29.81864,81.41684 -16.86331,16.31643 -34.94984,24.95356 -58.20844,27.79716 -10.46879,1.27991 -15.18127,1.18573 -26.02623,-0.52016 z m 4.7651,-59.63923 -0.2651,-29.1954 -9.5,-7.26114 c -11.156472,-8.52724 -13,-10.57765 -13,-14.45885 0,-3.589046 1.065042,-3.644528 16.870929,-0.87887 14.316711,2.50509 15.584151,2.4984 32.896261,-0.173787 9.46667,-1.461215 14.60208,-1.867295 15.2625,-1.206877 0.54742,0.547423 0.70472,2.448244 0.34956,4.224044 -0.5345,2.67252 -2.60392,4.68492 -12.0125,11.68157 L 122,122.98812 v 29.00594 c 0,28.5281 0.0336,29.00594 2.03984,29.00594 4.72328,0 21.1546,-11.3238 30.72598,-21.17511 l 5.26582,-5.41982 -1.9603,-5.69773 c -6.47668,-18.82477 -8.33436,-41.44057 -4.22981,-51.49436 5.21278,-12.768328 -0.34264,-34.494326 -11.1958,-43.784227 -13.25807,-11.348413 -35.60773,-13.61073 -51.974455,-5.26105 -5.353479,2.731141 -12.676208,10.318443 -15.45918,16.017726 -5.528821,11.322539 -6.730874,24.680246 -3.095368,34.397005 1.866243,4.987976 2.055301,7.092876 1.597652,17.787516 -0.499424,11.67083 -1.95139,19.2772 -6.303522,33.02206 l -1.865629,5.892 7.382249,6.91519 C 81.622038,170.34367 97.358298,181 100.69073,181 h 2.33948 z"
     id="path76"
     inkscape:connector-curvature="0" />
  <g
     inkscape:groupmode="layer"
     id="layer1"
     inkscape:label="outline"
     style="display:inline;opacity:1">
    <path
       style="fill:#000000;fill-opacity:0.84121621"
       d="m 100.67057,224.33723 c -0.42538,-0.42537 -3.337774,-1.11034 -6.471992,-1.52214 -9.8329,-1.29193 -13.199353,-2.00733 -13.766863,-2.92558 C 80.129353,219.40028 79.002418,219 77.927414,219 c -1.075003,0 -2.735946,-0.38496 -3.690983,-0.85548 -0.955037,-0.47051 -6.031144,-2.89646 -11.280238,-5.391 C 46.82142,205.08575 30.830987,191.49828 21.187748,177.26184 16.049658,169.67641 9.7716666,157.62111 8.0322464,152 7.2663712,149.525 6.3332458,147.05 5.9586344,146.5 5.584023,145.95 4.9894041,143.925 4.6372591,142 4.2851141,140.075 3.2637782,135.125 2.3676237,131 0.45955508,122.21716 -0.54636291,103.389 0.80125217,101.68161 1.3141993,101.03173 2.04441,98.060977 2.4239425,95.079949 3.5082735,86.563101 8.1145328,70.63851 10.097849,68.55 10.594032,68.0275 11,67.05453 11,66.387844 11,65.182726 18.822513,50.955091 20.01022,50 20.352198,49.725 22.017517,47.475 23.710931,45 27.146946,39.97811 40.60699,26.689188 46,22.994299 c 1.925,-1.318867 3.725,-2.666226 4,-2.994132 0.697136,-0.831254 9.03648,-5.604155 14.739418,-8.435889 C 73.124563,7.4007217 85.280228,3.7562476 95,2.4916431 c 3.025,-0.3935719 6.03173,-1.1447585 6.68161,-1.66930366 0.65967,-0.53243457 5.73954,-0.76523813 11.5,-0.52702954 28.98868,1.1987483 55.87164,12.0460791 76.08402,30.7000621 11.66289,10.76367 17.43569,19.4013 28.89938,43.241059 0.45925,0.955037 0.83499,2.61598 0.83499,3.690983 0,1.075004 0.40028,2.201939 0.88951,2.504301 0.48923,0.302361 1.17917,2.241419 1.53319,4.309017 0.35401,2.067597 1.13321,6.459268 1.73154,9.759268 1.39846,7.71301 1.41555,28.12369 0.0306,36.5 -7.83137,47.36345 -45.03713,84.55829 -92.1848,92.15775 -8.45854,1.36338 -29.33372,2.1752 -30.32943,1.17948 z m 26.76923,-8.42938 c 6.59437,-1.18842 12.36933,-2.58466 17.0602,-4.12475 2.81616,-0.92458 4.16977,-1.43721 9.75,-3.69242 1.2375,-0.50013 2.925,-1.16488 3.75,-1.47723 9.56731,-3.6222 28.25172,-18.84592 37.01425,-30.15853 5.28787,-6.82675 10.3116,-15.29016 12.73528,-21.45492 0.54058,-1.375 1.44767,-3.625 2.01575,-5 6.77582,-16.40037 8.91327,-36.69657 5.63425,-53.5 -0.85862,-4.4 -1.79948,-9.466671 -2.09081,-11.259268 -0.29133,-1.792598 -0.92998,-3.506656 -1.41921,-3.809017 C 211.40028,81.129353 211,80.002418 211,78.927414 c 0,-1.075003 -0.39844,-2.735946 -0.88542,-3.690983 -0.87367,-1.71337 -6.3342,-12.62044 -8.50021,-16.978629 -0.6129,-1.233209 -1.45187,-2.245709 -1.86437,-2.25 -0.4125,-0.0043 -0.75,-0.489945 -0.75,-1.079231 0,-0.589285 -0.5625,-1.674931 -1.25,-2.412545 -0.6875,-0.737614 -3.5,-4.11865 -6.25,-7.513412 C 180.12184,30.956739 158.78091,17.23041 141,12.521383 119.29178,6.7722623 100.30774,7.3136674 79.5,14.275299 49.314511,24.374437 24.374437,49.314511 14.275299,79.5 c -3.382024,10.108593 -4.158478,13.623404 -5.3018145,24 -1.7772152,16.12949 1.6530455,36.22761 8.8294365,51.73223 3.896385,8.41816 10.714403,19.29088 14.904186,23.76777 1.80155,1.925 3.279449,3.79752 3.284219,4.16116 0.0074,0.56078 7.953716,7.60649 15.966855,14.15716 4.516873,3.69251 17.940733,10.75348 24.041819,12.64603 2.475,0.76775 4.95,1.70831 5.5,2.09014 1.037272,0.72012 3.86186,1.32605 13.926922,2.9876 3.259807,0.53813 6.147308,1.19881 6.416668,1.46817 0.92653,0.92652 19.54361,0.48837 25.59621,-0.60241 z M 107.5,212.43196 c -0.55,-0.22558 -4.375,-0.81094 -8.5,-1.30079 C 73.603861,208.11532 49.625084,194.09476 33.189642,172.6514 27.843537,165.67632 19,149.03956 19,145.95737 c 0,-1.01164 -0.40028,-2.08672 -0.889512,-2.38908 -0.489232,-0.30237 -1.17627,-2.24142 -1.526752,-4.30902 C 16.233253,137.19167 15.486875,133.025 14.925116,130 10.157462,104.32678 15.932057,77.64989 30.85761,56.396671 45.467606,35.592791 65.789324,21.539976 89,16.190216 c 15.35005,-3.537989 26.28343,-3.865753 41,-1.229109 3.025,0.541963 7.19167,1.272146 9.25927,1.622629 2.0676,0.350482 4.00665,1.03752 4.30902,1.526752 C 143.87065,18.59972 144.8444,19 145.73219,19 c 2.85215,0 19.57509,8.627446 25.76781,13.293736 11.9348,8.993019 23.18756,22.072446 29.18149,33.918532 6.95407,13.743655 8.84153,19.967198 10.92944,36.037732 1.19555,9.20204 1.19555,12.29796 0,21.5 -1.80525,13.89488 -3.7206,20.63909 -9.06653,31.92446 -7.00375,14.78506 -20.24152,30.57607 -32.0302,38.20804 -2.20781,1.42933 -4.2392,2.88128 -4.5142,3.22656 -1.21056,1.51993 -20.05945,9.964 -25.5,11.42369 -10.46894,2.8088 -30.02481,5.11948 -33,3.89921 z M 103.03098,180.25 c 0.32651,-18.44387 -0.18764,-57.7784 -0.76166,-58.26935 -0.42312,-0.36191 -5.33982,-4.12161 -10.925986,-8.35491 C 80.936316,105.73911 80,104.64386 80,100.35694 c 0,-2.383421 0.184033,-2.45406 4.75,-1.82324 5.689165,0.785998 19.44716,3.10587 24.04435,4.05436 2.99264,0.61743 11.20931,-0.30183 23.20565,-2.596204 2.475,-0.473358 6.4125,-1.12049 8.75,-1.438071 l 4.25,-0.57742 v 3.324725 c 0,3.83568 -1.47711,5.38235 -13.5,14.13572 -4.4,3.20346 -8.5625,6.5267 -9.25,7.38496 -0.93389,1.16586 -1.25,8.72747 -1.25,29.90074 0,25.51956 0.16575,28.40387 1.66537,28.97932 C 127.77189,183.66139 160,159.22196 160,153.38999 c 0,-1.24957 -0.45,-2.55007 -1,-2.88999 -0.55,-0.33992 -1,-1.91492 -1,-3.5 0,-1.58508 -0.45,-3.16008 -1,-3.5 -0.55,-0.33992 -1,-1.85148 -1,-3.35902 0,-1.50754 -0.40391,-3.16848 -0.89757,-3.69098 -2.3457,-2.48271 -3.89182,-29.92931 -2.02235,-35.90075 0.69722,-2.227089 1.63943,-4.47675 2.0938,-4.99925 C 155.62825,95.0275 156,90.521147 156,85.535883 156,75.852995 154.36934,69.713021 149.6723,61.710079 146.79639,56.810025 139.19556,49 137.30265,49 136.58619,49 136,48.55 136,48 c 0,-0.55 -0.825,-1 -1.83333,-1 -1.00834,0 -2.15514,-0.321803 -2.54845,-0.715118 -1.65591,-1.655905 -10.72905,-3.199635 -19.04722,-3.240749 -8.23756,-0.04071 -13.399396,0.851685 -17.807431,3.078623 C 93.808532,46.60524 92.394701,47 91.621722,47 89.644255,47 80.467219,55.45557 77.100388,60.379719 75.550931,62.645874 73.711923,66.3 73.013704,68.5 c -0.69822,2.2 -1.691136,5.097756 -2.206481,6.439459 -1.693169,4.408166 -1.042567,18.425024 1.158475,24.958716 2.206398,6.549595 2.764214,19.479705 1.12105,25.985805 -0.502289,1.98881 -1.464019,6.09102 -2.137179,9.11602 -0.673159,3.025 -2.287677,8.65 -3.587817,12.5 l -2.363891,7 7.751069,7.60317 c 7.578897,7.43429 15.74176,13.55077 23.736261,17.78574 4.850239,2.56934 6.505079,2.66062 6.545789,0.36109 z"
       id="path12"
       inkscape:connector-curvature="0" />
  </g>
</svg>
