<?xml version="1.0" encoding="UTF-8" standalone="no"?>
<!-- Created with Inkscape (http://www.inkscape.org/) -->

<svg
   xmlns:dc="http://purl.org/dc/elements/1.1/"
   xmlns:cc="http://creativecommons.org/ns#"
   xmlns:rdf="http://www.w3.org/1999/02/22-rdf-syntax-ns#"
   xmlns:svg="http://www.w3.org/2000/svg"
   xmlns="http://www.w3.org/2000/svg"
   xmlns:sodipodi="http://sodipodi.sourceforge.net/DTD/sodipodi-0.dtd"
   xmlns:inkscape="http://www.inkscape.org/namespaces/inkscape"
   version="1.1"
   id="svg2"
   width="601"
   height="601"
   viewBox="0 0 601 601"
   sodipodi:docname="bluetooth1.png.svg"
   inkscape:version="0.92.5 (2060ec1f9f, 2020-04-08)">
  <metadata
     id="metadata8">
    <rdf:RDF>
      <cc:Work
         rdf:about="">
        <dc:format>image/svg+xml</dc:format>
        <dc:type
           rdf:resource="http://purl.org/dc/dcmitype/StillImage" />
        <dc:title />
      </cc:Work>
    </rdf:RDF>
  </metadata>
  <defs
     id="defs6" />
  <sodipodi:namedview
     pagecolor="#ffffff"
     bordercolor="#666666"
     borderopacity="1"
     objecttolerance="10"
     gridtolerance="10"
     guidetolerance="10"
     inkscape:pageopacity="0"
     inkscape:pageshadow="2"
     inkscape:window-width="1920"
     inkscape:window-height="1076"
     id="namedview4"
     showgrid="false"
     inkscape:zoom="1.1106636"
     inkscape:cx="376.2318"
     inkscape:cy="306.45941"
     inkscape:window-x="0"
     inkscape:window-y="92"
     inkscape:window-maximized="0"
     inkscape:current-layer="svg2" />
  <path
     style="fill:#000000"
     d="m 282.5,539.86556 c 4.07608,-0.43101 2.47282,-0.55492 -5,-0.38645 -7.34581,0.16561 -9.8373,-0.0222 -7.5,-0.56538 2.58845,-0.60153 1.67691,-0.72017 -3.5,-0.4555 -5.09866,0.26066 -6.18514,0.12358 -4,-0.50468 2.25256,-0.64765 1.50511,-0.76124 -3,-0.45593 -4.46595,0.30266 -5.36081,0.16935 -3.5,-0.5214 1.91788,-0.71194 1.33575,-0.82174 -2.5,-0.47154 -2.95192,0.2695 -4.22772,0.13242 -3.11462,-0.33467 1.81644,-0.76223 -0.68997,-1.57951 -11.38538,-3.71249 -2.18269,-0.43529 -2.24615,-0.37796 -0.5,0.45167 2.56418,1.21829 -0.18271,1.30144 -3,0.0908 -1.3629,-0.58566 -1.52217,-0.89239 -0.5,-0.96289 1.28173,-0.0884 -15.60563,-7.0235 -17,-6.98135 -0.275,0.008 0.625,0.65822 2,1.44424 3.01313,1.72246 2.08777,1.95274 -1.42159,0.35377 -1.38363,-0.63042 -2.23099,-1.6069 -1.88301,-2.16994 0.38765,-0.62723 -0.0319,-0.76868 -1.08329,-0.36522 -1.15642,0.44376 -1.48251,0.28071 -1,-0.5 0.4825,-0.78072 0.15641,-0.94376 -1,-0.5 -1.15642,0.44376 -1.48251,0.28071 -1,-0.5 0.4825,-0.78072 0.15641,-0.94376 -1,-0.5 -1.12774,0.43275 -1.47906,0.27513 -1.02485,-0.4598 0.4187,-0.67748 0.14355,-0.92413 -0.69806,-0.62575 -1.3415,0.47562 -6.8892,-1.76661 -6.8892,-2.78442 0,-0.275 1.35,0.19811 3,1.05136 1.65,0.85325 3,1.32636 3,1.05136 0,-0.9306 -6.05235,-3.63704 -6.92598,-3.0971 -2.01956,1.24815 -20.19638,-13.76392 -29.40877,-24.28845 -7.07191,-8.07917 -17.89255,-23.98902 -17.14172,-25.20389 0.29853,-0.48303 -1.24964,-4.38456 -3.44038,-8.67008 -2.19075,-4.28551 -4.02161,-7.34184 -4.0686,-6.79184 -0.10453,1.2237 -2.94368,-3.59874 -2.94368,-5 0,-0.55 0.69014,0.125 1.53364,1.5 0.96197,1.56813 1.25879,1.75451 0.7963,0.5 -0.40553,-1.1 -3.12484,-8.975 -6.04291,-17.5 -2.91807,-8.525 -5.34587,-14.825 -5.39513,-14 -0.0493,0.825 -0.53422,0.38558 -1.07772,-0.97649 -0.54349,-1.36208 -0.74878,-3.4303 -0.4562,-4.59606 0.29259,-1.16575 -0.2976,-5.90133 -1.31152,-10.5235 -1.09784,-5.00475 -2.04654,-7.595 -2.3455,-6.40395 -0.2761,1.1 -0.33288,0.68209 -0.12618,-0.92869 0.20671,-1.61078 0.0556,-5.21078 -0.33576,-8 -0.66148,-4.71421 -0.76224,-4.86006 -1.43096,-2.07131 -0.43826,1.82768 -0.57067,0.45996 -0.33884,-3.5 0.2827,-4.82886 0.15728,-5.7287 -0.48783,-3.5 -0.63609,2.19757 -0.77263,1.12766 -0.51049,-4 0.27981,-5.47311 0.16761,-6.23655 -0.51435,-3.5 -0.65302,2.62044 -0.78151,1.48958 -0.51126,-4.5 0.2576,-5.70949 0.12457,-6.9979 -0.46464,-4.5 -0.5619,2.38216 -0.72589,0.30617 -0.51343,-6.5 0.23407,-7.49899 0.11682,-8.7495 -0.46883,-5 -0.53154,3.40305 -0.70522,0.52854 -0.54378,-9 0.15338,-9.05279 0.0141,-11.5264 -0.39414,-7 -0.34724,3.85 -0.63134,-11 -0.63134,-33 0,-22 0.28358,-36.625 0.63017,-32.5 0.43321,5.15592 0.55948,3.12439 0.40402,-6.5 -0.14707,-9.1044 0.0442,-12.42641 0.547,-9.5 0.542,3.15457 0.67618,1.51015 0.44881,-5.5 -0.23288,-7.17982 -0.0888,-8.87193 0.51076,-6 0.64022,3.0665 0.75304,2.133 0.48346,-4 -0.24901,-5.66498 -0.0986,-7.12437 0.51535,-5 0.62821,2.17374 0.76015,1.07205 0.47905,-4 -0.28721,-5.18227 -0.15706,-6.22097 0.50121,-4 0.6839,2.30745 0.7953,1.61489 0.48255,-3 -0.29972,-4.4226 -0.16562,-5.34275 0.51011,-3.5 0.68529,1.86884 0.80837,1.11146 0.48751,-3 -0.32722,-4.19299 -0.20571,-4.9059 0.5113,-3 0.72865,1.93685 0.83768,1.3737 0.48402,-2.5 -0.33896,-3.71275 -0.20491,-4.4851 0.52069,-3 0.73299,1.50022 0.85393,0.8755 0.48399,-2.5 -0.37438,-3.41599 -0.25394,-4.01822 0.5,-2.5 0.75394,1.51822 0.87438,0.91599 0.5,-2.5 -0.35451,-3.23465 -0.23272,-3.93762 0.43312,-2.5 0.68942,1.48853 0.94428,1.59605 0.99659,0.42046 0.16827,-3.78151 7.38962,-27.87124 11.29769,-37.68801 5.20947,-13.0858 5.38158,-13.64158 2.85893,-9.23245 -2.44204,4.26823 -2.70777,3.37103 -0.42154,-1.42324 0.91563,-1.92011 2.11711,-3.21156 2.66994,-2.86989 0.60609,0.37459 0.74372,-0.06 0.34666,-1.09476 -0.44376,-1.15642 -0.28071,-1.48251 0.5,-1 0.78072,0.4825 0.94376,0.15641 0.5,-1 -0.44376,-1.15642 -0.28071,-1.48251 0.5,-1 0.78072,0.4825 0.94376,0.15641 0.5,-1 -0.43275,-1.12774 -0.27513,-1.47906 0.4598,-1.02485 0.67748,0.4187 0.92413,0.14355 0.62575,-0.69806 -0.47562,-1.3415 1.76661,-6.8892 2.78442,-6.8892 0.275,0 -0.19811,1.35 -1.05136,3 -0.85325,1.65 -1.32636,3 -1.05136,3 0.87798,0 3.65237,-6.02754 3.14916,-6.84175 -0.68033,-1.10081 3.11979,-6.65825 4.55285,-6.65825 0.65048,0 1.39106,-0.62514 1.64575,-1.3892 0.3138,-0.94139 0.0383,-1.12669 -0.8546,-0.57483 -2.5631,1.58408 5.6631,-8.97094 13.33947,-17.11583 9.22164,-9.784493 21.50174,-19.462661 25.21186,-19.869929 1.45599,-0.159827 3.17817,-0.854091 3.82706,-1.54281 0.94301,-1.000884 0.67804,-1.015865 -1.32019,-0.07464 -2.32901,1.097033 -2.37023,1.073399 -0.60268,-0.34556 1.04353,-0.837723 2.25266,-1.303524 2.68696,-1.035112 1.25167,0.773578 11.87542,-4.808274 11.2077,-5.888669 -0.3347,-0.541559 -0.0834,-0.65255 0.56713,-0.250493 0.64247,0.397069 4.6495,-0.606104 8.90451,-2.229272 4.25501,-1.623169 11.01029,-3.781123 15.01174,-4.795454 5.26218,-1.333918 6.78409,-2.056911 5.5,-2.612812 -0.99248,-0.429656 0.209,-0.551093 2.72464,-0.275387 3.3755,0.369944 4.00022,0.249 2.5,-0.48399 -1.4851,-0.725602 -0.71275,-0.859653 3,-0.520687 3.79583,0.346551 4.39792,0.236041 2.5,-0.458865 -1.81899,-0.666009 -0.72938,-0.810237 4,-0.529467 5.05501,0.300101 5.72193,0.197684 3,-0.4607 -2.57583,-0.623047 -1.38762,-0.757316 4.5,-0.508503 5.07804,0.2146 6.53902,0.08682 4,-0.349853 -2.2,-0.378364 9.95,-0.687935 27,-0.687935 17.05,0 28.975,0.307454 26.5,0.68323 -3.12433,0.474363 -2.05436,0.585795 3.5,0.364506 5.59327,-0.222839 7.09748,-0.06427 5,0.52708 -2.16397,0.610098 -1.1886,0.7344 3.5,0.446046 3.61103,-0.222083 5.40366,-0.07678 4.03331,0.326911 -1.99452,0.587571 -1.15806,0.967795 4.36978,1.986338 3.76005,0.692818 7.08256,1.013568 7.38335,0.712779 C 355.08723,66.2461 354.28333,66 353,66 c -1.28333,0 -2.05762,-0.27571 -1.72064,-0.61269 0.33698,-0.336979 2.93483,-0.05562 5.77301,0.625254 3.03877,0.728988 4.66641,1.543204 3.95896,1.980433 -0.77189,0.477058 -0.2315,0.985913 1.51165,1.423414 1.49216,0.374509 2.95992,0.434024 3.26169,0.132257 C 366.08643,69.246901 365.50833,69 364.5,69 363.49167,69 362.93792,68.728745 363.26945,68.397212 363.9058,67.760862 377,71.81552 377,72.648918 c 0,0.267222 -1.0125,0.231539 -2.25,-0.07929 -1.2375,-0.310834 -0.45,0.300468 1.75,1.358448 4.67725,2.249289 7.13751,2.651316 3.5,0.571929 -3.01313,-1.722462 -2.08777,-1.952744 1.42159,-0.353772 1.38363,0.630425 2.23099,1.606898 1.88301,2.169939 -0.38765,0.627233 0.0319,0.768683 1.08329,0.365226 0.94379,-0.362166 1.48172,-0.279441 1.1954,0.183833 -0.70115,1.134487 4.28327,3.335278 5.64615,2.49297 0.69157,-0.42741 0.78538,-0.191193 0.26102,0.657234 -0.58004,0.938533 -0.37253,1.153293 0.71219,0.737048 1.83702,-0.70493 9.29735,3.580286 9.29735,5.340402 0,0.682249 0.62514,1.448833 1.3892,1.703519 0.94139,0.313798 1.12669,0.03832 0.57483,-0.854595 -2.04395,-3.307183 10.01485,6.534404 19.0633,15.558191 9.54649,9.52048 23.0966,27.68144 21.98972,29.47241 -0.27621,0.44692 1.94157,5.92345 4.9284,12.17008 6.22961,13.02856 12.22629,29.97901 15.6282,44.17524 1.67747,7.00016 2.5775,9.29606 3.1361,8 0.45404,-1.05347 0.57608,0.0743 0.29025,2.68227 -0.37438,3.41599 -0.25394,4.01822 0.5,2.5 0.75394,-1.51822 0.87438,-0.91599 0.5,2.5 -0.36994,3.3755 -0.249,4.00022 0.48399,2.5 0.7256,-1.4851 0.85965,-0.71275 0.52069,3 -0.35366,3.8737 -0.24463,4.43685 0.48402,2.5 0.71701,-1.9059 0.83852,-1.19299 0.5113,3 -0.31729,4.06578 -0.19347,4.84808 0.47484,3 0.64876,-1.79403 0.79117,-0.66447 0.5043,4 -0.29507,4.7978 -0.17236,5.71437 0.4686,3.5 0.63609,-2.19757 0.77263,-1.12766 0.51049,4 -0.27765,5.43089 -0.16438,6.21544 0.5053,3.5 0.63253,-2.56479 0.77058,-1.22878 0.51666,5 -0.25696,6.30296 -0.13392,7.4661 0.47601,4.5 0.57641,-2.8031 0.72917,-0.85815 0.51052,6.5 -0.22242,7.48535 -0.0947,9.06445 0.44494,5.5 0.48211,-3.18463 0.68005,0.8092 0.54515,11 -0.14674,11.08597 -0.0191,13.38942 0.4157,7.5 0.34512,-4.675 0.62749,7.925 0.62749,28 0,20.075 -0.28162,32.45 -0.62583,27.5 -0.43908,-6.31446 -0.56006,-4.07652 -0.40544,7.5 0.1412,10.57168 -0.0562,14.70354 -0.54929,11.5 -0.56985,-3.70191 -0.68863,-2.40382 -0.45753,5 0.21496,6.88638 0.052,8.91023 -0.52337,6.5 -0.60565,-2.53706 -0.73961,-1.299 -0.48689,4.5 0.25526,5.85707 0.12227,7.06247 -0.49645,4.5 -0.62709,-2.5971 -0.74989,-1.56521 -0.47603,4 0.26727,5.43128 0.12672,6.67251 -0.50955,4.5 -0.66957,-2.28622 -0.78187,-1.57243 -0.472,3 0.30419,4.48848 0.17132,5.3702 -0.52741,3.5 -0.71075,-1.90237 -0.83465,-1.18521 -0.51827,3 0.31166,4.12283 0.18646,4.87401 -0.5,3 -0.68646,-1.87401 -0.81166,-1.12283 -0.5,3 0.23963,3.17 0.11029,4.45502 -0.30531,3.03332 -0.58551,-2.00295 -0.93855,-1.25091 -1.87783,4 -0.63622,3.55668 -0.95074,7.81668 -0.69893,9.46668 0.34466,2.25838 0.24816,2.51716 -0.39038,1.04681 -0.74662,-1.71925 -0.92215,-1.58351 -1.46552,1.13333 -1.78905,8.94527 -1.78413,8.90329 -0.79962,6.81986 1.21415,-2.56941 1.29294,0.19047 0.0856,3 -0.5986,1.39301 -0.90209,1.54476 -1,0.5 -0.17497,-1.86705 -1.85943,1.75656 -1.85943,4 0,0.94548 0.31771,0.76064 0.85943,-0.5 0.54172,-1.26064 0.85943,-1.44548 0.85943,-0.5 0,2.24372 -1.68443,5.86691 -1.85961,4 -0.13535,-1.44247 -1.94669,2.79153 -3.42248,8 -0.56383,1.98994 -0.4776,2.19396 0.42266,1 0.90218,-1.19651 0.99212,-0.99417 0.44454,1 -0.37755,1.375 -1.10352,3.175 -1.61325,4 -0.64344,1.0414 -0.72134,0.73566 -0.25481,-1 1.08842,-4.04933 -0.18316,-1.96908 -3.05631,5 -3.65693,8.87023 -3.99021,10.10199 -1.62344,6 2.45712,-4.25857 2.72827,-3.37848 0.43848,1.42324 -0.91563,1.92012 -2.11711,3.21157 -2.66994,2.86989 -0.60609,-0.37459 -0.74372,0.06 -0.34666,1.09477 0.44376,1.15642 0.28071,1.4825 -0.5,1 -0.78072,-0.48251 -0.94376,-0.15641 -0.5,1 0.44376,1.15642 0.28071,1.4825 -0.5,1 -0.78072,-0.48251 -0.94376,-0.15641 -0.5,1 0.44376,1.15642 0.28071,1.4825 -0.5,1 -0.75241,-0.46502 -0.95343,-0.18161 -0.57347,0.80853 0.79351,2.06786 -4.98992,12.07934 -6.45494,11.17391 -0.72744,-0.44959 -0.91585,-0.14017 -0.52882,0.86842 0.69315,1.80633 -1.50501,5.26124 -3.34744,5.26124 -0.686,0 -1.45565,0.62514 -1.71034,1.3892 -0.31509,0.94529 -0.0392,1.12724 0.86334,0.56944 3.18794,-1.97026 -4.28566,6.89821 -13.99788,16.61043 -9.71221,9.71222 -18.58069,17.18582 -16.61043,13.99788 0.55781,-0.90256 0.37585,-1.17843 -0.56943,-0.86334 -0.76406,0.25469 -1.3892,0.95056 -1.3892,1.54639 0,0.59583 -0.40965,1.45834 -0.91033,1.91667 -0.53745,0.492 -0.58284,0.26819 -0.1108,-0.5464 0.54685,-0.9437 0.3605,-1.23339 -0.58967,-0.91666 -0.76406,0.25469 -1.3892,1.0899 -1.3892,1.85603 0,1.29154 -18.76502,11.90743 -21,11.88029 -0.55,-0.007 3.86088,-2.52252 9.80196,-5.59075 5.94107,-3.06822 10.66607,-5.70846 10.5,-5.86718 -0.16608,-0.15873 -6.15196,2.63407 -13.30196,6.20621 -7.15,3.57215 -11.875,6.20714 -10.5,5.85556 3.31079,-0.84658 0.48496,0.94386 -3,1.90078 -2.02009,0.5547 -2.21206,0.46383 -1,-0.47337 1.2706,-0.98246 1.21816,-1.06829 -0.3429,-0.56124 -1.0136,0.32923 -2.96886,0.8812 -4.34502,1.22659 -1.61139,0.40443 -2.07848,0.88982 -1.31208,1.36348 0.75556,0.46696 0.19953,0.98409 -1.52298,1.41641 -1.49216,0.37451 -2.95992,0.43403 -3.26169,0.13226 C 360.91357,533.2469 361.49167,533 362.5,533 c 1.00833,0 1.61592,-0.21741 1.35019,-0.48314 -0.26572,-0.26573 -5.17822,0.57918 -10.91666,1.87756 -7.36185,1.66571 -9.69752,2.51875 -7.93353,2.89753 1.375,0.29526 -0.2,0.37083 -3.5,0.16794 -4.56525,-0.28068 -5.28263,-0.16263 -3,0.49366 2.18514,0.62826 1.09866,0.76534 -4,0.50468 -5.17691,-0.26467 -6.08845,-0.14603 -3.5,0.4555 2.3373,0.54318 -0.15419,0.73099 -7.5,0.56538 -7.47282,-0.16847 -9.07608,-0.0446 -5,0.38645 3.3,0.34894 -4.8,0.63444 -18,0.63444 -13.2,0 -21.3,-0.2855 -18,-0.63444 z m 55.68214,-4.24703 C 373.98699,529.88932 399.19188,517.98855 420,496.98732 457.41671,459.22336 475.02888,396.13794 474.99011,300.01707 474.9688,247.17656 469.40458,204.39928 458.08696,170.06704 437.00288,106.108 397.46816,73.256152 331.5,64.878099 318.61598,63.241809 281.25838,63.252074 269,64.895273 211.37174,72.620164 176.22684,96.738421 153.00074,144.5 c -12.30537,25.30447 -19.99889,55.43585 -24.70452,96.75431 -2.52666,22.18572 -2.52485,96.52041 0.003,118.74569 4.78166,42.04302 11.9804,70.23432 24.70306,96.74081 23.19337,48.32126 61.29194,73.78225 119.99783,80.19367 12.51869,1.3672 53.59658,0.53789 65.18214,-1.31595 z M 284.04199,505.07845 C 283.34495,503.77603 283,477.37729 283,425.33635 v -77.79513 l -32.28561,32.22939 C 232.95731,397.49677 217.74675,412 216.91316,412 215.34987,412 191,387.99872 191,386.45781 c 0,-0.47511 18.98762,-19.91525 42.1947,-43.2003 l 42.1947,-42.33647 -42.1947,-42.23791 C 209.98762,235.45228 191,215.82425 191,215.06528 191,212.79146 214.1332,190 216.44112,190 c 1.35412,0 12.97103,10.91963 34.3032,32.24423 L 283,254.48846 v -78.16244 c 0,-42.98935 0.27314,-78.874249 0.60699,-79.744233 C 283.94083,95.711804 284.7297,95 285.36004,95 287.08784,95 409,217.27483 409,219.00777 409,219.83372 391.225,238.28022 369.5,260 347.775,281.71978 330,299.94481 330,300.50006 c 0,0.55526 17.57785,18.55739 39.0619,40.00475 21.48404,21.44735 39.53056,39.84002 40.10336,40.87258 0.90952,1.63954 -6.66824,9.59769 -59.8119,62.81438 -33.46935,33.51534 -61.62197,61.36373 -62.56137,61.88532 -1.28781,0.71503 -1.96436,0.46935 -2.75,-0.99864 z m 63.71922,-61.3478 C 380.89254,410.5825 408,383.01789 408,382.47596 408,381.93402 390,363.49484 368,341.5 c -22,-21.99484 -40,-40.44068 -40,-40.99074 0,-0.55006 18.11077,-19.11502 40.24615,-41.25546 L 408.4923,218.99844 347.55706,158.05707 C 314.04268,124.53931 286.25692,97.341218 285.81091,97.616862 285.36491,97.892507 285,133.64148 285,177.05902 285,250.68975 284.88564,256 283.3,256 c -1.24828,0 -1.40429,0.29571 -0.58713,1.11287 0.61207,0.61207 1.60207,0.81052 2.2,0.44098 C 285.68086,257.07921 286,233.70763 286,177.94098 c 0,-43.41754 0.3375,-78.941066 0.75,-78.941172 0.64178,-1.64e-4 0.12616,159.056582 -0.51787,159.750192 -1.19609,1.28817 -7.08683,-4.11427 -35.97664,-32.99442 l -33.25553,-33.24443 -11.24497,11.24497 -11.24497,11.24497 41.63242,41.74946 c 27.04926,27.1253 41.63241,42.45002 41.63241,43.74945 0,1.29943 -14.58315,16.62415 -41.63241,43.74945 l -41.63242,41.74946 11.23776,11.23776 11.23775,11.23775 33.41069,-33.3559 c 24.06622,-24.02675 33.78729,-33.1195 34.75723,-32.51067 1.02804,0.6453 0.87348,0.92928 -0.65345,1.20058 -1.1,0.19545 -16.73758,15.05353 -34.75018,33.01796 L 216.99964,409.489 205.25471,397.74407 193.50978,385.99915 235.25489,344.24516 C 258.2147,321.28047 277,302.25584 277,301.9682 c 0,-0.28764 -18.94706,18.44349 -42.10459,41.62472 -36.58205,36.61952 -41.97073,42.39426 -41.08406,44.0274 C 195.14633,390.0792 215.44078,410 216.6108,410 217.10621,410 232.13135,395.375 250,377.5 267.86865,359.625 283.05356,345 283.74423,345 284.74139,345 285,361.37186 285,424.5 c 0,63.31014 0.25684,79.5 1.26121,79.5 0.69366,0 28.36866,-27.12121 61.5,-60.26935 z M 286.24382,423.75 l 0.24381,-79.25 0.26234,78.49072 0.26233,78.49073 60.24385,-59.99073 L 407.5,381.5 347.0031,442.25 c -33.2733,33.4125 -60.6108,60.75 -60.75,60.75 -0.13921,0 -0.14338,-35.6625 -0.009,-79.25 z m 32.42285,-2.41667 C 318.3,420.96667 318,403.47177 318,382.45578 c 0,-33.44527 0.19512,-38.37283 1.56448,-39.5093 1.35233,-1.12233 4.20009,1.3346 21,18.11794 C 351.25402,371.74341 360,381.16442 360,382 c 0,1.70133 -37.9087,40 -39.59271,40 -0.59068,0 -1.37396,-0.3 -1.74062,-0.66667 z m 21.57371,-19.07346 C 350.55817,391.9528 359,382.82474 359,381.9753 359,379.82378 321.41878,342.62315 320.08069,343.45013 318.4188,344.47723 318.57638,421 320.24038,421 c 0.68221,0 9.68221,-8.43306 20,-18.74013 z M 320,382.5 C 320,353.33025 320.27542,345 321.23986,345 323.0361,345 358,380.19177 358,381.99972 358,383.48773 322.19914,420 320.74013,420 320.33306,420 320,403.125 320,382.5 Z m 36,0 c 0,-0.56213 -7.58129,-8.59352 -16.84732,-17.84752 l -16.84732,-16.82545 -0.64557,6.83648 c -0.87378,9.25314 -0.83771,60.82524 0.0432,61.70611 C 322.49842,417.16509 356,384.08104 356,382.5 Z m 9.74531,-41.25463 C 343.88539,319.38032 326,301.04488 326,300.49994 c 0,-0.54493 18.11075,-19.10568 40.24611,-41.24611 L 406.49222,218.99852 346.99716,159.24926 287.50211,99.5 l 59.9961,59.74821 59.99611,59.74821 -40.24716,40.25636 C 345.11122,281.39378 327,299.95501 327,300.49994 c 0,0.54494 17.88539,18.88038 39.74531,40.74543 C 388.60523,363.11042 406.26562,381 405.99062,381 c -0.275,0 -18.38539,-17.88958 -40.24531,-39.75463 z M 318.60699,257.41821 C 318.27314,256.54823 318,238.82137 318,218.0252 c 0,-34.3168 0.15351,-37.87013 1.66105,-38.44863 1.22453,-0.46989 6.74318,4.42049 21,18.60929 C 351.29747,208.77153 360,218.12705 360,218.97589 360,220.73151 322.08693,259 320.34761,259 c -0.6235,0 -1.40678,-0.7118 -1.74062,-1.58179 z m 21.63339,-18.15834 C 350.55817,228.9528 359,219.84474 359,219.01974 359,216.89786 322.8943,181 320.76014,181 319.11097,181 319,183.38525 319,218.83333 319,253.58402 319.21502,258 320.90705,258 c 0.31554,0 9.01554,-8.43306 19.33333,-18.74013 z M 320,219 c 0,-20.35 0.34206,-37 0.76014,-37 C 321.89267,182 358,218.3593 358,219.49973 358,220.95788 322.72812,256 321.26042,256 320.26924,256 320,248.09645 320,219 Z m 36,0.52175 C 356,218.36687 322.90645,185 321.76103,185 c -0.92712,0 -1.02137,54.2158 -0.10942,62.94087 l 0.65161,6.23424 16.84839,-16.82652 C 348.41822,228.094 356,220.07192 356,219.52175 Z m -120.539,37.43924 -41.95122,-41.96014 11.74489,-11.74488 11.74488,-11.74488 32.75022,32.49252 32.75023,32.49253 -32.74313,-32.98929 -32.74313,-32.98929 -12.01078,11.97949 c -6.60593,6.58872 -11.89652,12.3041 -11.75687,12.70085 0.58291,1.65603 83.05298,84.83637 83.58474,84.3046 0.31976,-0.31976 -18.29667,-19.46344 -41.36983,-42.54151 z m -34.011,259.2452 c -0.5225,-0.43659 -4.42343,-3.39848 -8.66873,-6.58196 -10.24619,-7.68347 -22.23129,-20.49209 -29.82175,-31.87086 -6.88363,-10.31917 -7.91975,-11.6406 -5.68734,-7.25337 3.09675,6.08588 13.84563,20.14468 20.93195,27.37758 6.43517,6.56828 21.9174,19.12242 23.58246,19.12242 0.33738,0 0.18591,-0.35721 -0.33659,-0.79381 z M 421.59511,498.59511 C 427.69742,492.4928 433.25655,486.375 433.94872,485 c 0.74693,-1.48377 -0.0766,-0.87403 -2.02604,1.5 -4.30013,5.23682 -18.469,19.39414 -22.92268,22.90399 -2.37634,1.87275 -2.69738,2.36146 -1,1.52226 1.375,-0.67981 7.4928,-6.22883 13.59511,-12.33114 z M 439,478 c 0.5887,-1.1 0.84537,-2 0.57037,-2 -0.275,0 -0.98167,0.9 -1.57037,2 -0.5887,1.1 -0.84537,2 -0.57037,2 0.275,0 0.98167,-0.9 1.57037,-2 z m 6.059,-10.25 c 1.08991,-2.0625 1.78597,-3.75 1.54682,-3.75 -0.52404,0 -5.61228,8.98867 -5.59051,9.87595 0.0211,0.85993 1.6806,-1.6541 4.04369,-6.12595 z M 135.68311,413.8125 c -0.31922,-0.79773 -0.55618,-0.56078 -0.60416,0.60417 -0.0434,1.05416 0.19292,1.64479 0.52522,1.3125 0.33229,-0.33229 0.36781,-1.1948 0.0789,-1.91667 z M 441.99592,128.25 C 438.03455,121.50264 431.34154,112.62408 425.07797,105.80763 419.42456,99.655183 408.59579,90.370824 405,88.593198 c -0.825,-0.407849 -0.15064,0.304334 1.49859,1.582629 13.51275,10.473593 24.16957,22.009563 32.86306,35.574173 4.36691,6.81378 6.17346,8.52824 2.63427,2.5 z M 161.96245,124.5 c 0.007,-1.07007 -1.37733,0.73823 -3.06305,4 -0.68654,1.32841 -0.34697,1.16051 1.01125,-0.5 1.12468,-1.375 2.04799,-2.95 2.0518,-3.5 z m 12.2613,-15.66369 C 180.10899,101.98169 190.44211,92.721109 197.18269,88.2604 199.28221,86.871005 201,85.517272 201,85.252104 c 0,-1.50833 -12.3449,8.00147 -20.32654,15.658396 -5.6176,5.38906 -14.54878,15.9916 -16.08026,19.0895 -0.40785,0.825 0.30433,0.15064 1.58263,-1.49859 1.27829,-1.64922 4.89986,-5.99852 8.04792,-9.6651 z M 400,84.948096 c -2.50316,-1.704278 -7.55041,-4.255837 -6.75758,-3.416184 1.26271,1.337275 6.20333,4.318755 7.25758,4.379676 0.55,0.03178 0.325,-0.401789 -0.5,-0.963492 z M 358.72917,67.395833 c -0.33229,-0.332291 -1.1948,-0.367818 -1.91667,-0.07895 -0.79773,0.319226 -0.56078,0.556183 0.60417,0.604167 1.05416,0.04342 1.64479,-0.192928 1.3125,-0.52522 z M 348.75,536.33772 c 0.6875,-0.27741 1.8125,-0.27741 2.5,0 0.6875,0.27741 0.125,0.50439 -1.25,0.50439 -1.375,0 -1.9375,-0.22698 -1.25,-0.50439 z m -102.9375,-1.02083 c 0.72187,-0.28887 1.58437,-0.25335 1.91667,0.0789 0.33229,0.33229 -0.25834,0.56864 -1.3125,0.52522 -1.16495,-0.048 -1.4019,-0.28494 -0.60417,-0.60416 z m 108,0 c 0.72187,-0.28887 1.58438,-0.25335 1.91667,0.0789 0.33229,0.33229 -0.25834,0.56864 -1.3125,0.52522 -1.16495,-0.048 -1.4019,-0.28494 -0.60417,-0.60416 z m -112,-1 c 0.72187,-0.28887 1.58437,-0.25335 1.91667,0.0789 0.33229,0.33229 -0.25834,0.56864 -1.3125,0.52522 -1.16495,-0.048 -1.4019,-0.28494 -0.60417,-0.60416 z m 116,0 c 0.72187,-0.28887 1.58438,-0.25335 1.91667,0.0789 0.33229,0.33229 -0.25834,0.56864 -1.3125,0.52522 -1.16495,-0.048 -1.4019,-0.28494 -0.60417,-0.60416 z M 224,529 c -0.825,-0.53316 -1.05,-0.96937 -0.5,-0.96937 0.55,0 1.675,0.43621 2.5,0.96937 0.825,0.53316 1.05,0.96937 0.5,0.96937 -0.55,0 -1.675,-0.43621 -2.5,-0.96937 z m -73.05108,-68.10119 c -1.69393,-3.35566 -2.91486,-6.2662 -2.71319,-6.46788 0.20168,-0.20167 1.80194,2.54386 3.55614,6.10119 1.7542,3.55734 2.97514,6.46788 2.71319,6.46788 -0.26195,0 -1.86221,-2.74554 -3.55614,-6.10119 z M 455.03063,447.5 c 0,-0.55 0.43621,-1.675 0.96937,-2.5 0.53316,-0.825 0.96937,-1.05 0.96937,-0.5 0,0.55 -0.43621,1.675 -0.96937,2.5 -0.53316,0.825 -0.96937,1.05 -0.96937,0.5 z m -311.40709,-3.03866 c -0.96498,-2.51469 -0.68031,-3.16355 0.49853,-1.13634 0.58369,1.00375 0.8506,2.03566 0.59313,2.29313 -0.25747,0.25747 -0.74872,-0.26309 -1.09166,-1.15679 z m -4.01107,-11.08528 c -0.88686,-2.60279 -1.57959,-5.21468 -1.5394,-5.8042 0.0402,-0.58952 0.93876,1.36707 1.99683,4.34797 1.05807,2.98091 1.7508,5.5928 1.5394,5.8042 -0.2114,0.2114 -1.10997,-1.74519 -1.99683,-4.34797 z m -3.53352,-11.95939 c 0.048,-1.16495 0.28494,-1.4019 0.60416,-0.60417 0.28887,0.72187 0.25335,1.58438 -0.0789,1.91667 -0.3323,0.33229 -0.56864,-0.25834 -0.52522,-1.3125 z m 330,-8 c 0.048,-1.16495 0.28494,-1.4019 0.60416,-0.60417 0.28887,0.72187 0.25335,1.58438 -0.0789,1.91667 -0.33229,0.33229 -0.56864,-0.25834 -0.52522,-1.3125 z m -333,-4 c 0.048,-1.16495 0.28494,-1.4019 0.60416,-0.60417 0.28887,0.72187 0.25335,1.58438 -0.0789,1.91667 -0.3323,0.33229 -0.56864,-0.25834 -0.52522,-1.3125 z m -1,-4 c 0.048,-1.16495 0.28494,-1.4019 0.60416,-0.60417 0.28887,0.72187 0.25335,1.58438 -0.0789,1.91667 -0.3323,0.33229 -0.56864,-0.25834 -0.52522,-1.3125 z m 336,-1 c 0.048,-1.16495 0.28494,-1.4019 0.60416,-0.60417 0.28887,0.72187 0.25335,1.58438 -0.0789,1.91667 -0.33229,0.33229 -0.56864,-0.25834 -0.52522,-1.3125 z M 131.15789,401 c 0,-1.375 0.22698,-1.9375 0.50439,-1.25 0.27741,0.6875 0.27741,1.8125 0,2.5 -0.27741,0.6875 -0.50439,0.125 -0.50439,-1.25 z m 338,-1 c 0,-1.375 0.22698,-1.9375 0.50439,-1.25 0.27741,0.6875 0.27741,1.8125 0,2.5 -0.27741,0.6875 -0.50439,0.125 -0.50439,-1.25 z m -340,-10 c 0,-1.375 0.22698,-1.9375 0.50439,-1.25 0.27741,0.6875 0.27741,1.8125 0,2.5 -0.27741,0.6875 -0.50439,0.125 -0.50439,-1.25 z m -6.76617,-89 c 0,-7.425 0.15742,-10.4625 0.34983,-6.75 0.19241,3.7125 0.19241,9.7875 0,13.5 -0.19241,3.7125 -0.34983,0.675 -0.34983,-6.75 z M 467.07895,192.41667 c 0.048,-1.16495 0.28494,-1.4019 0.60416,-0.60417 0.28887,0.72187 0.25335,1.58437 -0.0789,1.91667 -0.33229,0.33229 -0.56864,-0.25834 -0.52522,-1.3125 z m -334,-1 c 0.048,-1.16495 0.28494,-1.4019 0.60416,-0.60417 0.28887,0.72187 0.25335,1.58437 -0.0789,1.91667 -0.3323,0.33229 -0.56864,-0.25834 -0.52522,-1.3125 z m 333,-3 c 0.048,-1.16495 0.28494,-1.4019 0.60416,-0.60417 0.28887,0.72187 0.25335,1.58437 -0.0789,1.91667 -0.33229,0.33229 -0.56864,-0.25834 -0.52522,-1.3125 z m -332,-1 c 0.048,-1.16495 0.28494,-1.4019 0.60416,-0.60417 0.28887,0.72187 0.25335,1.58437 -0.0789,1.91667 -0.3323,0.33229 -0.56864,-0.25834 -0.52522,-1.3125 z m 331,-3 c 0.048,-1.16495 0.28494,-1.4019 0.60416,-0.60417 0.28887,0.72187 0.25335,1.58437 -0.0789,1.91667 -0.33229,0.33229 -0.56864,-0.25834 -0.52522,-1.3125 z m -330,-1 c 0.048,-1.16495 0.28494,-1.4019 0.60416,-0.60417 0.28887,0.72187 0.25335,1.58437 -0.0789,1.91667 -0.3323,0.33229 -0.56864,-0.25834 -0.52522,-1.3125 z m 329,-3 c 0.048,-1.16495 0.28494,-1.4019 0.60416,-0.60417 0.28887,0.72187 0.25335,1.58437 -0.0789,1.91667 -0.33229,0.33229 -0.56864,-0.25834 -0.52522,-1.3125 z m -327,-4 c 0.048,-1.16495 0.28494,-1.4019 0.60416,-0.60417 0.28887,0.72187 0.25335,1.58437 -0.0789,1.91667 -0.3323,0.33229 -0.56864,-0.25834 -0.52522,-1.3125 z m 323.14327,-8.13889 c -1.19201,-3.66633 -2.0009,-6.83243 -1.79754,-7.03579 0.20336,-0.20336 1.36225,2.61274 2.57532,6.25801 1.21307,3.64527 2.02196,6.81137 1.79754,7.03579 -0.22441,0.22442 -1.38331,-2.59169 -2.57532,-6.25801 z M 142.03063,161.5 c 0,-0.55 0.43621,-1.675 0.96937,-2.5 0.53316,-0.825 0.96937,-1.05 0.96937,-0.5 0,0.55 -0.43621,1.675 -0.96937,2.5 -0.53316,0.825 -0.96937,1.05 -0.96937,0.5 z m 314.59291,-3.03866 c -0.96498,-2.51469 -0.68031,-3.16355 0.49853,-1.13634 0.58369,1.00375 0.8506,2.03566 0.59313,2.29313 -0.25747,0.25747 -0.74872,-0.26309 -1.09166,-1.15679 z M 144.03063,156.5 c 0,-0.55 0.43621,-1.675 0.96937,-2.5 0.53316,-0.825 0.96937,-1.05 0.96937,-0.5 0,0.55 -0.43621,1.675 -0.96937,2.5 -0.53316,0.825 -0.96937,1.05 -0.96937,0.5 z m 310.59291,-3.03866 c -0.96498,-2.51469 -0.68031,-3.16355 0.49853,-1.13634 0.58369,1.00375 0.8506,2.03566 0.59313,2.29313 -0.25747,0.25747 -0.74872,-0.26309 -1.09166,-1.15679 z m -5.41202,-11.9989 C 446.9032,136.8081 445.23128,133 445.49613,133 c 0.66628,0 8.71568,16.12152 8.27129,16.56592 -0.19743,0.19742 -2.24759,-3.44914 -4.5559,-8.10348 z M 207,80.507327 c 0,-0.677431 8.12258,-4.718082 8.57497,-4.265695 0.20963,0.209635 -1.63398,1.360179 -4.09691,2.556765 C 209.01513,79.994982 207,80.764001 207,80.507327 Z M 388,78 c -0.90129,-0.58246 -1.02463,-0.975486 -0.30902,-0.984687 0.65504,-0.0084 1.4691,0.434687 1.80902,0.984687 0.7673,1.241525 0.42112,1.241525 -1.5,0 z M 220,74 c 0.825,-0.533156 1.95,-0.969374 2.5,-0.969374 0.55,0 0.325,0.436218 -0.5,0.969374 -0.825,0.533156 -1.95,0.969374 -2.5,0.969374 -0.55,0 -0.325,-0.436218 0.5,-0.969374 z m 5,-2 c 0.825,-0.533156 1.95,-0.969374 2.5,-0.969374 0.55,0 0.325,0.436218 -0.5,0.969374 -0.825,0.533156 -1.95,0.969374 -2.5,0.969374 -0.55,0 -0.325,-0.436218 0.5,-0.969374 z m 10.8125,-3.683114 c 0.72187,-0.288871 1.58437,-0.253344 1.91667,0.07895 0.33229,0.332292 -0.25834,0.568641 -1.3125,0.52522 -1.16495,-0.04798 -1.4019,-0.284941 -0.60417,-0.604167 z m 7,-2 c 0.72187,-0.288871 1.58437,-0.253344 1.91667,0.07895 0.33229,0.332292 -0.25834,0.568641 -1.3125,0.52522 -1.16495,-0.04798 -1.4019,-0.284941 -0.60417,-0.604167 z M 346.75,64.337719 c 0.6875,-0.277412 1.8125,-0.277412 2.5,0 0.6875,0.277413 0.125,0.504386 -1.25,0.504386 -1.375,0 -1.9375,-0.226973 -1.25,-0.504386 z m -55.44806,-4.083847 c 5.39107,-0.180152 13.94107,-0.179366 19,0.0017 5.05893,0.181113 0.64806,0.32851 -9.80194,0.327549 -10.45,-9.61e-4 -14.58913,-0.149144 -9.19806,-0.329296 z"
     id="path14"
     inkscape:connector-curvature="0"
     sodipodi:nodetypes="cscccsccccscccscccccccccssscscccsccscccsccccsccccccsscsscsscscssscscccsscscsscccccccccssscsscsscsccccsscssscssscssssscscscccccscscssscscccssccscscccsscccscsccccsccscscscccccsccscsscscccccsssscccccsscccccccccccssccsccscccscscccccccsccscccssccscsccssssssscsscccscsssscsssscscssssscsccssssscscssscscsscccssscccsscscccssscssssssccccccsscccscssscsssssssssssscscsssscccccssssscscssscsssssssssssssscssscccccccsccsccsssscsccccsssssscscccccccccscsccccccssscscccccccsccssssccccccccccccccccccccssssscccscssssscssccccsccccccccccccccccccccccccccssssssssssssssssccccccccccccccccccccccccccccccccccccccccssscsssssscsscssssscssccsccscsssccsssssssssssccccccccccccscccscc" />
  <path
     style="opacity:1;fill:#0082fc;fill-opacity:1;fill-rule:evenodd;stroke:none;stroke-width:0.27223563;stroke-linecap:square;stroke-linejoin:round;stroke-miterlimit:4;stroke-dasharray:none;stroke-dashoffset:0;stroke-opacity:1;paint-order:markers stroke fill"
     d="m 273.37761,536.423 c -34.57105,-3.04469 -66.58188,-16.10482 -88.12257,-35.95325 -33.20061,-30.59229 -53.27976,-84.6832 -57.45926,-154.78856 -1.4283,-23.95781 -0.52262,-94.16733 1.40534,-108.94388 6.72468,-51.54029 17.20621,-84.16654 36.25797,-112.86155 29.73988,-44.79307 82.62832,-64.537801 158.26489,-59.084701 21.79657,1.571447 45.81621,7.781273 62.69297,16.208088 48.36181,24.147763 75.74551,74.366173 84.92277,155.738163 3.60186,31.93666 4.05289,83.64049 1.02104,117.04714 -6.33885,69.84492 -23.75364,115.29123 -55.80479,145.63031 -24.46462,23.15781 -55.70995,35.00815 -97.92684,37.14047 -20.0973,1.01509 -32.64035,0.97844 -45.25152,-0.13223 z m 70.58882,-86.43102 c 53.09647,-53.04611 65.75886,-66.20648 65.75886,-68.34493 0,-0.47055 -17.89631,-18.91216 -39.76957,-40.98139 l -39.76957,-40.12586 14.82271,-15.01945 c 8.15249,-8.26069 26.07391,-26.47075 39.82539,-40.4668 l 25.00268,-25.44736 -1.91354,-2.46388 C 404.50943,212.74648 325.0328,132.3901 304.97223,113.05154 288.51521,97.186842 285.26643,94.432816 284.1256,95.379623 c -1.18276,0.981602 -1.35145,10.912377 -1.35145,79.561747 v 78.44014 l -24.0847,-23.89969 c -32.84939,-32.59708 -40.33768,-39.56337 -42.52784,-39.56337 -2.28759,0 -25.22445,22.4149 -25.22445,24.65044 0,1.57459 33.04995,36.07296 65.61329,68.48882 l 18.0407,17.95897 -41.827,42.10928 c -23.00484,23.16011 -41.82699,42.59723 -41.82699,43.1936 0,1.91076 24.12791,25.98847 26.04265,25.98847 0.50955,0 15.42044,-14.16354 33.13531,-31.47452 l 32.20885,-31.47453 0.45018,77.61811 c 0.2476,42.68996 0.77797,78.12456 1.1786,78.74356 0.40062,0.619 1.26328,1.12545 1.917,1.12545 0.65374,0 26.79724,-25.58435 58.09668,-56.85412 z"
     id="path18"
     inkscape:connector-curvature="0" />
  <path
     style="opacity:1;fill:#0082fc;fill-opacity:1;fill-rule:evenodd;stroke:none;stroke-width:0.27223563;stroke-linecap:square;stroke-linejoin:round;stroke-miterlimit:4;stroke-dasharray:none;stroke-dashoffset:0;stroke-opacity:1;paint-order:markers stroke fill"
     d="m 322.07643,247.48842 c -0.82155,-7.86018 -0.73617,-61.17142 0.098,-61.17142 0.37656,0 7.95052,7.27429 16.83103,16.16509 15.49103,15.50898 16.09953,16.25262 14.99223,18.32164 -0.63479,1.1861 -7.94474,8.93833 -16.24435,17.22716 l -15.09019,15.07061 z"
     id="path20"
     inkscape:connector-curvature="0" />
  <path
     style="opacity:1;fill:#0082fc;fill-opacity:1;fill-rule:evenodd;stroke:none;stroke-width:0.27223563;stroke-linecap:square;stroke-linejoin:round;stroke-miterlimit:4;stroke-dasharray:none;stroke-dashoffset:0;stroke-opacity:1;paint-order:markers stroke fill"
     d="m 321.49615,388.22332 c 0.004,-14.73218 0.26798,-29.5559 0.58769,-32.94159 l 0.5813,-6.1558 16.06901,16.05041 c 8.83796,8.82773 16.06902,16.69604 16.06902,17.48515 0,1.5745 -30.76428,32.34762 -32.33833,32.34762 -0.67817,0 -0.97314,-8.15632 -0.96869,-26.78579 z"
     id="path22"
     inkscape:connector-curvature="0" />
  <path
     style="opacity:1;fill:#ff0000;fill-opacity:1;fill-rule:evenodd;stroke:none;stroke-width:0.27223563;stroke-linecap:square;stroke-linejoin:round;stroke-miterlimit:4;stroke-dasharray:none;stroke-dashoffset:0;stroke-opacity:1;paint-order:markers stroke fill"
     d="m 268.66119,535.57175 c -34.94596,-4.07187 -65.47391,-17.93581 -86.77372,-39.40734 -27.05685,-27.275 -43.34585,-66.71367 -51.36853,-124.3727 -1.71813,-12.34824 -1.98977,-19.23228 -2.35843,-59.76829 -0.48206,-53.0059 0.3172,-70.50704 4.30164,-94.19157 5.16005,-30.67266 11.24687,-51.33231 21.22209,-72.03117 8.52611,-17.69192 15.89325,-28.28915 28.1877,-40.54646 15.55058,-15.50361 29.88467,-24.176527 51.88173,-31.391302 20.39878,-6.69056 39.23555,-9.297133 67.02774,-9.275088 28.56205,0.02266 47.77006,2.854388 69.09395,10.186146 63.28095,21.757784 96.58233,81.945874 102.94388,186.058204 1.37085,22.43524 0.60157,80.48916 -1.29736,97.90427 -7.45168,68.33976 -23.82819,110.06466 -54.79822,139.61768 -23.32242,22.25531 -51.60329,33.87737 -90.7321,37.28644 -12.14456,1.05809 -48.02864,1.01501 -57.33037,-0.0688 z m 63.70372,-73.51869 c 49.5265,-49.04986 77.36038,-77.85059 77.36038,-80.04761 0,-1.34399 -13.92369,-15.82782 -58.9213,-61.29168 l -19.81017,-20.01543 3.57633,-3.78342 c 1.96696,-2.08089 19.68155,-20.16397 39.36572,-40.18462 19.68418,-20.02065 35.78942,-37.00428 35.78942,-37.74138 0,-1.83989 -120.58143,-122.384918 -123.19245,-123.155261 -1.15151,-0.339739 -2.367,-0.344471 -2.70108,-0.01052 -0.33408,0.333956 -0.81001,35.635961 -1.05761,78.448901 l -0.45018,77.84169 -31.34125,-30.64377 c -17.23769,-16.85407 -32.32055,-30.88956 -33.51746,-31.18997 -1.59818,-0.40111 -3.07862,0.17384 -5.57362,2.16461 -5.76671,4.6013 -20.95448,20.55294 -20.95448,22.00841 0,1.68232 20.6522,23.67538 56.01219,59.64884 l 26.54976,27.01038 -41.28097,42.06447 c -22.70454,23.13547 -41.28098,42.71582 -41.28098,43.51189 0,1.84622 23.81897,25.61944 25.66875,25.61944 1.41553,0 8.95814,-7.08249 44.55763,-41.83948 l 20.26007,-19.78059 0.55188,36.4373 c 0.30353,20.04052 0.6074,52.07625 0.67527,71.19051 0.14636,41.22287 0.58107,48.53033 2.88691,48.53033 0.90416,0 21.25166,-19.46359 46.82724,-44.79304 z"
     id="path62"
     inkscape:connector-curvature="0" />
  <path
     style="opacity:1;fill:#ff0000;fill-opacity:1;fill-rule:evenodd;stroke:none;stroke-width:0.27223563;stroke-linecap:square;stroke-linejoin:round;stroke-miterlimit:4;stroke-dasharray:none;stroke-dashoffset:0;stroke-opacity:1;paint-order:markers stroke fill"
     d="m 322.19535,231.11004 c -0.2651,-11.01819 -0.22844,-25.41924 0.0815,-32.00234 l 0.56347,-11.96927 15.53126,15.62904 c 8.54219,8.59598 15.53125,16.18357 15.53125,16.86131 0,1.18666 -29.50474,31.51433 -30.6592,31.51433 -0.31143,0 -0.78315,-9.01488 -1.04825,-20.03307 z"
     id="path66"
     inkscape:connector-curvature="0" />
  <path
     style="opacity:1;fill:#ff0000;fill-opacity:1;fill-rule:evenodd;stroke:none;stroke-width:0.27223563;stroke-linecap:square;stroke-linejoin:round;stroke-miterlimit:4;stroke-dasharray:none;stroke-dashoffset:0;stroke-opacity:1;paint-order:markers stroke fill"
     d="m 322.09728,404.18202 c -0.63399,-11.08052 0.27324,-53.09866 1.14647,-53.09866 1.15116,0 30.65905,30.32605 30.65905,31.50913 0,1.25281 -27.18648,29.20735 -29.80182,30.64376 -1.2669,0.69581 -1.50825,-0.39478 -2.0037,-9.05423 z"
     id="path68"
     inkscape:connector-curvature="0" />
</svg>
