<?xml version="1.0" encoding="UTF-8" standalone="no"?>
<!-- Generator: Adobe Illustrator 18.0.0, SVG Export Plug-In . SVG Version: 6.00 Build 0)  -->

<svg
   xmlns:dc="http://purl.org/dc/elements/1.1/"
   xmlns:cc="http://creativecommons.org/ns#"
   xmlns:rdf="http://www.w3.org/1999/02/22-rdf-syntax-ns#"
   xmlns:svg="http://www.w3.org/2000/svg"
   xmlns="http://www.w3.org/2000/svg"
   xmlns:sodipodi="http://sodipodi.sourceforge.net/DTD/sodipodi-0.dtd"
   xmlns:inkscape="http://www.inkscape.org/namespaces/inkscape"
   version="1.1"
   id="Capa_1"
   x="0px"
   y="0px"
   viewBox="0 0 228.403 228.403"
   style="enable-background:new 0 0 228.403 228.403;"
   xml:space="preserve"
   sodipodi:docname="google_translate.svg"
   inkscape:version="0.92.3 (2405546, 2018-03-11)"><metadata
   id="metadata39"><rdf:RDF><cc:Work
       rdf:about=""><dc:format>image/svg+xml</dc:format><dc:type
         rdf:resource="http://purl.org/dc/dcmitype/StillImage" /></cc:Work></rdf:RDF></metadata><defs
   id="defs37" /><sodipodi:namedview
   pagecolor="#ffffff"
   bordercolor="#666666"
   borderopacity="1"
   objecttolerance="10"
   gridtolerance="10"
   guidetolerance="10"
   inkscape:pageopacity="0"
   inkscape:pageshadow="2"
   inkscape:window-width="1920"
   inkscape:window-height="1098"
   id="namedview35"
   showgrid="false"
   inkscape:zoom="2.9225045"
   inkscape:cx="31.084573"
   inkscape:cy="94.092905"
   inkscape:window-x="0"
   inkscape:window-y="81"
   inkscape:window-maximized="0"
   inkscape:current-layer="Capa_1" />
<path
   d="M215.428,73.112h-79.797l-12.998-56.41H12.977C5.821,16.701,0,22.523,0,29.678v112.637c0,7.155,5.821,12.977,12.977,12.977  h79.794l12.999,56.41h109.659c7.154,0,12.975-5.821,12.975-12.977V86.088C228.403,78.933,222.583,73.112,215.428,73.112z   M15,140.291V31.701h95.696l25.022,108.59H15z M108.164,155.291h28.195l-21.134,30.643L108.164,155.291z M213.403,196.701H126.02  l16.195-23.481l2.458,4.004c9.801-6.018,17.538-13.048,23.646-20.203l18.985,19.366l7.856-7.701l-20.103-20.506  c8.455-12.449,12.418-24.163,14.078-30.381h12.897v-11h-27.322v-6.555h-11v6.555h-20.317l-4.306-18.688h74.314V196.701z   M154.565,155.291h0.003l-3.705-16.078l9.689,9.883c-1.989,2.39-4.18,4.765-6.588,7.089l0.611-0.887L154.565,155.291z   M154.44,127.148l-5.186,5.084l-3.326-14.433h31.73c-1.684,5.371-4.87,13.541-10.514,22.309L154.44,127.148z M67.831,78.495h37.074  v7.5c0,20.442-16.631,37.074-37.074,37.074s-37.074-16.632-37.074-37.074c0-20.442,16.631-37.073,37.074-37.073  c8.261,0,16.077,2.658,22.603,7.686l-9.155,11.883c-3.878-2.989-8.528-4.568-13.448-4.568c-12.171,0-22.074,9.902-22.074,22.073  c0,12.172,9.902,22.074,22.074,22.074c9.539,0,17.685-6.084,20.762-14.574H67.831V78.495z"
   id="path2"
   style="fill:#85008f;fill-opacity:1" />
<g
   id="g4">
</g>
<g
   id="g6">
</g>
<g
   id="g8">
</g>
<g
   id="g10">
</g>
<g
   id="g12">
</g>
<g
   id="g14">
</g>
<g
   id="g16">
</g>
<g
   id="g18">
</g>
<g
   id="g20">
</g>
<g
   id="g22">
</g>
<g
   id="g24">
</g>
<g
   id="g26">
</g>
<g
   id="g28">
</g>
<g
   id="g30">
</g>
<g
   id="g32">
</g>
</svg>