<?xml version="1.0" encoding="UTF-8" standalone="no"?>
<!-- Generator: Adobe Illustrator 18.0.0, SVG Export Plug-In . SVG Version: 6.00 Build 0)  -->

<svg
   xmlns:dc="http://purl.org/dc/elements/1.1/"
   xmlns:cc="http://creativecommons.org/ns#"
   xmlns:rdf="http://www.w3.org/1999/02/22-rdf-syntax-ns#"
   xmlns:svg="http://www.w3.org/2000/svg"
   xmlns="http://www.w3.org/2000/svg"
   xmlns:sodipodi="http://sodipodi.sourceforge.net/DTD/sodipodi-0.dtd"
   xmlns:inkscape="http://www.inkscape.org/namespaces/inkscape"
   version="1.1"
   id="Capa_1"
   x="0px"
   y="0px"
   viewBox="0 0 228.403 228.403"
   style="enable-background:new 0 0 228.403 228.403;"
   xml:space="preserve"
   sodipodi:docname="google_translate_gray.svg"
   inkscape:version="0.92.3 (2405546, 2018-03-11)"><metadata
   id="metadata39"><rdf:RDF><cc:Work
       rdf:about=""><dc:format>image/svg+xml</dc:format><dc:type
         rdf:resource="http://purl.org/dc/dcmitype/StillImage" /></cc:Work></rdf:RDF></metadata><defs
   id="defs37" /><sodipodi:namedview
   pagecolor="#ffffff"
   bordercolor="#666666"
   borderopacity="1"
   objecttolerance="10"
   gridtolerance="10"
   guidetolerance="10"
   inkscape:pageopacity="0"
   inkscape:pageshadow="2"
   inkscape:window-width="1920"
   inkscape:window-height="1098"
   id="namedview35"
   showgrid="false"
   inkscape:zoom="2.9225045"
   inkscape:cx="14.271138"
   inkscape:cy="129.72644"
   inkscape:window-x="0"
   inkscape:window-y="81"
   inkscape:window-maximized="0"
   inkscape:current-layer="Capa_1" />
<path
   d="m 215.428,73.353952 h -79.797 l -12.998,-56.41 H 12.977 C 5.821,16.942952 0,22.764952 0,29.919952 V 142.55695 c 0,7.155 5.821,12.977 12.977,12.977 h 79.794 l 12.999,56.41 h 109.659 c 7.154,0 12.975,-5.821 12.975,-12.977 V 86.329952 c -0.001,-7.155 -5.821,-12.976 -12.976,-12.976 z M 15,140.53295 V 31.942952 h 95.696 l 25.022,108.589998 z m 93.164,15 h 28.195 l -21.134,30.643 z m 105.239,41.41 H 126.02 l 16.195,-23.481 2.458,4.004 c 9.801,-6.018 17.538,-13.048 23.646,-20.203 l 18.985,19.366 7.856,-7.701 -20.103,-20.506 c 8.455,-12.449 12.418,-24.163 14.078,-30.381 h 12.897 v -11 H 174.71 v -6.555 h -11 v 6.555 h -20.317 l -4.306,-18.687998 h 74.314 V 196.94295 Z m -58.838,-41.41 h 0.003 l -3.705,-16.078 9.689,9.883 c -1.989,2.39 -4.18,4.765 -6.588,7.089 l 0.611,-0.887 z m -0.125,-28.143 -5.186,5.084 -3.326,-14.433 h 31.73 c -1.684,5.371 -4.87,13.541 -10.514,22.309 z M 67.831,78.736952 h 37.074 v 7.5 c 0,20.441998 -16.631,37.073998 -37.074,37.073998 -20.443,0 -37.074,-16.632 -37.074,-37.073998 0,-20.442 16.631,-37.073 37.074,-37.073 8.261,0 16.077,2.658 22.603,7.686 l -9.155,11.883 c -3.878,-2.989 -8.528,-4.568 -13.448,-4.568 -12.171,0 -22.074,9.902 -22.074,22.073 0,12.172 9.902,22.073998 22.074,22.073998 9.539,0 17.685,-6.084 20.762,-14.573998 H 67.831 Z"
   id="path2"
   inkscape:connector-curvature="0" />
<g
   id="g4">
</g>
<g
   id="g6">
</g>
<g
   id="g8">
</g>
<g
   id="g10">
</g>
<g
   id="g12">
</g>
<g
   id="g14">
</g>
<g
   id="g16">
</g>
<g
   id="g18">
</g>
<g
   id="g20">
</g>
<g
   id="g22">
</g>
<g
   id="g24">
</g>
<g
   id="g26">
</g>
<g
   id="g28">
</g>
<g
   id="g30">
</g>
<g
   id="g32">
</g>
<path
   style="opacity:0.95;fill:#666666;fill-opacity:1;fill-rule:evenodd;stroke:none;stroke-width:0.96780932;stroke-linejoin:round;stroke-miterlimit:4;stroke-dasharray:none;stroke-dashoffset:0;stroke-opacity:1;paint-order:normal"
   d="M 15.068655,86.266916 V 32.069594 h 47.759355 47.75936 l 0.13659,0.544393 c 0.0751,0.299416 5.63054,24.388795 12.34536,53.531953 6.71482,29.14316 12.2842,53.28698 12.37641,53.65293 l 0.16765,0.66537 H 75.341015 15.068655 Z m 57.947583,36.749814 c 4.092067,-0.52352 7.780899,-1.71717 11.990395,-3.87991 6.880587,-3.53508 12.627681,-9.37135 16.047177,-16.29617 3.01333,-6.102293 4.0085,-11.032524 4.01692,-19.900578 l 0.004,-4.41563 H 86.444592 67.814263 v 7.621498 7.621499 h 10.282974 c 5.655635,0 10.282974,0.07759 10.282974,0.172429 0,0.09484 -0.433966,1.048464 -0.964369,2.119171 -2.884979,5.823821 -8.563177,10.220001 -15.041978,11.645821 -2.826136,0.62196 -7.059167,0.52682 -9.926527,-0.22309 C 51.813009,104.70052 44.70031,94.408228 46.030704,83.726417 47.157991,74.675379 53.597173,67.332308 62.507481,64.93674 c 2.830777,-0.761066 7.903032,-0.75667 10.750709,0.0093 2.0986,0.564494 4.90479,1.809288 6.498305,2.882572 0.551218,0.371266 1.131069,0.754081 1.288553,0.850699 0.185701,0.113933 1.847411,-1.845404 4.72816,-5.575019 2.443005,-3.162881 4.522203,-5.881668 4.620443,-6.041748 0.420424,-0.685081 -6.002939,-4.426097 -9.997867,-5.822834 -16.332545,-5.710309 -33.966067,0.169932 -43.571115,14.529633 -7.256888,10.849167 -8.139247,25.277673 -2.26179,36.985227 5.113015,10.18483 14.358142,17.39094 25.401644,19.79931 4.181382,0.91188 8.378456,1.06071 13.051715,0.46284 z"
   id="path846"
   inkscape:connector-curvature="0" /><path
   style="opacity:0.95;fill:#666666;fill-opacity:1;fill-rule:evenodd;stroke:none;stroke-width:1.36868906;stroke-linejoin:round;stroke-miterlimit:4;stroke-dasharray:none;stroke-dashoffset:0;stroke-opacity:1;paint-order:normal"
   d="m 126.57208,196.56263 c 0,-0.0616 3.527,-5.22545 7.83777,-11.47513 l 7.83778,-11.36307 1.08382,1.89431 c 0.59609,1.04187 1.22267,1.89431 1.3924,1.89431 0.50586,0 6.75676,-4.33263 10.24852,-7.10348 1.78785,-1.41872 5.55394,-4.87929 8.36908,-7.69016 l 5.11843,-5.11067 9.42389,9.61178 9.42388,9.61178 4.052,-3.93295 4.052,-3.93294 -9.86893,-10.11022 c -5.42791,-5.56062 -9.91369,-10.23899 -9.96841,-10.39636 -0.0547,-0.15738 0.76076,-1.65312 1.81214,-3.32388 4.03233,-6.40772 8.51134,-16.08521 10.78917,-23.31144 l 1.10555,-3.50727 h 6.45549 6.45549 v -5.64584 -5.64584 h -13.68689 -13.68689 v -3.42172 -3.42173 h -5.64585 -5.64584 v 3.4269 3.42689 l -10.00163,-0.0907 -10.00163,-0.0907 -1.6218,-7.014528 C 141.00963,95.98195 140.0594,91.863051 139.79,90.686834 l -0.48982,-2.138576 h 36.92074 36.92074 v 54.063222 54.06321 h -43.28479 c -23.80664,0 -43.28479,-0.0504 -43.28479,-0.11206 z"
   id="path848"
   inkscape:connector-curvature="0" /><path
   style="opacity:0.95;fill:#666666;fill-opacity:1;fill-rule:evenodd;stroke:none;stroke-width:1.36868906;stroke-linejoin:round;stroke-miterlimit:4;stroke-dasharray:none;stroke-dashoffset:0;stroke-opacity:1;paint-order:normal"
   d="m 160.65101,133.51098 -6.1263,-6.28405 -2.59355,2.46362 -2.59356,2.46363 -0.41691,-1.87143 c -0.2293,-1.02928 -0.94292,-4.14259 -1.58581,-6.91846 l -1.16891,-5.04705 h 15.5609 15.56089 l -0.22915,0.94098 c -0.40115,1.64726 -3.30106,8.70425 -4.83812,11.77365 -1.91175,3.81765 -4.8865,8.85358 -5.19978,8.80269 -0.13387,-0.0217 -3.00023,-2.86736 -6.3697,-6.32358 z"
   id="path850"
   inkscape:connector-curvature="0" /><path
   style="opacity:0.95;fill:#666666;fill-opacity:1;fill-rule:evenodd;stroke:none;stroke-width:1.36868906;stroke-linejoin:round;stroke-miterlimit:4;stroke-dasharray:none;stroke-dashoffset:0;stroke-opacity:1;paint-order:normal"
   d="m 154.64596,155.24527 c -0.009,-0.10872 -0.77967,-3.48937 -1.71334,-7.51255 -0.93367,-4.02319 -1.65051,-7.36197 -1.59297,-7.4195 0.16618,-0.16618 8.76531,8.74436 8.76531,9.08273 0,0.33948 -5.43406,6.16207 -5.459,5.84932 z"
   id="path852"
   inkscape:connector-curvature="0" /><path
   style="opacity:1;fill:#666666;fill-opacity:1;fill-rule:evenodd;stroke:none;stroke-width:1.36868906;stroke-linejoin:round;stroke-miterlimit:4;stroke-dasharray:none;stroke-dashoffset:0;stroke-opacity:1;paint-order:normal"
   d="m 115.11852,184.95529 c -0.1933,-0.58892 -6.68157,-28.8829 -6.68157,-29.13694 0,-0.11238 6.1591,-0.20433 13.68689,-0.20433 7.52779,0 13.68689,0.0915 13.68689,0.20341 0,0.28039 -20.2028,29.56558 -20.39623,29.56558 -0.0856,0 -0.21876,-0.19247 -0.29598,-0.42772 z"
   id="path854"
   inkscape:connector-curvature="0" /></svg>